<svg width="192" height="192" viewBox="0 0 192 192" fill="none" xmlns="http://www.w3.org/2000/svg">
<rect width="192" height="192" fill="white"/>
<path d="M69.308 40.9901C70.708 38.6207 72.4057 36.4496 74.3515 34.527L57.8132 16.4624C53.6526 20.4242 50.1042 25.0153 47.3135 30.0764L69.308 40.9901Z" fill="#00C200"/>
<path d="M109.852 28.2279C112.357 29.372 114.684 30.8308 116.788 32.5563L133.372 14.5204C129.005 10.7682 124.05 7.67154 118.674 5.38603L109.852 28.2279Z" fill="#EEA62A"/>
<path d="M147.834 33.66L125.851 44.5752C126.902 47.0156 127.648 49.6081 128.053 52.3118L152.505 50.0121C151.785 44.2455 150.183 38.7475 147.834 33.66Z" fill="#E5122A"/>
<path d="M124.275 41.4104L146.255 30.4971C143.532 25.4578 140.059 20.8807 135.982 16.9146L119.398 34.9466C121.287 36.8789 122.93 39.0506 124.275 41.4104Z" fill="#009F29"/>
<path d="M64.9397 56.9701C64.9397 56.4785 64.9554 55.9861 64.9776 55.4957L40.5201 53.3155C40.443 54.5233 40.3961 55.7415 40.3961 56.9701C40.3961 61.6433 40.9798 66.1838 42.0611 70.5213L65.6841 63.7715C65.1995 61.579 64.9397 59.3064 64.9397 56.9701Z" fill="#007F3E"/>
<path d="M121.198 76.995C119.458 79.1029 117.452 80.9813 115.232 82.5839L128.145 103.411C132.938 100.176 137.206 96.2238 140.792 91.7118L121.198 76.995Z" fill="#FFC300"/>
<path d="M128.395 56.9701C128.395 59.2764 128.145 61.5255 127.668 63.6928L151.287 70.4518C152.364 66.1324 152.94 61.616 152.94 56.9701C152.94 55.817 152.901 54.6716 152.828 53.5295L128.373 55.8312C128.386 56.2124 128.395 56.5897 128.395 56.9701Z" fill="#FF3719"/>
<path d="M72.5338 77.4613L52.9865 92.2609C56.6222 96.72 60.928 100.605 65.7507 103.78L78.6638 82.9742C76.3888 81.4074 74.328 79.5512 72.5338 77.4613Z" fill="#FF9F00"/>
<path d="M65.3368 51.9814C65.773 49.2282 66.5748 46.5981 67.6797 44.1329L45.7061 33.2282C43.2783 38.3744 41.6133 43.9464 40.8572 49.7948L65.3368 51.9814Z" fill="#0097DB"/>
<path d="M125.142 105.294L112.247 84.4949C109.903 85.8138 107.38 86.848 104.721 87.5414L109.271 111.601C114.933 110.306 120.273 108.153 125.142 105.294Z" fill="#BD1241"/>
<path d="M126.727 67.0997C125.873 69.601 124.715 71.9622 123.294 74.1417L142.904 88.8755C146.089 84.3134 148.608 79.2623 150.328 73.8548L126.727 67.0997Z" fill="#00BDE3"/>
<path d="M101.243 88.2431C99.7505 88.4571 98.2214 88.5762 96.6673 88.5762C95.4175 88.5762 94.1846 88.4975 92.9741 88.3577L88.4269 112.418C91.1184 112.812 93.8673 113.019 96.6673 113.019C99.7728 113.019 102.821 112.766 105.79 112.282L101.243 88.2431Z" fill="#FF6916"/>
<path d="M98.6969 25.4298C101.421 25.6041 104.054 26.1205 106.547 26.94L115.368 4.10264C110.121 2.25686 104.521 1.16418 98.6969 0.959999V25.4298Z" fill="#FF1A38"/>
<path d="M89.4783 87.756C86.7281 87.1173 84.1148 86.1216 81.6897 84.822L68.77 105.636C73.7405 108.47 79.1744 110.569 84.9349 111.791L89.4783 87.756Z" fill="#FF0B69"/>
<path d="M87.1314 26.8268C89.6807 26.0243 92.3683 25.5359 95.1486 25.4063V0.939796C89.2432 1.09727 83.5702 2.16845 78.2499 4.00649L87.1314 26.8268Z" fill="#00466C"/>
<path d="M70.383 74.649C68.825 72.3556 67.5531 69.845 66.6402 67.1751L43.0355 73.9237C44.8232 79.5316 47.4717 84.7551 50.8318 89.4472L70.383 74.649Z" fill="#D08B1E"/>
<path d="M77.0091 32.1816C79.0829 30.5445 81.3671 29.167 83.813 28.0809L74.9366 5.27155C69.6501 7.48227 64.7792 10.4768 60.459 14.1028L77.0091 32.1816Z" fill="#00689F"/>
<path d="M22.4005 132.877L16.0914 165.904H10.0283L3.72064 132.877H9.3925L13.2073 155.918H13.2562L17.1688 132.877H22.4005Z" fill="black"/>
<path d="M24.7841 132.877H38.0855V137.409H30.3595V146.857H35.8847V151.339H30.3595V161.373H38.0855V165.904H24.7841V132.877Z" fill="black"/>
<path d="M46.3757 150.755V165.904H40.8004V132.878H48.9184C54.543 132.878 56.5967 135.654 56.5967 140.283V144.519C56.5967 148.076 55.3254 150.171 52.1464 150.901L57.4761 165.904H51.6084L46.3757 150.755ZM46.3757 137.408V147.686H48.2342C50.1419 147.686 50.9721 146.712 50.9721 144.959V140.087C50.9721 138.284 50.1419 137.408 48.2342 137.408H46.3757ZM76.4668 141.743V157.039C76.4668 162.105 74.3639 165.904 68.3979 165.904H59.791V132.878H68.3979C74.364 132.878 76.4668 136.629 76.4668 141.743ZM67.7139 161.373C70.0121 161.373 70.8929 160.01 70.8929 158.012V140.72C70.8929 138.771 70.0121 137.408 67.7139 137.408H65.3666V161.373H67.7139Z" fill="black"/>
<path d="M79.3866 132.877H92.688V137.409H84.9621V146.857H90.4886V151.339H84.9621V161.373H92.688V165.904H79.3866V132.877Z" fill="black"/>
<path d="M100.099 145.153V165.904H95.4039V132.877H100.882L106.897 151.826V132.877H111.542V165.904H106.653L100.099 145.153Z" fill="black"/>
<path d="M114.21 158.792V154.359H119.394V158.89C119.394 160.741 120.225 161.813 122.132 161.813C123.892 161.813 124.675 160.643 124.675 158.89V157.623C124.675 155.723 123.892 154.555 122.181 152.947L118.904 149.683C115.727 146.565 114.259 144.666 114.259 140.866V139.747C114.259 135.654 116.655 132.489 122.083 132.489C127.659 132.489 129.858 135.216 129.858 139.99V142.668H124.773V139.795C124.773 137.895 123.892 136.969 122.132 136.969C120.567 136.969 119.491 137.846 119.491 139.698V140.379C119.491 142.23 120.518 143.302 122.132 144.861L125.702 148.367C128.735 151.437 130.201 153.288 130.201 156.942V158.548C130.201 163.079 127.757 166.295 122.083 166.295C116.411 166.295 114.21 163.128 114.21 158.792Z" fill="black"/>
<path d="M148.247 144.471H148.1L144.335 165.904H141.742L137.585 144.471H137.489V165.904H132.892V132.877H139.395L143.015 151.485H143.063L146.291 132.877H153.334V165.904H148.247V144.471Z" fill="black"/>
<path d="M155.746 165.904L162.006 132.878H168.362L174.671 165.904H168.95L167.923 159.864H162.006L161.027 165.904H155.746ZM165.136 124.938C167.336 124.938 168.852 126.594 168.852 128.592C168.852 130.589 167.336 132.245 165.136 132.245C162.935 132.245 161.37 130.589 161.37 128.592C161.37 126.594 162.935 124.938 165.136 124.938ZM162.74 155.431H167.19L164.988 142.181H164.939L162.74 155.431ZM165.136 130.198C166.065 130.198 166.652 129.517 166.652 128.592C166.652 127.665 166.065 126.984 165.136 126.984C164.206 126.984 163.62 127.665 163.62 128.592C163.62 129.517 164.206 130.198 165.136 130.198Z" fill="black"/>
<path d="M177.054 132.877H182.629V161.373H189.279V165.904H177.054V132.877Z" fill="black"/>
<path d="M11.7361 174.161C11.3862 174.073 11.0534 174.021 10.5111 174.021C9.37181 174.021 8.53175 174.423 8.53175 175.556V177.476H11.2992V178.434H8.53175V186.199H7.35739V178.434H5.60577V177.894L7.35739 177.388V175.556C7.35739 173.881 8.32116 172.94 10.5111 172.94C10.8777 172.94 11.3862 172.975 11.7361 173.061V174.161ZM15.5909 186.374C12.5958 186.374 11.9131 184.507 11.9131 181.837C11.9131 179.168 12.5958 177.301 15.5909 177.301C18.604 177.301 19.2699 179.168 19.2699 181.837C19.2699 184.507 18.604 186.374 15.5909 186.374ZM15.5909 178.383C13.2785 178.383 13.1396 179.866 13.1396 181.837C13.1396 183.809 13.2785 185.292 15.5909 185.292C17.8679 185.292 18.0434 183.809 18.0434 181.837C18.0434 179.866 17.8679 178.383 15.5909 178.383ZM26.2261 178.523C25.9635 178.434 25.6136 178.383 25.1753 178.383C23.9841 178.383 23.2846 178.574 22.6356 178.941V186.199H21.4093V177.476H22.0934L22.3561 178.208C23.1793 177.598 24.1949 177.301 25.1753 177.301C25.5785 177.301 25.8933 177.336 26.2261 177.388V178.523ZM39.7665 181.837C39.7665 184.349 38.9953 186.374 36.176 186.374C35.2306 186.374 34.354 186.059 33.4437 185.484L33.1811 186.199H32.4969V173.113H33.7232V178.016C34.4763 177.528 35.3697 177.301 36.176 177.301C38.9952 177.301 39.7665 179.324 39.7665 181.837ZM33.7231 178.941V184.734C34.4072 185.099 35.0366 185.292 36.1758 185.292C38.2773 185.292 38.5401 183.564 38.5401 181.837C38.5401 180.109 38.2773 178.383 36.1758 178.383C35.0367 178.383 34.4074 178.574 33.7231 178.941ZM45.0918 178.383C43.8822 178.383 43.0071 178.593 42.3244 178.819V177.773C43.0942 177.441 44.2335 177.301 45.0918 177.301C46.755 177.301 47.7186 177.754 48.192 178.505C48.7526 177.754 49.646 177.301 51.0648 177.301C54.0414 177.301 54.3926 179.324 54.3926 181.837V182.291H48.6122V182.396C48.6824 183.914 49.0856 185.292 51.0649 185.292C52.325 185.292 53.0962 185.169 53.9545 184.803V185.851C52.9739 186.286 51.9232 186.374 51.0649 186.374C49.663 186.374 48.7695 185.919 48.209 185.187L47.6668 185.606C46.8787 186.182 45.8098 186.374 44.9163 186.374C42.5521 186.374 41.6053 185.222 41.6053 183.739C41.6053 182.396 42.2361 181.296 44.8292 181.296H47.3859V180.214C47.3857 178.941 46.7732 178.383 45.0918 178.383ZM44.7407 182.291C43.253 182.291 42.85 182.884 42.85 183.739C42.85 184.541 43.2348 185.292 44.9514 185.292C45.9319 185.292 46.8787 184.961 47.421 184.507L47.7187 184.246C47.5263 183.669 47.421 183.024 47.3859 182.308V182.291H44.7407ZM48.6122 181.296H53.1663C53.1481 179.796 53.026 178.383 51.0649 178.383C49.0672 178.383 48.6824 179.779 48.6122 181.296ZM61.3208 178.523C61.0582 178.434 60.7083 178.383 60.27 178.383C59.0789 178.383 58.3793 178.574 57.7303 178.941V186.199H56.5039V177.476H57.188L57.4507 178.208C58.2739 177.598 59.2896 177.301 60.27 177.301C60.6732 177.301 60.9878 177.336 61.3208 177.388V178.523ZM66.3119 177.301C69.2899 177.301 69.6398 179.324 69.6398 181.837V182.396H63.8606C63.9295 183.914 64.3325 185.292 66.3119 185.292C67.5734 185.292 68.3446 185.169 69.2029 184.803V185.851C68.221 186.286 67.1702 186.374 66.3119 186.374C63.3521 186.374 62.6343 184.349 62.6343 181.837C62.6344 179.324 63.3522 177.301 66.3119 177.301ZM63.8607 181.401H68.4135C68.4135 179.848 68.3264 178.383 66.312 178.383C64.2808 178.383 63.9125 179.831 63.8607 181.401ZM77.6103 178.016V173.113H78.8366V186.199H78.1539L77.8912 185.484C76.9809 186.059 76.1043 186.374 75.159 186.374C72.3383 186.374 71.5684 184.349 71.5684 181.837C71.5684 179.324 72.3383 177.301 75.159 177.301C75.964 177.301 76.8574 177.528 77.6103 178.016ZM72.7949 181.837C72.7949 183.564 73.0577 185.292 75.1591 185.292C76.297 185.292 76.9277 185.099 77.6104 184.734V178.941C76.9277 178.574 76.297 178.383 75.1591 178.383C73.0577 178.383 72.7949 180.109 72.7949 181.837Z" fill="black"/>
<path d="M81.9442 177.477L84.3953 184.63L86.8479 177.477H88.2504L83.2057 190.56H81.891L83.8703 185.972L80.5417 177.477H81.9442Z" fill="black"/>
<path d="M91.6998 183.756C91.5061 183.949 91.367 184.192 91.367 184.402C91.367 184.838 91.5763 185.031 92.0314 185.082L95.0095 185.431C96.6558 185.606 97.4088 186.251 97.4088 187.769C97.4088 189.897 95.2721 190.735 92.8546 190.735C90.4034 190.735 88.9311 190.02 88.9311 188.101C88.9311 186.914 89.7543 186.129 90.7362 185.797V185.781C90.4034 185.554 90.1756 185.204 90.1756 184.629C90.1756 184.141 90.4736 183.739 90.8415 183.443C89.7894 182.866 89.4396 181.803 89.4396 180.581C89.4396 178.784 90.2109 177.301 92.8546 177.301C93.3982 177.301 93.8534 177.371 94.2566 177.476H97.2346V178.138L95.7623 178.558C96.1304 179.116 96.271 179.813 96.271 180.581C96.271 182.378 95.4997 183.861 92.8546 183.861C92.4176 183.861 92.0314 183.826 91.6998 183.756ZM92.207 186.112C91.0508 186.374 90.0704 186.914 90.0704 188.031C90.0704 189.322 91.0508 189.689 92.8546 189.689C94.6063 189.689 96.2527 189.252 96.2527 187.769C96.2527 186.879 95.8327 186.531 94.7651 186.409L92.207 186.112ZM95.1319 180.581C95.1319 179.429 94.9043 178.366 92.8548 178.366C90.8066 178.366 90.579 179.429 90.579 180.581C90.579 181.733 90.8066 182.797 92.8548 182.797C94.9042 182.797 95.1319 181.733 95.1319 180.581ZM103.871 186.304C103.661 186.356 103.31 186.374 103.083 186.374C101.629 186.374 100.28 185.711 100.28 184.001V178.434H98.5284V177.894L100.28 177.388V175.033L101.506 174.684V177.476H104.222V178.434H101.506V183.861C101.506 184.926 102.085 185.362 103.188 185.362C103.416 185.362 103.643 185.344 103.871 185.327V186.304ZM106.742 173.986C107.232 173.986 107.617 174.37 107.617 174.858C107.617 175.346 107.232 175.731 106.742 175.731C106.252 175.731 105.865 175.346 105.865 174.858C105.865 174.37 106.252 173.986 106.742 173.986ZM106.146 184.454V177.476H107.338V184.594C107.338 185.204 107.53 185.379 108.074 185.379V186.374C106.812 186.374 106.146 185.851 106.146 184.454ZM112.066 183.756C111.872 183.949 111.733 184.192 111.733 184.402C111.733 184.838 111.942 185.031 112.398 185.082L115.376 185.431C117.022 185.606 117.775 186.251 117.775 187.769C117.775 189.897 115.638 190.735 113.221 190.735C110.77 190.735 109.297 190.02 109.297 188.101C109.297 186.914 110.12 186.129 111.102 185.797V185.781C110.77 185.554 110.542 185.204 110.542 184.629C110.542 184.141 110.84 183.739 111.208 183.443C110.156 182.866 109.806 181.803 109.806 180.581C109.806 178.784 110.577 177.301 113.221 177.301C113.764 177.301 114.22 177.371 114.623 177.476H117.601V178.138L116.129 178.558C116.497 179.116 116.637 179.813 116.637 180.581C116.637 182.378 115.866 183.861 113.221 183.861C112.784 183.861 112.398 183.826 112.066 183.756ZM112.573 186.112C111.417 186.374 110.437 186.914 110.437 188.031C110.437 189.322 111.417 189.689 113.221 189.689C114.972 189.689 116.619 189.252 116.619 187.769C116.619 186.879 116.199 186.531 115.131 186.409L112.573 186.112ZM115.498 180.581C115.498 179.429 115.27 178.366 113.221 178.366C111.172 178.366 110.945 179.429 110.945 180.581C110.945 181.733 111.172 182.797 113.221 182.797C115.27 182.797 115.498 181.733 115.498 180.581ZM124.922 183.809C124.922 184.942 125.588 185.292 126.674 185.292C127.812 185.292 128.391 185.099 129.038 184.734V177.476H130.265V186.199H129.582L129.319 185.466C128.496 186.077 127.603 186.374 126.674 186.374C124.589 186.374 123.696 185.431 123.696 183.756V177.476H124.922V183.809ZM138.425 178.016V173.113H139.651V186.199H138.968L138.706 185.484C137.795 186.059 136.919 186.374 135.973 186.374C133.153 186.374 132.383 184.349 132.383 181.837C132.383 179.324 133.153 177.301 135.973 177.301C136.778 177.301 137.672 177.528 138.425 178.016ZM133.609 181.837C133.609 183.564 133.872 185.292 135.973 185.292C137.111 185.292 137.742 185.099 138.425 184.734V178.941C137.742 178.574 137.111 178.383 135.973 178.383C133.872 178.383 133.609 180.109 133.609 181.837Z" fill="black"/>
<path d="M142.706 177.477L145.212 184.629L147.716 177.477H149.066L145.649 186.373H144.773L141.357 177.477H142.706Z" fill="black"/>
<path d="M151.507 173.986C151.997 173.986 152.382 174.37 152.382 174.858C152.382 175.346 151.997 175.731 151.507 175.731C151.017 175.731 150.63 175.346 150.63 174.858C150.631 174.37 151.017 173.986 151.507 173.986ZM150.911 184.454V177.476H152.102V184.594C152.102 185.204 152.295 185.379 152.839 185.379V186.374C151.577 186.374 150.911 185.851 150.911 184.454Z" fill="black"/>
<path d="M157.811 181.069L162.049 186.198H160.526L157.075 181.768L155.972 182.814V186.198H154.781V173.114H155.972V181.384L159.93 177.477H161.576L157.811 181.069Z" fill="black"/>
<path d="M163.686 184.454V173.113H164.877V184.594C164.877 185.204 165.07 185.379 165.613 185.379V186.374C164.352 186.374 163.686 185.851 163.686 184.454ZM168.256 173.986C168.746 173.986 169.131 174.37 169.131 174.858C169.131 175.346 168.746 175.731 168.256 175.731C167.765 175.731 167.379 175.346 167.379 174.858C167.379 174.37 167.766 173.986 168.256 173.986ZM167.66 184.454V177.476H168.852V184.594C168.852 185.204 169.044 185.379 169.588 185.379V186.374C168.326 186.374 167.66 185.851 167.66 184.454ZM176.871 179.866C176.871 178.731 176.207 178.383 175.121 178.383C173.982 178.383 173.404 178.574 172.755 178.941V186.199H171.529V177.476H172.213L172.476 178.208C173.299 177.598 174.192 177.301 175.121 177.301C177.204 177.301 178.097 178.243 178.097 179.918V186.199H176.871V179.866ZM182.258 183.756C182.064 183.949 181.925 184.192 181.925 184.402C181.925 184.838 182.135 185.031 182.59 185.082L185.568 185.431C187.214 185.606 187.967 186.251 187.967 187.769C187.967 189.897 185.831 190.735 183.413 190.735C180.962 190.735 179.49 190.02 179.49 188.101C179.49 186.914 180.313 186.129 181.295 185.797V185.781C180.962 185.554 180.734 185.204 180.734 184.629C180.734 184.141 181.032 183.739 181.4 183.443C180.348 182.866 179.998 181.803 179.998 180.581C179.998 178.784 180.769 177.301 183.413 177.301C183.957 177.301 184.412 177.371 184.815 177.476H187.793V178.138L186.321 178.558C186.689 179.116 186.829 179.813 186.829 180.581C186.829 182.378 186.058 183.861 183.413 183.861C182.976 183.861 182.59 183.826 182.258 183.756ZM182.765 186.112C181.609 186.374 180.629 186.914 180.629 188.031C180.629 189.322 181.609 189.689 183.413 189.689C185.165 189.689 186.811 189.252 186.811 187.769C186.811 186.879 186.391 186.531 185.324 186.409L182.765 186.112ZM185.69 180.581C185.69 179.429 185.462 178.366 183.413 178.366C181.365 178.366 181.137 179.429 181.137 180.581C181.137 181.733 181.365 182.797 183.413 182.797C185.463 182.797 185.69 181.733 185.69 180.581Z" fill="black"/>
</svg>
