<svg width="512" height="512" viewBox="0 0 512 512" fill="none" xmlns="http://www.w3.org/2000/svg">
<rect width="512" height="512" fill="white"/>
<path d="M184.23 109.307C187.951 102.988 192.463 97.199 197.635 92.0721L153.68 43.8998C142.622 54.4646 133.192 66.7075 125.774 80.2037L184.23 109.307Z" fill="#00C200"/>
<path d="M291.987 75.2743C298.644 78.3253 304.829 82.2153 310.42 86.8169L354.496 38.721C342.89 28.7152 329.721 20.4575 315.432 14.3627L291.987 75.2743Z" fill="#EEA62A"/>
<path d="M392.932 89.7601L334.507 118.867C337.301 125.375 339.283 132.288 340.359 139.498L405.347 133.366C403.435 117.988 399.176 103.327 392.932 89.7601Z" fill="#E5122A"/>
<path d="M330.318 110.428L388.736 81.3255C381.499 67.8874 372.27 55.6819 361.434 45.1057L317.358 93.1909C322.377 98.3437 326.743 104.135 330.318 110.428Z" fill="#009F29"/>
<path d="M172.621 151.92C172.621 150.609 172.662 149.296 172.721 147.989L107.719 142.175C107.514 145.395 107.39 148.644 107.39 151.92C107.39 164.382 108.941 176.49 111.815 188.057L174.599 170.057C173.311 164.211 172.621 158.15 172.621 151.92Z" fill="#007F3E"/>
<path d="M322.141 205.32C317.517 210.941 312.186 215.95 306.286 220.224L340.605 275.762C353.343 267.135 364.686 256.597 374.218 244.565L322.141 205.32Z" fill="#FFC300"/>
<path d="M341.269 151.92C341.269 158.07 340.606 164.068 339.336 169.848L402.109 187.872C404.973 176.353 406.503 164.309 406.503 151.92C406.503 148.845 406.399 145.791 406.205 142.745L341.21 148.883C341.244 149.9 341.269 150.906 341.269 151.92Z" fill="#FF3719"/>
<path d="M192.804 206.563L140.852 246.029C150.515 257.92 161.958 268.28 174.776 276.746L209.096 221.265C203.05 217.086 197.572 212.137 192.804 206.563Z" fill="#FF9F00"/>
<path d="M173.676 138.617C174.835 131.275 176.966 124.262 179.903 117.688L121.503 88.6085C115.05 102.332 110.625 117.19 108.615 132.786L173.676 138.617Z" fill="#0097DB"/>
<path d="M332.622 280.785L298.352 225.32C292.121 228.837 285.416 231.595 278.349 233.444L290.442 297.604C305.492 294.149 319.683 288.408 332.622 280.785Z" fill="#BD1241"/>
<path d="M336.836 178.933C334.566 185.603 331.488 191.899 327.711 197.711L379.83 237.001C388.295 224.836 394.99 211.366 399.561 196.946L336.836 178.933Z" fill="#00BDE3"/>
<path d="M269.106 235.315C265.139 235.886 261.075 236.203 256.945 236.203C253.623 236.203 250.346 235.993 247.129 235.62L235.044 299.781C242.197 300.832 249.503 301.385 256.945 301.385C265.198 301.385 273.299 300.71 281.192 299.418L269.106 235.315Z" fill="#FF6916"/>
<path d="M262.339 67.8129C269.579 68.2775 276.576 69.6545 283.202 71.8401L306.647 10.9404C292.701 6.01829 277.819 3.10448 262.339 2.56V67.8129Z" fill="#FF1A38"/>
<path d="M237.838 234.016C230.529 232.313 223.583 229.658 217.138 226.192L182.801 281.696C196.011 289.252 210.453 294.851 225.763 298.109L237.838 234.016Z" fill="#FF0B69"/>
<path d="M231.601 71.5382C238.376 69.3982 245.519 68.0956 252.908 67.7502V2.50613C237.213 2.92604 222.136 5.78254 207.996 10.684L231.601 71.5382Z" fill="#00466C"/>
<path d="M187.087 199.064C182.947 192.948 179.566 186.253 177.14 179.134L114.405 197.13C119.156 212.084 126.195 226.014 135.125 238.526L187.087 199.064Z" fill="#D08B1E"/>
<path d="M204.698 85.8177C210.21 81.4519 216.28 77.7785 222.781 74.8823L199.19 14.0575C185.14 19.9527 172.194 27.938 160.712 37.6075L204.698 85.8177Z" fill="#00689F"/>
<path d="M59.5619 354.338L42.7938 442.41H26.6796L9.91537 354.338H24.9898L35.1286 415.782H35.2586L45.6573 354.338H59.5619Z" fill="black"/>
<path d="M65.8967 354.338H101.249V366.424H80.7149V391.619H95.3994V403.571H80.7149V430.328H101.249V442.41H65.8967V354.338Z" fill="black"/>
<path d="M123.282 402.012V442.411H108.464V354.34H130.04C144.989 354.34 150.447 361.743 150.447 374.087V385.385C150.447 394.87 147.068 400.456 138.619 402.404L152.784 442.411H137.189L123.282 402.012ZM123.282 366.422V393.829H128.222C133.292 393.829 135.498 391.232 135.498 386.557V373.564C135.498 368.758 133.292 366.422 128.222 366.422H123.282ZM203.257 377.982V418.769C203.257 432.281 197.668 442.411 181.812 442.411H158.937V354.34H181.812C197.668 354.34 203.257 364.344 203.257 377.982ZM179.994 430.329C186.102 430.329 188.443 426.695 188.443 421.366V375.254C188.443 370.057 186.102 366.422 179.994 366.422H173.755V430.329H179.994Z" fill="black"/>
<path d="M211.017 354.338H246.369V366.424H225.835V391.619H240.523V403.571H225.835V430.328H246.369V442.41H211.017V354.338Z" fill="black"/>
<path d="M266.065 387.076V442.41H253.587V354.338H268.145L284.133 404.87V354.338H296.478V442.41H283.483L266.065 387.076Z" fill="black"/>
<path d="M303.568 423.445V411.624H317.348V423.706C317.348 428.643 319.554 431.501 324.625 431.501C329.302 431.501 331.382 428.381 331.382 423.706V420.329C331.382 415.262 329.302 412.146 324.755 407.859L316.045 399.154C307.6 390.84 303.698 385.777 303.698 375.643V372.658C303.698 361.743 310.068 353.303 324.494 353.303C339.312 353.303 345.159 360.575 345.159 373.307V380.448H331.643V372.788C331.643 367.721 329.302 365.251 324.625 365.251C320.465 365.251 317.605 367.59 317.605 372.527V374.344C317.605 379.281 320.335 382.139 324.625 386.296L334.111 395.646C342.172 403.833 346.069 408.769 346.069 418.512V422.795C346.069 434.878 339.573 443.452 324.494 443.452C309.418 443.452 303.568 435.008 303.568 423.445Z" fill="black"/>
<path d="M394.031 385.257H393.641L383.633 442.41H376.743L365.695 385.257H365.439V442.41H353.22V354.338H370.504L380.127 403.96H380.253L388.832 354.338H407.55V442.41H394.031V385.257Z" fill="black"/>
<path d="M413.963 442.411L430.599 354.34H447.493L464.26 442.411H449.053L446.325 426.303H430.599L427.997 442.411H413.963ZM438.918 333.169C444.764 333.169 448.793 337.583 448.793 342.911C448.793 348.236 444.764 352.654 438.918 352.654C433.067 352.654 428.908 348.236 428.908 342.911C428.908 337.583 433.067 333.169 438.918 333.169ZM432.549 414.482H444.376L438.526 379.15H438.395L432.549 414.482ZM438.918 347.195C441.386 347.195 442.946 345.378 442.946 342.911C442.946 340.441 441.386 338.624 438.918 338.624C436.446 338.624 434.889 340.441 434.889 342.911C434.889 345.378 436.446 347.195 438.918 347.195Z" fill="black"/>
<path d="M470.592 354.338H485.411V430.328H503.085V442.41H470.592V354.338Z" fill="black"/>
<path d="M31.2183 464.43C30.2885 464.195 29.4039 464.057 27.9626 464.057C24.9347 464.057 22.702 465.128 22.702 468.15V473.27H30.0572V475.825H22.702V496.531H19.5809V475.825H14.9255V474.385L19.5809 473.035V468.15C19.5809 463.684 22.1423 461.173 27.9626 461.173C28.9371 461.173 30.2885 461.266 31.2183 461.497V464.43ZM41.4634 496.997C33.5034 496.997 31.6889 492.019 31.6889 484.9C31.6889 477.781 33.5034 472.803 41.4634 472.803C49.4716 472.803 51.2413 477.781 51.2413 484.9C51.2413 492.019 49.4716 496.997 41.4634 496.997ZM41.4634 475.687C35.3178 475.687 34.9485 479.643 34.9485 484.9C34.9485 490.157 35.3178 494.113 41.4634 494.113C47.5153 494.113 47.9817 490.157 47.9817 484.9C47.9817 479.643 47.5153 475.687 41.4634 475.687ZM69.7293 476.061C69.0312 475.825 68.1014 475.687 66.9366 475.687C63.7707 475.687 61.9115 476.199 60.1865 477.176V496.531H56.9274V473.27H58.7456L59.4437 475.221C61.6317 473.594 64.3307 472.803 66.9366 472.803C68.0082 472.803 68.8447 472.896 69.7293 473.035V476.061ZM105.716 484.9C105.716 491.598 103.667 496.997 96.1735 496.997C93.661 496.997 91.3312 496.157 88.912 494.624L88.2139 496.531H86.3956V461.635H89.6548V474.71C91.6562 473.407 94.0307 472.803 96.1735 472.803C103.666 472.803 105.716 478.198 105.716 484.9ZM89.6544 477.176V492.624C91.4727 493.598 93.1453 494.113 96.1731 494.113C101.758 494.113 102.457 489.504 102.457 484.9C102.457 480.292 101.758 475.687 96.1731 475.687C93.1457 475.687 91.4731 476.199 89.6544 477.176ZM119.87 475.687C116.655 475.687 114.329 476.247 112.515 476.852V474.06C114.561 473.176 117.588 472.803 119.87 472.803C124.29 472.803 126.851 474.012 128.109 476.012C129.599 474.012 131.974 472.803 135.744 472.803C143.655 472.803 144.589 478.198 144.589 484.9V486.109H129.226V486.389C129.413 490.438 130.484 494.113 135.745 494.113C139.094 494.113 141.143 493.784 143.424 492.807V495.601C140.818 496.762 138.026 496.997 135.745 496.997C132.019 496.997 129.644 495.784 128.154 493.833L126.713 494.948C124.619 496.486 121.778 496.997 119.403 496.997C113.12 496.997 110.603 493.926 110.603 489.971C110.603 486.389 112.28 483.456 119.172 483.456H125.967V480.572C125.966 477.176 124.339 475.687 119.87 475.687ZM118.937 486.109C114.983 486.109 113.911 487.691 113.911 489.971C113.911 492.109 114.934 494.113 119.497 494.113C122.102 494.113 124.619 493.228 126.06 492.019L126.851 491.322C126.34 489.785 126.06 488.064 125.967 486.154V486.109H118.937ZM129.226 483.456H141.33C141.281 479.456 140.957 475.687 135.745 475.687C130.435 475.687 129.413 479.411 129.226 483.456ZM163.002 476.061C162.304 475.825 161.375 475.687 160.21 475.687C157.044 475.687 155.185 476.199 153.46 477.176V496.531H150.2V473.27H152.018L152.716 475.221C154.904 473.594 157.604 472.803 160.21 472.803C161.281 472.803 162.117 472.896 163.002 473.035V476.061ZM176.267 472.803C184.182 472.803 185.112 478.198 185.112 484.9V486.389H169.752C169.936 490.438 171.007 494.113 176.267 494.113C179.62 494.113 181.67 493.784 183.951 492.807V495.601C181.341 496.762 178.549 496.997 176.267 496.997C168.401 496.997 166.493 491.598 166.493 484.9C166.494 478.198 168.401 472.803 176.267 472.803ZM169.753 483.736H181.853C181.853 479.594 181.622 475.687 176.268 475.687C170.869 475.687 169.89 479.549 169.753 483.736ZM206.296 474.71V461.635H209.555V496.531H207.74L207.042 494.624C204.623 496.157 202.293 496.997 199.781 496.997C192.284 496.997 190.238 491.598 190.238 484.9C190.238 478.198 192.284 472.803 199.781 472.803C201.92 472.803 204.295 473.407 206.296 474.71ZM193.498 484.9C193.498 489.504 194.196 494.113 199.781 494.113C202.805 494.113 204.482 493.598 206.296 492.624V477.176C204.482 476.199 202.805 475.687 199.781 475.687C194.196 475.687 193.498 480.292 193.498 484.9Z" fill="black"/>
<path d="M217.814 473.271L224.329 492.345L230.847 473.271H234.575L221.167 508.16H217.673L222.933 495.926L214.087 473.271H217.814Z" fill="black"/>
<path d="M243.742 490.016C243.227 490.531 242.858 491.18 242.858 491.74C242.858 492.9 243.414 493.415 244.624 493.553L252.539 494.482C256.914 494.949 258.915 496.669 258.915 500.717C258.915 506.392 253.237 508.628 246.812 508.628C240.297 508.628 236.384 506.721 236.384 501.601C236.384 498.437 238.572 496.344 241.181 495.46V495.415C240.297 494.811 239.692 493.877 239.692 492.344C239.692 491.042 240.483 489.971 241.461 489.18C238.665 487.643 237.735 484.807 237.735 481.549C237.735 476.758 239.785 472.803 246.812 472.803C248.256 472.803 249.466 472.989 250.538 473.269H258.452V475.034L254.54 476.154C255.518 477.643 255.891 479.501 255.891 481.549C255.891 486.34 253.841 490.295 246.812 490.295C245.65 490.295 244.624 490.202 243.742 490.016ZM245.09 496.299C242.017 496.997 239.412 498.437 239.412 501.415C239.412 504.859 242.017 505.837 246.812 505.837C251.467 505.837 255.843 504.672 255.843 500.717C255.843 498.344 254.727 497.415 251.889 497.09L245.09 496.299ZM252.864 481.549C252.864 478.479 252.259 475.643 246.812 475.643C241.368 475.643 240.764 478.479 240.764 481.549C240.764 484.62 241.368 487.46 246.812 487.46C252.259 487.46 252.864 484.62 252.864 481.549ZM276.089 496.81C275.533 496.949 274.6 496.997 273.995 496.997C270.131 496.997 266.547 495.229 266.547 490.669V475.825H261.891V474.385L266.547 473.035V466.754L269.806 465.825V473.269H277.023V475.825H269.806V490.295C269.806 493.135 271.344 494.299 274.275 494.299C274.88 494.299 275.485 494.251 276.089 494.206V496.81ZM283.721 463.963C285.024 463.963 286.046 464.986 286.046 466.288C286.046 467.59 285.024 468.616 283.721 468.616C282.417 468.616 281.391 467.59 281.391 466.288C281.391 464.986 282.418 463.963 283.721 463.963ZM282.138 491.878V473.269H285.304V492.251C285.304 493.877 285.815 494.344 287.26 494.344V496.997C283.908 496.997 282.138 495.601 282.138 491.878ZM297.871 490.016C297.356 490.531 296.986 491.18 296.986 491.74C296.986 492.9 297.542 493.415 298.752 493.553L306.667 494.482C311.042 494.949 313.044 496.669 313.044 500.717C313.044 506.392 307.365 508.628 300.94 508.628C294.425 508.628 290.512 506.721 290.512 501.601C290.512 498.437 292.7 496.344 295.31 495.46V495.415C294.425 494.811 293.82 493.877 293.82 492.344C293.82 491.042 294.612 489.971 295.589 489.18C292.793 487.643 291.864 484.807 291.864 481.549C291.864 476.758 293.913 472.803 300.94 472.803C302.385 472.803 303.594 472.989 304.666 473.269H312.581V475.034L308.668 476.154C309.646 477.643 310.02 479.501 310.02 481.549C310.02 486.34 307.97 490.295 300.94 490.295C299.778 490.295 298.752 490.202 297.871 490.016ZM299.219 496.299C296.146 496.997 293.54 498.437 293.54 501.415C293.54 504.859 296.146 505.837 300.94 505.837C305.595 505.837 309.971 504.672 309.971 500.717C309.971 498.344 308.855 497.415 306.017 497.09L299.219 496.299ZM306.991 481.549C306.991 478.479 306.387 475.643 300.939 475.643C295.496 475.643 294.891 478.479 294.891 481.549C294.891 484.62 295.496 487.46 300.939 487.46C306.387 487.46 306.991 484.62 306.991 481.549ZM332.039 490.157C332.039 493.18 333.809 494.113 336.695 494.113C339.719 494.113 341.258 493.598 342.979 492.624V473.269H346.238V496.531H344.424L343.725 494.576C341.538 496.206 339.163 496.997 336.695 496.997C331.155 496.997 328.78 494.482 328.78 490.016V473.269H332.039V490.157ZM367.925 474.71V461.635H371.185V496.531H369.37L368.672 494.624C366.253 496.157 363.923 496.997 361.41 496.997C353.914 496.997 351.867 491.598 351.867 484.9C351.867 478.198 353.914 472.803 361.41 472.803C363.55 472.803 365.924 473.407 367.925 474.71ZM355.127 484.9C355.127 489.504 355.825 494.113 361.411 494.113C364.435 494.113 366.111 493.598 367.926 492.624V477.176C366.111 476.199 364.435 475.687 361.411 475.687C355.825 475.687 355.127 480.292 355.127 484.9Z" fill="black"/>
<path d="M379.305 473.271L385.965 492.345L392.621 473.271H396.207L387.127 496.995H384.799L375.719 473.271H379.305Z" fill="black"/>
<path d="M402.695 463.963C403.998 463.963 405.021 464.986 405.021 466.288C405.021 467.59 403.998 468.616 402.695 468.616C401.392 468.616 400.365 467.59 400.365 466.288C400.366 464.986 401.392 463.963 402.695 463.963ZM401.112 491.878V473.269H404.278V492.251C404.278 493.877 404.79 494.344 406.234 494.344V496.997C402.882 496.997 401.112 495.601 401.112 491.878Z" fill="black"/>
<path d="M419.451 482.85L430.714 496.529H426.665L417.494 484.715L414.561 487.504V496.529H411.396V461.637H414.561V483.691L425.082 473.271H429.456L419.451 482.85Z" fill="black"/>
<path d="M435.064 491.878V461.635H438.23V492.251C438.23 493.877 438.742 494.344 440.187 494.344V496.997C436.835 496.997 435.064 495.601 435.064 491.878ZM447.209 463.963C448.512 463.963 449.535 464.986 449.535 466.288C449.535 467.59 448.512 468.616 447.209 468.616C445.906 468.616 444.879 467.59 444.879 466.288C444.88 464.986 445.907 463.963 447.209 463.963ZM445.627 491.878V473.269H448.793V492.251C448.793 493.877 449.304 494.344 450.749 494.344V496.997C447.396 496.997 445.627 495.601 445.627 491.878ZM470.107 479.643C470.107 476.617 468.341 475.687 465.455 475.687C462.427 475.687 460.892 476.199 459.168 477.176V496.531H455.908V473.269H457.726L458.425 475.221C460.613 473.594 462.987 472.803 465.455 472.803C470.991 472.803 473.366 475.314 473.366 479.781V496.531H470.107V479.643ZM484.425 490.016C483.909 490.531 483.54 491.18 483.54 491.74C483.54 492.9 484.096 493.415 485.306 493.553L493.221 494.482C497.596 494.949 499.597 496.669 499.597 500.717C499.597 506.392 493.919 508.628 487.493 508.628C480.978 508.628 477.066 506.721 477.066 501.601C477.066 498.437 479.254 496.344 481.863 495.46V495.415C480.978 494.811 480.374 493.877 480.374 492.344C480.374 491.042 481.165 489.971 482.143 489.18C479.347 487.643 478.417 484.807 478.417 481.549C478.417 476.758 480.467 472.803 487.493 472.803C488.938 472.803 490.148 472.989 491.219 473.269H499.135V475.034L495.222 476.154C496.2 477.643 496.573 479.501 496.573 481.549C496.573 486.34 494.524 490.295 487.493 490.295C486.333 490.295 485.306 490.202 484.425 490.016ZM485.773 496.299C482.7 496.997 480.094 498.437 480.094 501.415C480.094 504.859 482.7 505.837 487.494 505.837C492.149 505.837 496.525 504.672 496.525 500.717C496.525 498.344 495.409 497.415 492.572 497.09L485.773 496.299ZM493.545 481.549C493.545 478.479 492.94 475.643 487.493 475.643C482.05 475.643 481.445 478.479 481.445 481.549C481.445 484.62 482.05 487.46 487.493 487.46C492.941 487.46 493.545 484.62 493.545 481.549Z" fill="black"/>
</svg>
