<svg height="134" viewBox="0 0 130 134" width="130" xmlns="http://www.w3.org/2000/svg"><g fill="none"><path d="m46.0965 28.6077c.9733-1.6537 2.1535-3.1689 3.5062-4.5107l-11.4972-12.6076c-2.8924 2.765-5.3592 5.9692-7.2993 9.5014z" fill="#00c200"/><path d="m74.2822 19.7007c1.7413.7985 3.3591 1.8166 4.8217 3.0209l11.5289-12.5876c-3.0359-2.6187-6.4803-4.7799-10.218-6.375z" fill="#eea62a"/><path d="m100.6865 23.4919-15.2822 7.6179c.7308 1.7032 1.2493 3.5125 1.5307 5.3995l16.9989-1.605c-.5002-4.0246-1.6142-7.8618-3.2474-11.4124" fill="#e5122a"/><path d="m84.3086 28.901 15.2802-7.6166c-1.8929-3.517-4.3069-6.7114-7.1412-9.4794l-11.529 12.5848c1.3128 1.3486 2.4549 2.8643 3.39 4.5112" fill="#009f29"/><path d="m43.0597 39.7604c0-.3431.0109-.6868.0263-1.029l-17.0025-1.5216c-.0536.8429-.0862 1.6931-.0862 2.5506 0 3.2615.4058 6.4304 1.1575 9.4576l16.4224-4.7108c-.3369-1.5302-.5175-3.1163-.5175-4.7468" fill="#007f3e"/><path d="m82.1696 53.7361c-1.2093 1.4711-2.6038 2.7821-4.1471 3.9006l8.9769 14.5354c3.3319-2.2578 6.2988-5.0159 8.7919-8.1649z" fill="#ffc300"/><path d="m87.173 39.7604c0 1.6096-.1735 3.1793-.5057 4.6919l16.4196 4.7172c.749-3.0146 1.1494-6.1667 1.1494-9.4091 0-.8048-.0272-1.6042-.078-2.4013l-17.0007 1.6064c.0089.2661.0154.5294.0154.7949" fill="#ff3719"/><path d="m48.339 54.0615-13.589 10.3289c2.5275 3.1121 5.5208 5.8234 8.8735 8.0391l8.977-14.5204c-1.5815-1.0935-3.0142-2.389-4.2615-3.8476" fill="#ff9f00"/><path d="m43.3358 36.2787c.3032-1.9215.8606-3.7571 1.6287-5.4776l-15.2757-7.6106c-1.6878 3.5916-2.8453 7.4804-3.3709 11.5621z" fill="#0097db"/><path d="m84.9113 73.4867-8.9641-14.5163c-1.6297.9205-3.3837 1.6423-5.2321 2.1262l3.163 16.7919c3.9366-.9043 7.6487-2.4068 11.0332-4.4018" fill="#bd1241"/><path d="m86.0135 46.83c-.5937 1.7457-1.399 3.3936-2.3868 4.9147l13.6326 10.283c2.2142-3.184 3.9655-6.7092 5.1611-10.4832z" fill="#00bde3"/><path d="m68.2974 61.5863c-1.0377.1494-2.1007.2325-3.1811.2325-.8688 0-1.7259-.0549-2.5674-.1525l-3.1612 16.7919c1.8711.2751 3.7821.4198 5.7286.4198 2.1589 0 4.2778-.1765 6.3423-.5147z" fill="#ff6916"/><path d="m66.5273 17.7479c1.8938.1216 3.724.482 5.4571 1.054l6.1326-15.9386c-3.6478-1.2882-7.5407-2.0508-11.5897-2.1933z" fill="#ff1a38"/><path d="m60.1186 61.2464c-1.9119-.4458-3.7286-1.1407-5.4145-2.0477l-8.9816 14.5263c3.4554 1.9778 7.233 3.4431 11.2376 4.2956z" fill="#ff0b69"/><path d="m58.4871 18.7229c1.7722-.5601 3.6406-.901 5.5734-.9914v-17.0756c-4.1053.1099-8.0491.8575-11.7477 2.1403z" fill="#00466c"/><path d="m46.8438 52.0988c-1.0831-1.6006-1.9673-3.3528-2.6019-5.2162l-16.4097 4.71c1.2428 3.9138 3.084 7.5594 5.4199 10.8341z" fill="#d08b1e"/><path d="m51.4502 22.4601c1.4417-1.1426 3.0296-2.104 4.73-2.862l-6.1708-15.919c-3.6751 1.5429-7.0613 3.6328-10.0646 6.1635z" fill="#00689f"/><g fill="#000"><path d="m13.487 92.737-4.386 23.05h-4.215l-4.385-23.05h3.943l2.652 16.081h.034l2.72-16.081z"/><path d="m15.144 92.737h9.247v3.163h-5.371v6.594h3.841v3.128h-3.841v7.003h5.371v3.162h-9.247z"/><path d="m30.1543 105.2141v10.5732h-3.8759v-23.0498h5.6435c3.9102 0 5.3379 1.9375 5.3379 5.168v2.957c0 2.4824-.8838 3.9443-3.0938 4.4541l3.7051 10.4707h-4.0791zm0-9.3145v7.1729h1.292c1.3262 0 1.9033-.6797 1.9033-1.9033v-3.4004c0-1.2578-.5771-1.8692-1.9033-1.8692zm20.9189 3.0254v10.6748c0 3.5362-1.4619 6.1875-5.6094 6.1875h-5.9834v-23.0498h5.9834c4.1476 0 5.6094 2.6182 5.6094 6.1875zm-6.0849 13.7002c1.5977 0 2.21-.9512 2.21-2.3457v-12.0684c0-1.3603-.6123-2.3115-2.21-2.3115h-1.6318v16.7256z"/><path d="m53.103 92.737h9.247v3.163h-5.371v6.594h3.842v3.128h-3.842v7.003h5.371v3.162h-9.247z"/><path d="m67.502 101.305v14.482h-3.264v-23.05h3.808l4.182 13.225v-13.225h3.229v23.05h-3.399z"/><path d="m77.3115 110.8235v-3.0938h3.6044v3.1621c0 1.292.5772 2.04 1.9034 2.04 1.2236 0 1.7675-.8164 1.7675-2.04v-.8838c0-1.3262-.5439-2.1416-1.7334-3.2637l-2.2783-2.2783c-2.209-2.1758-3.2295-3.5009-3.2295-6.1533v-.7812c0-2.8565 1.6661-5.0655 5.4395-5.0655 3.876 0 5.4053 1.9033 5.4053 5.2354v1.8691h-3.5352v-2.0049c0-1.3261-.6123-1.9726-1.8359-1.9726-1.0879 0-1.836.6123-1.836 1.9043v.4756c0 1.292.7139 2.04 1.836 3.1279l2.4814 2.4473c2.1084 2.1425 3.1279 3.4345 3.1279 5.9843v1.1211c0 3.1621-1.6992 5.4063-5.6435 5.4063-3.9433 0-5.4736-2.21-5.4736-5.2363z"/><path d="m100.974 100.829h-.102l-2.618 14.958h-1.802l-2.89-14.958h-.067v14.958h-3.196v-23.05h4.521l2.517 12.987h.033l2.244-12.987h4.896v23.05h-3.536z"/><path d="m106.1874 115.7873 4.3516-23.0498h4.4189l4.3858 23.0498h-3.9776l-.7138-4.2158h-4.1133l-.6807 4.2158zm6.5275-28.5908c1.5293 0 2.583 1.1553 2.583 2.5498 0 1.3936-1.0537 2.5498-2.583 2.5498-1.5303 0-2.6182-1.1562-2.6182-2.5498-.0001-1.3945 1.0878-2.5498 2.6182-2.5498zm-1.666 21.2812h3.0937l-1.5303-9.247h-.0341zm1.666-17.6103c.6455 0 1.0537-.4756 1.0537-1.1211 0-.6465-.4082-1.1221-1.0537-1.1221-.6465 0-1.0537.4756-1.0537 1.1221-.0001.6455.4072 1.1211 1.0537 1.1211z"/><path d="m121 92.737h3.876v19.888h4.623v3.162h-8.499z"/><path d="m6.0732 121.55c-.2432-.0615-.4746-.0976-.8516-.0976-.792 0-1.376.2802-1.376 1.0712v1.3399h1.9239v.6689h-1.9239v5.419h-.8164v-5.419h-1.2177v-.3769l1.2177-.3535v-1.2784c0-1.1689.67-1.8261 2.1924-1.8261.2549 0 .6084.0244.8516.0849zm2.6798 8.5235c-2.0821 0-2.5567-1.3028-2.5567-3.1661 0-1.8632.4746-3.166 2.5567-3.166 2.0947 0 2.5576 1.3028 2.5576 3.166 0 1.8633-.4629 3.1661-2.5576 3.1661zm0-5.5772c-1.6075 0-1.7041 1.0352-1.7041 2.4111 0 1.376.0966 2.4112 1.7041 2.4112 1.583 0 1.705-1.0352 1.705-2.4112 0-1.3759-.122-2.4111-1.705-2.4111zm7.3935.0977c-.1826-.0616-.4258-.0977-.7305-.0977-.8281 0-1.3144.1338-1.7656.3897v5.0654h-.8525v-6.0879h.4756l.1826.5107c.5723-.4257 1.2783-.6328 1.9599-.6328.2803 0 .4991.0244.7305.0606zm9.4131 2.3134c0 1.753-.5361 3.1661-2.4961 3.1661-.6572 0-1.2666-.2198-1.8994-.6211l-.1826.499h-.4756v-9.1328h.8525v3.4218c.5235-.3408 1.1446-.499 1.7051-.499 1.9599 0 2.4961 1.4121 2.4961 3.166zm-4.2013-2.0214v4.0429c.4756.2549.9131.3897 1.7051.3897 1.4609 0 1.6436-1.2061 1.6436-2.4112 0-1.206-.1827-2.4111-1.6436-2.4111-.7919 0-1.2294.1338-1.7051.3897zm7.9034-.3897c-.8409 0-1.4493.1465-1.9239.3047v-.7305c.5352-.2314 1.3272-.3291 1.9239-.3291 1.1562 0 1.8261.3164 2.1552.8399.3897-.5235 1.0108-.8399 1.9971-.8399 2.0693 0 2.3135 1.4121 2.3135 3.166v.3164h-4.0185v.0733c.0488 1.0596.3291 2.0215 1.7051 2.0215.876 0 1.4121-.086 2.0088-.3418v.7314c-.6817.3037-1.4121.3653-2.0088.3653-.9746 0-1.5957-.3174-1.9854-.8282l-.3769.292c-.5479.4024-1.291.5362-1.9121.5362-1.6436 0-2.3018-.8038-2.3018-1.8389 0-.9375.4385-1.7051 2.2412-1.7051h1.7774v-.7549c-.0001-.8886-.4259-1.2783-1.5948-1.2783zm-.2441 2.7275c-1.0342 0-1.3144.4141-1.3144 1.0108 0 .5596.2675 1.084 1.4609 1.084.6816 0 1.3398-.2315 1.7168-.5479l.207-.1826c-.1338-.4023-.207-.8525-.2314-1.3525v-.0118zm2.6914-.6943h3.166c-.0127-1.0469-.0976-2.0332-1.4609-2.0332-1.3888 0-1.6563.9746-1.7051 2.0332zm8.8349-1.9355c-.1826-.0616-.4258-.0977-.7305-.0977-.8281 0-1.3144.1338-1.7656.3897v5.0654h-.8526v-6.0879h.4756l.1826.5107c.5723-.4257 1.2784-.6328 1.96-.6328.2803 0 .499.0244.7305.0606zm3.4697-.8526c2.0703 0 2.3135 1.4121 2.3135 3.166v.3897h-4.0176c.0479 1.0596.3281 2.0215 1.7041 2.0215.877 0 1.4131-.086 2.0098-.3418v.7314c-.6826.3037-1.4131.3653-2.0098.3653-2.0576 0-2.5566-1.4131-2.5566-3.1661.0001-1.7539.4991-3.166 2.5566-3.166zm-1.704 2.8613h3.165c0-1.0839-.0605-2.1064-1.4609-2.1064-1.4121 0-1.6681 1.0107-1.7041 2.1064zm9.5585-2.3623v-3.4218h.8525v9.1328h-.4746l-.1826-.499c-.6328.4013-1.2422.6211-1.8994.6211-1.9609 0-2.4961-1.4131-2.4961-3.1661 0-1.7539.5352-3.166 2.4961-3.166.5596 0 1.1807.1582 1.7041.499zm-3.3476 2.667c0 1.2051.1827 2.4112 1.6436 2.4112.791 0 1.2295-.1348 1.7041-.3897v-4.0429c-.4746-.2559-.9131-.3897-1.7041-.3897-1.4609 0-1.6436 1.2051-1.6436 2.4111z"/><path d="m54.881 123.864 1.704 4.992 1.705-4.992h.975l-3.507 9.131h-.914l1.376-3.202-2.314-5.929z"/><path d="m61.663 128.2463c-.1347.1348-.2314.3047-.2314.4512 0 .3037.1455.4385.4619.4746l2.0703.2431c1.1445.1221 1.668.5723 1.668 1.6319 0 1.4853-1.4854 2.0703-3.166 2.0703-1.7041 0-2.7276-.499-2.7276-1.8389 0-.8281.5723-1.3759 1.2549-1.6074v-.0117c-.2314-.1582-.3897-.4024-.3897-.8037 0-.3408.2071-.6211.4629-.8281-.7314-.4024-.9746-1.1446-.9746-1.9971 0-1.2539.5362-2.2891 2.3741-2.2891.3779 0 .6943.0488.9746.1221h2.0703v.4619l-1.0235.293c.2559.3896.3536.8759.3536 1.4121 0 1.2539-.5362 2.289-2.375 2.289-.3038 0-.5723-.0244-.8028-.0732zm.3526 1.6445c-.8038.1827-1.4854.5596-1.4854 1.3389 0 .9014.6816 1.1572 1.9356 1.1572 1.2177 0 2.3623-.3047 2.3623-1.3398 0-.6211-.292-.8643-1.0342-.9492zm2.0333-3.8603c0-.8037-.1582-1.5459-1.583-1.5459-1.4239 0-1.5821.7422-1.5821 1.5459s.1582 1.5469 1.5821 1.5469c1.4247 0 1.583-.7432 1.583-1.5469zm6.0751 3.9941c-.1456.0362-.3897.0489-.5479.0489-1.0107 0-1.9482-.4629-1.9482-1.6563v-3.8848h-1.2178v-.3769l1.2178-.3535v-1.6436l.8525-.2432v1.9483h1.8877v.6689h-1.8877v3.7871c0 .7432.4023 1.0479 1.1689 1.0479.1583 0 .3165-.0127.4747-.0244zm1.9961-8.5967c.3408 0 .6083.2676.6083.6084 0 .3409-.2675.6094-.6083.6094-.3409 0-.6094-.2685-.6094-.6094 0-.3408.2686-.6084.6094-.6084zm-.4141 7.3057v-4.8701h.8281v4.9678c0 .4257.1338.5478.5117.5478v.6944c-.8768 0-1.3398-.3653-1.3398-1.3399zm4.1153-.4873c-.1347.1348-.2314.3047-.2314.4512 0 .3037.1455.4385.4619.4746l2.0703.2431c1.1445.1221 1.668.5723 1.668 1.6319 0 1.4853-1.4854 2.0703-3.166 2.0703-1.7041 0-2.7276-.499-2.7276-1.8389 0-.8281.5723-1.3759 1.2549-1.6074v-.0117c-.2314-.1582-.3896-.4024-.3896-.8037 0-.3408.207-.6211.4628-.8281-.7314-.4024-.9746-1.1446-.9746-1.9971 0-1.2539.5362-2.2891 2.3741-2.2891.3779 0 .6943.0488.9746.1221h2.0703v.4619l-1.0235.293c.2559.3896.3536.8759.3536 1.4121 0 1.2539-.5362 2.289-2.375 2.289-.3038 0-.5723-.0244-.8028-.0732zm.3526 1.6445c-.8037.1827-1.4854.5596-1.4854 1.3389 0 .9014.6817 1.1572 1.9356 1.1572 1.2177 0 2.3623-.3047 2.3623-1.3398 0-.6211-.292-.8643-1.0342-.9492zm2.0331-3.8603c0-.8037-.1582-1.5459-1.583-1.5459-1.4239 0-1.5821.7422-1.5821 1.5459s.1582 1.5469 1.5821 1.5469c1.4249 0 1.583-.7432 1.583-1.5469zm6.5518 2.2529c0 .791.4629 1.0352 1.2178 1.0352.791 0 1.1934-.1348 1.6436-.3897v-5.0654h.8525v6.0879h-.4746l-.1826-.5117c-.5723.4267-1.1934.6338-1.8389.6338-1.4492 0-2.0703-.6583-2.0703-1.8272v-4.3828h.8525zm9.3866-4.043v-3.4218h.8526v9.1328h-.4746l-.1826-.499c-.6329.4013-1.2422.6211-1.8995.6211-1.9609 0-2.4961-1.4131-2.4961-3.1661 0-1.7539.5352-3.166 2.4961-3.166.5597 0 1.1807.1582 1.7041.499zm-3.3475 2.667c0 1.2051.1826 2.4112 1.6435 2.4112.7911 0 1.2295-.1348 1.7041-.3897v-4.0429c-.4746-.2559-.913-.3897-1.7041-.3897-1.4609 0-1.6435 1.2051-1.6435 2.4111z"/><path d="m97.122 123.864 1.742 4.992 1.741-4.992h.938l-2.375 6.209h-.609l-2.375-6.209z"/><path d="m103.2402 121.4279c.3408 0 .6084.2676.6084.6084 0 .3409-.2676.6094-.6084.6094-.3409 0-.6094-.2685-.6094-.6094.0001-.3408.2686-.6084.6094-.6084zm-.4141 7.3057v-4.8701h.8281v4.9678c0 .4257.1338.5478.5117.5478v.6944c-.8769 0-1.3398-.3653-1.3398-1.3399z"/><path d="m107.623 126.371 2.946 3.58h-1.059l-2.399-3.092-.767.73v2.362h-.828v-9.132h.828v5.772l2.752-2.727h1.144z"/><path d="m111.707 128.7336v-7.915h.8281v8.0127c0 .4257.1338.5478.5117.5478v.6944c-.8768 0-1.3398-.3653-1.3398-1.3399zm3.1767-7.3057c.3408 0 .6084.2676.6084.6084 0 .3409-.2676.6094-.6084.6094s-.6094-.2685-.6094-.6094c.0001-.3408.2687-.6084.6094-.6084zm-.4139 7.3057v-4.8701h.8281v4.9678c0 .4257.1338.5478.5117.5478v.6944c-.877 0-1.3398-.3653-1.3398-1.3399zm6.4032-3.2021c0-.792-.4619-1.0352-1.2168-1.0352-.792 0-1.1934.1338-1.6445.3897v5.0654h-.8526v-6.0879h.4756l.1826.5107c.5723-.4257 1.1934-.6328 1.8389-.6328 1.4482 0 2.0693.6572 2.0693 1.8262v4.3838h-.8525zm3.7451 2.7148c-.1348.1348-.2314.3047-.2314.4512 0 .3037.1455.4385.4619.4746l2.0703.2431c1.1445.1221 1.6679.5723 1.6679 1.6319 0 1.4853-1.4853 2.0703-3.166 2.0703-1.7041 0-2.7275-.499-2.7275-1.8389 0-.8281.5723-1.3759 1.2549-1.6074v-.0117c-.2315-.1582-.3897-.4024-.3897-.8037 0-.3408.2071-.6211.4629-.8281-.7314-.4024-.9746-1.1446-.9746-1.9971 0-1.2539.5361-2.2891 2.374-2.2891.378 0 .6944.0488.9746.1221h2.0704v.4619l-1.0235.293c.2559.3896.3535.8759.3535 1.4121 0 1.2539-.5361 2.289-2.375 2.289-.3036 0-.5722-.0244-.8027-.0732zm.3526 1.6445c-.8037.1827-1.4853.5596-1.4853 1.3389 0 .9014.6816 1.1572 1.9355 1.1572 1.2178 0 2.3623-.3047 2.3623-1.3398 0-.6211-.292-.8643-1.0341-.9492zm2.0331-3.8603c0-.8037-.1582-1.5459-1.583-1.5459-1.4238 0-1.582.7422-1.582 1.5459s.1582 1.5469 1.582 1.5469c1.4249 0 1.583-.7432 1.583-1.5469z"/></g></g></svg>