<svg xmlns="http://www.w3.org/2000/svg" viewBox="0 0 160.92 160.93">
  <defs>
    <style>
      .cls-1 {
        fill: #56c02b;
      }

      .cls-2 {
        fill: #fff;
      }
    </style>
  </defs>
  <title>Artboard 70</title>
  <g id="Layer_1" data-name="Layer 1">
    <g>
      <rect class="cls-1" width="160.92" height="160.93"/>
      <polygon class="cls-2" points="11.78 19.36 11.78 25.05 11.83 25.05 15.66 21.08 15.71 21.08 15.71 45.92 21.16 45.92 21.16 13.47 16.81 13.47 11.78 19.36"/>
      <path class="cls-2" d="M34.13,23.76c-2.15,0-3.73.76-4.59,2.25h-.05V17.92h9.38V13.47H24.51V31.75h5V31c0-1.91.86-3,2.39-3,1.68,0,2.35,1.15,2.35,2.92v7.85c0,1.72-.62,2.91-2.3,2.91-1.87,0-2.53-1.24-2.53-3.15V34.53h-5v3.69c0,4.92,2,8.08,7.51,8.08s7.75-2.92,7.75-7.42V30.94c0-5.12-2.63-7.18-5.55-7.18"/>
      <g>
        <path class="cls-2" d="M61.89,108.81h4.74a.36.36,0,0,1,.36.36v11.72a.36.36,0,0,1-.36.36H61.9a.36.36,0,0,1-.36-.36V109.16A.35.35,0,0,1,61.89,108.81Z"/>
        <path class="cls-2" d="M118.71,126.27H40.57a.37.37,0,0,0-.36.37v4.77a.35.35,0,0,0,.36.35h78.14a.35.35,0,0,0,.36-.35v-4.77a.37.37,0,0,0-.36-.37"/>
        <path class="cls-2" d="M118.71,135.76H40.57a.36.36,0,0,0-.36.35v4.79a.36.36,0,0,0,.36.36h78.14a.36.36,0,0,0,.36-.36v-4.79a.36.36,0,0,0-.36-.35"/>
        <path class="cls-2" d="M103.84,95.84a11.49,11.49,0,0,0-6.76-2.55A9,9,0,0,0,90.81,96a.64.64,0,0,0-.21.49v.42a.7.7,0,0,0,.22.54.64.64,0,0,0,.55.12.8.8,0,0,0,.15,0,1.08,1.08,0,0,0,.39-.25A6.26,6.26,0,0,1,95,96.6a11.8,11.8,0,0,1,8,3.37l.07.07a1,1,0,0,0,.68.28.89.89,0,0,0,.66-.28l.07-.06a11.84,11.84,0,0,1,8.06-3.38,6.28,6.28,0,0,1,3.14.65,1.08,1.08,0,0,0,.43.26,1.06,1.06,0,0,0,.46,0,.67.67,0,0,0,.49-.65v-.37a.71.71,0,0,0-.21-.49,9,9,0,0,0-6.35-2.73,11.47,11.47,0,0,0-6.75,2.55"/>
        <path class="cls-2" d="M99,64.69a.7.7,0,0,0-.34.41l-.08.26a.69.69,0,0,0,.11.59.63.63,0,0,0,.48.26.18.18,0,0,0,.1,0,1,1,0,0,0,.38-.1,2.27,2.27,0,0,1,.47-.05,6.76,6.76,0,0,1,5.58,3.64l0,.06a.83.83,0,0,0,.5.4,1,1,0,0,0,.25,0,.8.8,0,0,0,.39-.09l0,0a7.78,7.78,0,0,1,3.49-.86A5.28,5.28,0,0,1,114,70.36a1,1,0,0,0,.26.29,1.51,1.51,0,0,0,.26.12l.11,0h.07a.67.67,0,0,0,.31-.07.71.71,0,0,0,.34-.4l.06-.23a.63.63,0,0,0,0-.19.64.64,0,0,0-.09-.34,5.89,5.89,0,0,0-5.3-3.19,8.44,8.44,0,0,0-2.82.53,6.81,6.81,0,0,0-5.27-3,6.59,6.59,0,0,0-2.93.74"/>
        <path class="cls-2" d="M82.48,76.71l0,.36a.68.68,0,0,0,.32.52.64.64,0,0,0,.52.08l.12,0a.93.93,0,0,0,.33-.25,5.78,5.78,0,0,1,3-.68A9.61,9.61,0,0,1,93,79.05l.06,0a.9.9,0,0,0,.6.23h.06a.87.87,0,0,0,.61-.3l0,0a9.4,9.4,0,0,1,6.86-3.17,4.64,4.64,0,0,1,2,.37,1,1,0,0,0,.41.21,1.07,1.07,0,0,0,.29,0,.47.47,0,0,0,.16,0,.66.66,0,0,0,.44-.67l0-.31a.64.64,0,0,0-.23-.46,7.66,7.66,0,0,0-5-2,9.35,9.35,0,0,0-5.85,2.42,9.81,9.81,0,0,0-5.21-1.73,7.49,7.49,0,0,0-5.55,2.56.72.72,0,0,0-.18.5"/>
        <path class="cls-2" d="M42.94,83a8.47,8.47,0,0,1,8.47-8.47l.54,0a11.46,11.46,0,0,1,22.88.87,11.31,11.31,0,0,1-1.16,5,12.8,12.8,0,0,1-2.77,25.3l-17.1-.1h0a9.06,9.06,0,0,1-6.6-15.28A8.47,8.47,0,0,1,42.94,83Z"/>
      </g>
      <g>
        <path class="cls-2" d="M54.55,13.47h2.21V24.81H59.4v1.81H54.55Z"/>
        <path class="cls-2" d="M60.2,13.47h2.21V26.62H60.2Z"/>
        <path class="cls-2" d="M70.58,13.47l-2.5,13.15H65.67l-2.5-13.15h2.25l1.51,9.17h0l1.55-9.17Z"/>
        <path class="cls-2" d="M71.34,13.47h5.28v1.8H73.55V19h2.2v1.79h-2.2v4h3.07v1.81H71.34Z"/>
        <path class="cls-2" d="M77.39,13.47h5.88v1.8H81.45V26.62H79.21V15.27H77.39Z"/>
        <path class="cls-2" d="M54.55,33h3.28c2.23,0,3,1.1,3,2.94v2.78c0,1.84-.81,3-3,3H56.76v4.47H54.55Zm2.21,1.8V40h.82a1,1,0,0,0,1.08-1.09v-3c0-.72-.33-1.07-1.08-1.07Z"/>
        <path class="cls-2" d="M61,46.12,63.43,33H66l2.51,13.15H66.19l-.41-2.41H63.43L63,46.12Zm3.72-16.31a1.45,1.45,0,1,1,0,2.9,1.45,1.45,0,1,1,0-2.9ZM63.72,42h1.77l-.88-5.28h0Zm1-10.05a.64.64,0,1,0-.6-.64A.59.59,0,0,0,64.67,31.9Z"/>
        <path class="cls-2" d="M72.57,33h2.21V44.31h2.64v1.81H72.57Z"/>
        <path class="cls-2" d="M78.05,46.12,80.53,33h2.52l2.5,13.15H83.28l-.4-2.41H80.53l-.39,2.41ZM80.82,42h1.77l-.88-5.28h0Z"/>
        <path class="cls-2" d="M88.18,37.85v8.27H86.32V33h2.17l2.38,7.54V33h1.85V46.12H90.78Z"/>
        <path class="cls-2" d="M100.35,36.5v6.09c0,2-.84,3.53-3.2,3.53H93.73V33h3.42C99.51,33,100.35,34.46,100.35,36.5Zm-3.47,7.81c.91,0,1.26-.54,1.26-1.34V36.09a1.15,1.15,0,0,0-1.26-1.32h-.94v9.54Z"/>
      </g>
    </g>
  </g>
</svg>
