<svg xmlns="http://www.w3.org/2000/svg" viewBox="0 0 160.92 160.93">
  <defs>
    <style>
      .cls-1 {
        fill: #26bde2;
      }

      .cls-2 {
        fill: #fff;
      }
    </style>
  </defs>
  <title>Artboard 61</title>
  <g id="Layer_1" data-name="Layer 1">
    <g>
      <rect class="cls-1" width="160.92" height="160.93"/>
      <path class="cls-2" d="M24.35,46.36c5.79,0,8-3.16,8-8.18V33.39c0-5.31-2.11-8-6-8A4.66,4.66,0,0,0,21.86,28h-.05V21c0-2,.62-3.35,2.58-3.35s2.54,1.15,2.54,3.16V23h5V21.28c0-4.78-1.58-8.13-7.61-8.13-5.74,0-7.9,3.68-7.9,8.75V37.7c0,5,2.2,8.66,8,8.66M21.81,32.72c.1-1.82.86-3,2.58-3C26.26,29.75,27,30.9,27,33v5.65c0,2.05-.77,3.25-2.63,3.25s-2.54-1.24-2.54-3.25Z"/>
      <path class="cls-2" d="M110.1,65.07a.7.7,0,0,0-.53-.23H51.19a.65.65,0,0,0-.67.79L60.33,125a.68.68,0,0,0,.67.57H73l.82,9.66H68.79L80.58,147,92.4,135.16H87.33l.82-9.65H100.4a.67.67,0,0,0,.67-.58l9.18-59.31A.74.74,0,0,0,110.1,65.07ZM87.53,112.56a9.34,9.34,0,0,1-7,2.43,9.36,9.36,0,0,1-7-2.43c-4.37-4.37-2.81-9.8-1.29-12.61.94-1.76,7.66-11.85,8.24-12.71v-.07l0,0,0,0v.07c.56.86,7.29,11,8.23,12.71C90.35,102.76,91.9,108.19,87.53,112.56Zm18.52-35a7.27,7.27,0,0,0-5.51.34c-7.25,2.93-12.17,4-19.79,1.6-4.8-1.5-9.29-4.64-14.6-2.73-3.52,1.27-6.8,2.48-10.78,2.45l-2.3-11.79h54.64Z"/>
      <g>
        <path class="cls-2" d="M51.11,20.45v6H48.9V13.33h3.22c2.23,0,3.05,1.11,3.05,3V18c0,1.41-.51,2.25-1.77,2.54l2.12,6H53.19Zm0-5.31v4.09h.74a1,1,0,0,0,1.09-1.09V16.2c0-.72-.33-1.06-1.09-1.06Z"/>
        <path class="cls-2" d="M56.25,13.33h5.28v1.81H58.46V18.9h2.19v1.78H58.46v4h3.07v1.8H56.25Z"/>
        <path class="cls-2" d="M64.28,18.22v8.26H62.42V13.33h2.17L67,20.88V13.33h1.84V26.48H66.88Z"/>
        <path class="cls-2" d="M69.63,13.33h5.88v1.81H73.68V26.48H71.45V15.14H69.63Z"/>
        <path class="cls-2" d="M85.07,13.33l-2.5,13.15H80.16l-2.5-13.15h2.25l1.51,9.18h0L83,13.33Z"/>
        <path class="cls-2" d="M84.54,26.48,87,13.33h2.52L92,26.48H89.77l-.4-2.4H87l-.39,2.4Zm2.77-4.17h1.77L88.2,17h0Z"/>
        <path class="cls-2" d="M94.67,18.22v8.26H92.81V13.33H95l2.38,7.55V13.33h1.85V26.48H97.27Z"/>
        <path class="cls-2" d="M106.84,16.86V23c0,2-.84,3.53-3.2,3.53h-3.42V13.33h3.42C106,13.33,106.84,14.83,106.84,16.86Zm-3.47,7.82c.91,0,1.26-.55,1.26-1.34V16.45a1.15,1.15,0,0,0-1.26-1.31h-.94v9.54Z"/>
        <path class="cls-2" d="M48.9,42.59V36.23c0-2.06,1-3.55,3.34-3.55s3.35,1.49,3.35,3.55v6.36c0,2-1,3.55-3.35,3.55S48.9,44.62,48.9,42.59Zm4.48.35V35.88c0-.8-.35-1.36-1.14-1.36s-1.13.56-1.13,1.36v7.06c0,.79.35,1.35,1.13,1.35S53.38,43.73,53.38,42.94Z"/>
        <path class="cls-2" d="M59.87,39H63v7H61.42V44.55a2,2,0,0,1-2.12,1.59c-1.9,0-2.77-1.52-2.77-3.55V36.23c0-2.06,1-3.55,3.32-3.55S63,34,63,36v1.17H61V35.8c0-.82-.31-1.28-1.11-1.28s-1.14.56-1.14,1.36v7.06c0,.79.33,1.35,1.09,1.35s1.08-.4,1.08-1.26V40.71h-1Z"/>
        <path class="cls-2" d="M67.35,43.15V41.38h2.06v1.81c0,.74.33,1.16,1.09,1.16s1-.46,1-1.16v-.51a2.4,2.4,0,0,0-1-1.86l-1.3-1.3c-1.26-1.24-1.85-2-1.85-3.51v-.44c0-1.63.95-2.89,3.11-2.89s3.08,1.08,3.08,3v1.07h-2V35.59c0-.76-.35-1.13-1-1.13a1,1,0,0,0-1,1.09v.27c0,.74.41,1.16,1,1.78L71.91,39c1.21,1.22,1.79,2,1.79,3.41v.64c0,1.81-1,3.09-3.22,3.09S67.35,44.88,67.35,43.15Z"/>
        <path class="cls-2" d="M74.22,46,76.7,32.83h2.52L81.72,46H79.45l-.4-2.4H76.7L76.31,46ZM77,41.81h1.76l-.87-5.27h0Z"/>
        <path class="cls-2" d="M84.35,37.72V46H82.49V32.83h2.17L87,40.38V32.83h1.85V46H87Z"/>
        <path class="cls-2" d="M89.9,32.83h2.21V46H89.9Z"/>
        <path class="cls-2" d="M92.91,32.83h5.88v1.81H97V46H94.74V34.64H92.91Z"/>
        <path class="cls-2" d="M99.61,32.83h5.27v1.81h-3.06V38.4H104v1.78h-2.19v4h3.06V46H99.61Z"/>
        <path class="cls-2" d="M105.66,32.83h5.88v1.81h-1.83V46h-2.23V34.64h-1.82Z"/>
      </g>
    </g>
  </g>
</svg>
