<svg xmlns="http://www.w3.org/2000/svg" viewBox="0 0 160.92 160.93">
  <defs>
    <style>
      .cls-1 {
        fill: #dda63a;
      }

      .cls-2 {
        fill: #fff;
      }
    </style>
  </defs>
  <title>Artboard 57</title>
  <g id="Layer_1" data-name="Layer 1">
    <g>
      <rect class="cls-1" width="160.92" height="160.93"/>
      <path class="cls-2" d="M30.1,41.48h-9V40c0-2.53.91-3.49,2.29-5l3.5-3.68c2.82-3,3.44-4.93,3.44-8.18V20c0-4.64-2.25-6.85-7.13-6.85S16,15.64,16,20.19v3.92h5V20c0-2,1-2.53,2.11-2.53s2,.43,2,2.44v2.68c0,2.68-.24,3.73-2,5.6L20,31.48c-3,3.16-4.07,5.27-4.07,8.47v6H30.1Z"/>
      <path class="cls-2" d="M64.19,136.74V139s0,0,0,.06,0,0,0,.05a1.06,1.06,0,0,0,1,1H91.87a1.08,1.08,0,0,0,1-1.07h0v-2.56c14.94-4.9,26.13-17,28.6-31.77,0,0,0-.06,0-.09a.76.76,0,0,0,0-.15,1.06,1.06,0,0,0-1.07-1.07H35.87a1.07,1.07,0,0,0-1.08,1.07l.06.48c2.58,14.9,14.09,27.08,29.34,31.78"/>
      <path class="cls-2" d="M92.89,67.3c-.35.5-8.52,12.26.18,21.78,4,4.37,3.65,8.22,2.51,10.82h5.58c1.13-3.84.67-8.66-3.87-13.61-6.41-7,.09-16.49.18-16.64a2.09,2.09,0,0,0-.9-3.12,3,3,0,0,0-3.68.77"/>
      <path class="cls-2" d="M78.75,99.9h5.59c1.12-3.84.66-8.66-3.88-13.61-6.41-7,.08-16.49.18-16.64a2.09,2.09,0,0,0-.91-3.12,3,3,0,0,0-3.67.77c-.35.49-8.53,12.26.18,21.78,4,4.37,3.65,8.22,2.51,10.82"/>
      <path class="cls-2" d="M59.23,67.3c-.36.5-8.53,12.26.18,21.78,4,4.37,3.64,8.22,2.51,10.82H67.5c1.13-3.84.66-8.66-3.87-13.61-6.42-7,.08-16.49.18-16.64a2.09,2.09,0,0,0-.91-3.12,3,3,0,0,0-3.67.77"/>
      <g>
        <path class="cls-2" d="M47.82,23.65V21.88h2v1.81c0,.74.33,1.16,1.09,1.16s1-.46,1-1.16v-.51a2.38,2.38,0,0,0-1-1.86L49.68,20c-1.26-1.24-1.84-2-1.84-3.51v-.44c0-1.63.95-2.89,3.1-2.89s3.08,1.08,3.08,3v1.07H52V16.09c0-.76-.35-1.13-1-1.13a1,1,0,0,0-1.05,1.09v.27c0,.74.41,1.16,1.05,1.78l1.41,1.4c1.21,1.22,1.79,2,1.79,3.41v.64c0,1.81-1,3.09-3.22,3.09S47.82,25.38,47.82,23.65Z"/>
        <path class="cls-2" d="M54.83,13.33h5.88v1.81H58.89V26.48H56.66V15.14H54.83Z"/>
        <path class="cls-2" d="M61.46,23.09V16.73c0-2.06,1-3.55,3.34-3.55s3.35,1.49,3.35,3.55v6.36c0,2-1,3.55-3.35,3.55S61.46,25.12,61.46,23.09Zm4.48.35V16.38c0-.8-.35-1.36-1.14-1.36s-1.13.56-1.13,1.36v7.06c0,.79.35,1.35,1.13,1.35S65.94,24.23,65.94,23.44Z"/>
        <path class="cls-2" d="M69.14,13.33h3.28c2.23,0,3,1.11,3,3v2.77c0,1.85-.81,3-3,3H71.35v4.46H69.14Zm2.21,1.81v5.17h.82a.94.94,0,0,0,1.08-1.08v-3c0-.72-.33-1.06-1.08-1.06Z"/>
        <path class="cls-2" d="M47.82,43.15V41.38h2v1.81c0,.74.33,1.16,1.09,1.16s1-.46,1-1.16v-.51a2.38,2.38,0,0,0-1-1.86l-1.3-1.3c-1.26-1.24-1.84-2-1.84-3.51v-.44c0-1.63.95-2.89,3.1-2.89s3.08,1.08,3.08,3v1.07H52V35.59c0-.76-.35-1.13-1-1.13a1,1,0,0,0-1.05,1.09v.27c0,.74.41,1.16,1.05,1.78L52.37,39c1.21,1.22,1.79,2,1.79,3.41v.64c0,1.81-1,3.09-3.22,3.09S47.82,44.88,47.82,43.15Z"/>
        <path class="cls-2" d="M61.47,32.83v10c0,2-.88,3.36-3.12,3.36s-3.3-1.32-3.3-3.36v-10h2.21V43c0,.78.31,1.3,1.09,1.3s1.08-.52,1.08-1.3V32.83Z"/>
        <path class="cls-2" d="M62.47,32.83h2.21V44.18h2.64V46H62.47Z"/>
        <path class="cls-2" d="M67.08,32.83H73v1.81H71.13V46H68.9V34.64H67.08Z"/>
      </g>
    </g>
  </g>
</svg>
