<svg xmlns="http://www.w3.org/2000/svg" viewBox="0 0 160.92 160.93">
  <defs>
    <style>
      .cls-1 {
        fill: #fcc30b;
      }

      .cls-2 {
        fill: #fff;
      }
    </style>
  </defs>
  <title>Artboard 62</title>
  <g id="Layer_1" data-name="Layer 1">
    <g>
      <rect class="cls-1" width="160.92" height="160.93"/>
      <polygon class="cls-2" points="16.51 17.94 24.93 17.94 17.65 45.93 23.06 45.93 30.19 18.51 30.19 13.49 16.51 13.49 16.51 17.94"/>
      <path class="cls-2" d="M80.52,78a23.59,23.59,0,1,0,23.58,23.58A23.58,23.58,0,0,0,80.52,78m-1.75,9.32a1.76,1.76,0,0,1,3.51,0v8.09a1.76,1.76,0,0,1-3.51,0Zm1.75,26.35a12.27,12.27,0,0,1-3.64-24v4.56a8,8,0,1,0,7.27,0V89.65a12.27,12.27,0,0,1-3.63,24"/>
      <path class="cls-2" d="M53.45,101.35a2,2,0,0,0-1.82-1.94H41.31a1.94,1.94,0,0,0,0,3.88H51.63a2,2,0,0,0,1.82-1.94"/>
      <path class="cls-2" d="M121.57,101.35a2,2,0,0,0-1.81-1.94H109.43a1.94,1.94,0,0,0,0,3.88h10.33a2,2,0,0,0,1.81-1.94"/>
      <path class="cls-2" d="M80.53,74.27a2,2,0,0,0,1.93-1.81V62.13a1.94,1.94,0,0,0-3.88,0V72.46a2,2,0,0,0,2,1.81"/>
      <path class="cls-2" d="M80.53,142.4a2,2,0,0,0,1.93-1.82V130.26a1.94,1.94,0,0,0-3.88,0v10.32a2,2,0,0,0,2,1.82"/>
      <path class="cls-2" d="M57,87.9a2,2,0,0,0-.61-2.58l-9-5.13a1.94,1.94,0,0,0-1.93,3.36l9,5.13A2,2,0,0,0,57,87.9"/>
      <path class="cls-2" d="M116.15,121.74a2,2,0,0,0-.61-2.58l-9-5.13a1.94,1.94,0,0,0-1.93,3.36l9,5.13a2,2,0,0,0,2.54-.78"/>
      <path class="cls-2" d="M94,77.85a2,2,0,0,0,2.58-.61l5.13-9a1.95,1.95,0,0,0-3.37-1.93l-5.13,9A2,2,0,0,0,94,77.85"/>
      <path class="cls-2" d="M60.14,137a2,2,0,0,0,2.58-.62l5.13-9a1.95,1.95,0,0,0-3.37-1.93l-5.13,9a2,2,0,0,0,.79,2.54"/>
      <path class="cls-2" d="M67,77.87a2,2,0,0,0,.77-2.53l-5.14-9a1.95,1.95,0,0,0-3.37,1.94l5.15,9a2,2,0,0,0,2.59.6"/>
      <path class="cls-2" d="M101,136.93a2,2,0,0,0,.77-2.53l-5.14-9a1.95,1.95,0,0,0-3.37,1.94l5.15,9a2,2,0,0,0,2.59.6"/>
      <path class="cls-2" d="M104,87.86a2,2,0,0,0,2.54.77l8.95-5.15a1.94,1.94,0,0,0-1.93-3.36l-9,5.15a2,2,0,0,0-.6,2.59"/>
      <path class="cls-2" d="M45,121.82a2,2,0,0,0,2.53.77l9-5.15a1.94,1.94,0,0,0-1.93-3.36l-9,5.15a2,2,0,0,0-.6,2.59"/>
      <g>
        <path class="cls-2" d="M46.72,13.47h3.2c2.21,0,2.95,1,2.95,2.89V17.7a1.92,1.92,0,0,1-1.32,2.09A2,2,0,0,1,53.2,22v1.75c0,1.86-.84,2.89-3.05,2.89H46.72ZM48.93,19h.78a.93.93,0,0,0,1-1.07V16.34a.93.93,0,0,0-1.06-1.07h-.76Zm0,1.68v4.12h1A1,1,0,0,0,51,23.75v-2c0-.7-.33-1.07-1.11-1.07Z"/>
        <path class="cls-2" d="M53.62,26.62,57,13.47h6.63v1.8H60.55V19h2.19v1.78H60.55v4h3.06v1.8H58.34V24.21H56.28l-.56,2.41Zm3.07-4.17h1.65V15.51h0Z"/>
        <path class="cls-2" d="M66.73,20.59v6H64.52V13.47h3.22c2.23,0,3.05,1.11,3.05,3V18.1c0,1.42-.51,2.25-1.77,2.55l2.11,6H68.81Zm0-5.32v4.1h.74a1,1,0,0,0,1.08-1.09V16.34c0-.72-.32-1.07-1.08-1.07Z"/>
        <path class="cls-2" d="M71.87,13.47h5.27v1.8H74.08V19h2.19v1.78H74.08v4h3.06v1.8H71.87Z"/>
        <path class="cls-2" d="M84.65,17v6.09c0,2-.83,3.53-3.2,3.53H78V13.47h3.41C83.82,13.47,84.65,15,84.65,17Zm-3.47,7.82c.91,0,1.26-.55,1.26-1.34V16.59a1.16,1.16,0,0,0-1.26-1.32h-.93v9.55Z"/>
        <path class="cls-2" d="M89.73,21.62v5H87.52v-5l-2.47-8.15h2.31l1.34,5h0l1.34-5h2.11Z"/>
        <path class="cls-2" d="M95.93,19.6h3.14v7H97.48V25.18a2,2,0,0,1-2.11,1.59c-1.91,0-2.78-1.51-2.78-3.54V16.86c0-2,1-3.55,3.32-3.55s3.16,1.36,3.16,3.3v1.17h-2V16.44c0-.82-.31-1.28-1.1-1.28s-1.15.56-1.15,1.35v7.06c0,.8.33,1.36,1.09,1.36S97,24.52,97,23.67V21.34h-1Z"/>
        <path class="cls-2" d="M99.84,13.47h5.88v1.8H103.9V26.62h-2.24V15.27H99.84Z"/>
        <path class="cls-2" d="M106.54,13.47h2.21V26.62h-2.21Z"/>
        <path class="cls-2" d="M113.06,19.6h3.15v7h-1.59V25.18a2,2,0,0,1-2.12,1.59c-1.9,0-2.77-1.51-2.77-3.54V16.86c0-2,1-3.55,3.31-3.55s3.17,1.36,3.17,3.3v1.17h-2V16.44c0-.82-.31-1.28-1.11-1.28s-1.14.56-1.14,1.35v7.06c0,.8.33,1.36,1.09,1.36s1.08-.41,1.08-1.26V21.34h-1Z"/>
        <path class="cls-2" d="M46.72,33H52v1.8H48.93v3.77h2.19v1.78H48.93v4H52v1.8H46.72Z"/>
        <path class="cls-2" d="M54.75,37.86v8.26H52.89V33h2.17l2.38,7.54V33h1.85V46.12H57.35Z"/>
        <path class="cls-2" d="M60.3,33h5.28v1.8H62.51v3.77h2.2v1.78h-2.2v4h3.07v1.8H60.3Z"/>
        <path class="cls-2" d="M68.68,40.09v6H66.47V33h3.22c2.23,0,3,1.11,3,3V37.6c0,1.42-.51,2.25-1.77,2.55l2.12,6H70.76Zm0-5.32v4.1h.74a1,1,0,0,0,1.09-1.09V35.84c0-.72-.33-1.07-1.09-1.07Z"/>
        <path class="cls-2" d="M77,39.1h3.14v7H78.53V44.68a2,2,0,0,1-2.11,1.59c-1.9,0-2.78-1.51-2.78-3.54V36.36c0-2,1-3.55,3.32-3.55s3.16,1.36,3.16,3.3v1.17h-2V35.94c0-.82-.32-1.28-1.11-1.28s-1.14.56-1.14,1.35v7.06c0,.8.33,1.36,1.08,1.36S78,44,78,43.17V40.84H77Z"/>
        <path class="cls-2" d="M81.13,33h2.21V46.12H81.13Z"/>
      </g>
    </g>
  </g>
</svg>
