<svg xmlns="http://www.w3.org/2000/svg" viewBox="0 0 160.92 160.93">
  <defs>
    <style>
      .cls-1 {
        fill: #a21942;
      }

      .cls-2 {
        fill: #fff;
      }
    </style>
  </defs>
  <title>Artboard 63</title>
  <g id="Layer_1" data-name="Layer 1">
    <rect class="cls-1" width="160.92" height="160.93"/>
    <path class="cls-2" d="M31.26,38V34.45c0-3.11-1.1-5.36-3.63-6.51,2.15-1.05,3.16-3,3.16-5.64V21c0-5.08-2.64-7.8-7.66-7.8s-7.56,2.72-7.56,7.8V22.3c0,2.63,1,4.59,3.06,5.64C16.09,29.09,15,31.34,15,34.45V38c0,4.93,2.35,8.38,8.09,8.38s8.13-3.45,8.13-8.38M20.69,20.62c0-2,.67-3.11,2.44-3.11s2.49,1.15,2.49,3.11v2.2c0,2-.67,3.12-2.49,3.12s-2.44-1.15-2.44-3.12Zm5.12,18c0,2-.72,3.35-2.68,3.35s-2.63-1.39-2.63-3.35V33.3c0-2,.71-3.35,2.63-3.35s2.68,1.39,2.68,3.35Z"/>
    <path class="cls-2" d="M111,79.17,94.63,94.73a2.74,2.74,0,0,0-.93,2.34v43.61a.93.93,0,0,0,.93.93h16.9a.93.93,0,0,0,.93-.93V79.57c0-.52-.4-1.46-1.47-.4"/>
    <path class="cls-2" d="M63.87,99.44,47.51,115a2.74,2.74,0,0,0-.93,2.34v23.34a.93.93,0,0,0,.93.93h16.9a.93.93,0,0,0,.93-.93V99.83c0-.51-.41-1.45-1.47-.39"/>
    <path class="cls-2" d="M118.43,60.3a.49.49,0,0,0-.14-.35.53.53,0,0,0-.31-.13h-.22l-12.52,2.83-.23,0a.5.5,0,0,0-.25.13.48.48,0,0,0,0,.67l.15.14,2.86,2.86L79.39,94.86,66.28,81.75a.37.37,0,0,0-.53,0l-3.56,3.56h0l-21,21a.4.4,0,0,0,0,.54l3.57,3.56a.39.39,0,0,0,.53,0L66,89.67l9.51,9.51a.13.13,0,0,0,0,0l3.56,3.55a.37.37,0,0,0,.53,0l32.21-32.21,3,3a.48.48,0,0,0,.67,0,.49.49,0,0,0,.14-.31v0l2.75-12.79Z"/>
    <path class="cls-2" d="M87.52,102.17l-7.91,8a.37.37,0,0,1-.51,0l-7.17-7.3c-1.31-1.31-1.6-.25-1.6.26v37.59a.93.93,0,0,0,.93.93h16.9a.93.93,0,0,0,.93-.93V102.47c0-.51-.41-1.46-1.57-.3"/>
    <g>
      <path class="cls-2" d="M42.9,26.62l2.48-13.15H47.9l2.5,13.15H48.13l-.4-2.4H45.38L45,26.62Zm2.77-4.17h1.77l-.88-5.27h0Z"/>
      <path class="cls-2" d="M53.37,18.36v8.26H51.51V13.47h2.17L56.07,21V13.47h1.84V26.62H56Z"/>
      <path class="cls-2" d="M59.25,23.79V22h2.06v1.81c0,.73.33,1.16,1.08,1.16s1-.46,1-1.16v-.51a2.38,2.38,0,0,0-1-1.86l-1.3-1.3c-1.26-1.24-1.84-2-1.84-3.51v-.44c0-1.63.95-2.89,3.1-2.89s3.09,1.08,3.09,3v1.07h-2V16.23c0-.76-.35-1.13-1-1.13a1,1,0,0,0-1,1.09v.27c0,.73.4,1.16,1,1.78l1.42,1.4c1.2,1.22,1.78,2,1.78,3.41v.64c0,1.81-1,3.09-3.22,3.09S59.25,25.51,59.25,23.79Z"/>
      <path class="cls-2" d="M66.41,13.47h5.88v1.8H70.46V26.62H68.23V15.27H66.41Z"/>
      <path class="cls-2" d="M72,26.62l3.35-13.15H82v1.8H78.88V19h2.19v1.78H78.88v4H82v1.8H76.67v-2.4h-2l-.57,2.4ZM75,22.45h1.65V15.51h0Z"/>
      <path class="cls-2" d="M85.19,18.36v8.26H83.33V13.47H85.5L87.88,21V13.47h1.85V26.62H87.79Z"/>
      <path class="cls-2" d="M97.8,17v6.09c0,2-.84,3.53-3.2,3.53H91.18V13.47H94.6C97,13.47,97.8,15,97.8,17Zm-3.47,7.82c.91,0,1.26-.55,1.26-1.34V16.59a1.16,1.16,0,0,0-1.26-1.32h-.94v9.55Z"/>
      <path class="cls-2" d="M99.25,13.47h2.21V26.62H99.25Z"/>
      <path class="cls-2" d="M106.27,19.6h3.15v7h-1.59V25.19a2,2,0,0,1-2.12,1.59c-1.9,0-2.77-1.52-2.77-3.55V16.86c0-2,1-3.54,3.31-3.54s3.17,1.35,3.17,3.29v1.17h-2V16.44c0-.82-.31-1.28-1.11-1.28s-1.14.56-1.14,1.36v7.06c0,.79.33,1.35,1.09,1.35s1.08-.4,1.08-1.26V21.34h-1Z"/>
      <path class="cls-2" d="M110.87,13.47h5.28v1.8h-3.07V19h2.2v1.78h-2.2v4h3.07v1.8h-5.28Z"/>
      <path class="cls-2" d="M125.63,13.47V23.63c0,1.9-.83,3.15-3,3.15s-2.91-1.27-2.91-2.93V21.23h2.1v2.66c0,.65.23,1,.81,1s.83-.39.83-1.06V13.47Z"/>
      <path class="cls-2" d="M127.07,23.23V16.86c0-2,1-3.54,3.34-3.54s3.35,1.49,3.35,3.54v6.37c0,2-1,3.55-3.35,3.55S127.07,25.26,127.07,23.23Zm4.48.35V16.52c0-.8-.35-1.36-1.14-1.36s-1.13.56-1.13,1.36v7.06c0,.79.35,1.35,1.13,1.35S131.55,24.37,131.55,23.58Z"/>
      <path class="cls-2" d="M135.22,13.47h3.2c2.21,0,3,1,3,2.89V17.7a1.92,1.92,0,0,1-1.32,2.09A2,2,0,0,1,141.7,22v1.75c0,1.86-.84,2.89-3,2.89h-3.43ZM137.43,19h.78a.93.93,0,0,0,1-1.07V16.34a.93.93,0,0,0-1.06-1.07h-.76Zm0,1.69v4.11h1a1,1,0,0,0,1.09-1.07v-2c0-.7-.33-1.06-1.11-1.06Z"/>
      <path class="cls-2" d="M142.88,23.79V22h2.06v1.81c0,.73.33,1.16,1.08,1.16s1-.46,1-1.16v-.51a2.38,2.38,0,0,0-1-1.86l-1.3-1.3c-1.26-1.24-1.84-2-1.84-3.51v-.44c0-1.63.95-2.89,3.1-2.89s3.09,1.08,3.09,3v1.07h-2V16.23c0-.76-.35-1.13-1-1.13a1,1,0,0,0-1,1.09v.27c0,.73.4,1.16,1,1.78l1.42,1.4c1.2,1.22,1.78,2,1.78,3.41v.64c0,1.81-1,3.09-3.22,3.09S142.88,25.51,142.88,23.79Z"/>
    </g>
    <g>
      <path class="cls-2" d="M43.25,42.54V36.18c0-2,1-3.55,3.33-3.55s3.36,1.5,3.36,3.55v6.36c0,2-1,3.55-3.36,3.55S43.25,44.58,43.25,42.54Zm4.48.35V35.83c0-.79-.35-1.35-1.15-1.35s-1.12.56-1.12,1.35v7.06c0,.8.35,1.36,1.12,1.36S47.73,43.69,47.73,42.89Z"/>
      <path class="cls-2" d="M54.73,38.92h3.14v7H56.28V44.5a2,2,0,0,1-2.11,1.59c-1.9,0-2.78-1.51-2.78-3.55V36.18c0-2,1-3.55,3.32-3.55s3.16,1.36,3.16,3.3v1.16h-2V35.76c0-.82-.31-1.28-1.1-1.28S53.6,35,53.6,35.83v7.06c0,.8.33,1.36,1.09,1.36s1.09-.41,1.09-1.26V40.66H54.73Z"/>
      <path class="cls-2" d="M62.82,45.53l-.31.76h-.95l.6-1.46a4,4,0,0,1-.6-2.29V36.18c0-2,1-3.55,3.34-3.55a3.62,3.62,0,0,1,2.09.58l.31-.75h1l-.6,1.43a4.07,4.07,0,0,1,.6,2.29v6.36c0,2-1,3.55-3.35,3.55A3.49,3.49,0,0,1,62.82,45.53Zm.87-4.38,2.39-5.74a1.13,1.13,0,0,0-1.18-1,1.2,1.2,0,0,0-1.21,1.35ZM66.12,43V37.6l-2.39,5.76a1.12,1.12,0,0,0,1.17,1A1.2,1.2,0,0,0,66.12,43Z"/>
      <path class="cls-2" d="M71.92,39.54v6.4H69.71V32.79h2.21v5.78l2.4-5.78H76.5L73.94,38.7l2.61,7.24H74.23Z"/>
      <path class="cls-2" d="M77.1,42.54V36.18c0-2,1-3.55,3.33-3.55s3.36,1.5,3.36,3.55v6.36c0,2-1,3.55-3.36,3.55S77.1,44.58,77.1,42.54Zm4.48.35V35.83c0-.79-.35-1.35-1.15-1.35s-1.12.56-1.12,1.35v7.06c0,.8.35,1.36,1.12,1.36S81.58,43.69,81.58,42.89Z"/>
      <path class="cls-2" d="M87.11,37.68v8.26H85.25V32.79h2.17l2.38,7.54V32.79h1.85V45.94H89.71Z"/>
      <path class="cls-2" d="M93.1,42.54V36.18c0-2,1-3.55,3.34-3.55s3.35,1.5,3.35,3.55v6.36c0,2-1,3.55-3.35,3.55S93.1,44.58,93.1,42.54Zm4.48.35V35.83c0-.79-.35-1.35-1.14-1.35s-1.13.56-1.13,1.35v7.06c0,.8.35,1.36,1.13,1.36S97.58,43.69,97.58,42.89Z"/>
      <path class="cls-2" d="M107.34,37.4h-.06l-1.49,8.54h-1l-1.65-8.54h0v8.54h-1.82V32.79h2.58l1.44,7.41h0l1.28-7.41h2.79V45.94h-2Z"/>
      <path class="cls-2" d="M110.81,32.79H113V45.94h-2.22Z"/>
      <path class="cls-2" d="M114.38,43.11V41.34h2.06v1.8c0,.74.33,1.17,1.09,1.17s1-.47,1-1.17v-.5a2.39,2.39,0,0,0-1-1.86l-1.3-1.3c-1.26-1.24-1.85-2-1.85-3.51v-.45c0-1.63.95-2.89,3.11-2.89s3.08,1.09,3.08,3v1.07h-2V35.54c0-.75-.35-1.12-1-1.12a1,1,0,0,0-1,1.08v.27c0,.74.41,1.17,1,1.79l1.41,1.4c1.21,1.22,1.79,1.95,1.79,3.41V43c0,1.8-1,3.08-3.22,3.08S114.38,44.83,114.38,43.11Z"/>
      <path class="cls-2" d="M124.3,39.54v6.4h-2.21V32.79h2.21v5.78l2.4-5.78h2.17l-2.56,5.91,2.62,7.24h-2.32Z"/>
    </g>
    <g>
      <path class="cls-2" d="M50.45,52.16,48,65.31H45.54L43,52.16h2.25l1.51,9.17h0l1.56-9.17Z"/>
      <path class="cls-2" d="M49.81,65.31l3.36-13.15H59.8V54H56.74v3.76h2.19v1.79H56.74v4H59.8v1.81H54.53V62.9H52.47l-.56,2.41Zm3.07-4.17h1.65v-7h0Z"/>
      <path class="cls-2" d="M63.39,58.91v6.4H61.18V52.16h2.21v5.78l2.41-5.78H68l-2.56,5.91L68,65.31H65.7Z"/>
      <path class="cls-2" d="M68.65,62.47V60.71h2.06v1.8c0,.74.33,1.17,1.08,1.17s1-.47,1-1.17V62a2.37,2.37,0,0,0-1-1.86l-1.3-1.3c-1.26-1.24-1.84-2-1.84-3.51v-.45c0-1.63,1-2.89,3.1-2.89s3.09,1.09,3.09,3v1.07h-2V54.91c0-.76-.35-1.12-1-1.12a1,1,0,0,0-1.05,1.08v.27c0,.74.41,1.17,1.05,1.79l1.42,1.39c1.2,1.23,1.78,2,1.78,3.42v.64c0,1.8-1,3.08-3.22,3.08S68.65,64.2,68.65,62.47Z"/>
      <path class="cls-2" d="M75.81,52.16h5.87V54H79.86V65.31H77.63V54H75.81Z"/>
    </g>
  </g>
</svg>
