<svg xmlns="http://www.w3.org/2000/svg" viewBox="0 0 160.92 160.93">
  <defs>
    <style>
      .cls-1 {
        fill: #bf8b2e;
      }

      .cls-2 {
        fill: #fff;
      }
    </style>
  </defs>
  <title>Artboard 67</title>
  <g id="Layer_1" data-name="Layer 1">
    <g>
      <rect class="cls-1" width="160.92" height="160.93"/>
      <polygon class="cls-2" points="16.06 21.14 16.11 21.14 16.11 45.98 21.57 45.98 21.57 13.54 17.21 13.54 12.19 19.42 12.19 25.12 12.23 25.12 16.06 21.14"/>
      <path class="cls-2" d="M24.82,20.24v3.92h5V20.09c0-2,.95-2.53,2.1-2.53s2,.43,2,2.44v2.68c0,2.68-.23,3.73-2,5.6l-3.06,3.25c-3,3.16-4.07,5.27-4.07,8.47v6H38.89V41.53H29.94V40c0-2.53.91-3.49,2.3-5l3.49-3.68c2.82-3,3.45-4.93,3.45-8.18V20c0-4.65-2.25-6.85-7.13-6.85s-7.23,2.54-7.23,7.09"/>
      <path class="cls-2" d="M124.53,86.21C118,81,110.1,80.46,107,80.46a19.4,19.4,0,0,0-4.23.41l-.43.1c-4.16,1-11.11,2.62-19.21,12.68l-.24.29a1.08,1.08,0,0,0-.2.61,1,1,0,0,0,.14.53l.19.3q2,3.36,3.33,5.83a1.07,1.07,0,0,0,1.73.24l.15-.21c7-9.68,12.48-11,16.1-11.82l.45-.1a10.59,10.59,0,0,1,2.23-.19c1.68,0,7.54.28,12.12,3.89,4.07,3.21,6.13,8.34,6.13,15.25,0,11.57-5.6,16.08-10.3,17.83a16.31,16.31,0,0,1-5.74,1,20.34,20.34,0,0,1-8.61-2l-.34-.16c-4-1.76-10.07-5.42-15.77-16.87C72.82,84.63,63,82.41,56.5,80.94l-.34-.08a19.77,19.77,0,0,0-4.2-.38,27.9,27.9,0,0,0-17.22,5.7c-4.24,3.38-9.29,9.95-9.29,22,0,7.36,1.52,12.23,5.41,17.34a25.86,25.86,0,0,0,20.51,9.75,31.28,31.28,0,0,0,5.94-.58,25.26,25.26,0,0,0,10.14-4.63l3.42,3.08a1,1,0,0,0,1.39-.06.94.94,0,0,0,.24-.65l2.65-16.3V116a.93.93,0,0,0-.32-.71,1,1,0,0,0-.68-.25h0l-15.87,4.39-.3,0a.85.85,0,0,0-.5.29,1,1,0,0,0-.26.71,1,1,0,0,0,.32.68l3.29,3a15.41,15.41,0,0,1-5.13,2.08,22.06,22.06,0,0,1-4.21.41,17.18,17.18,0,0,1-13.6-6.15l-.09-.12c-2.73-3.59-3.66-6.65-3.66-12.12,0-6.93,2-12.06,6-15.26,4.45-3.55,10.17-3.82,11.82-3.82a11,11,0,0,1,2.25.19l.35.07c5.2,1.18,12.3,2.79,22.16,22.59,5.21,10.45,11.74,17.29,19.94,20.89a29.29,29.29,0,0,0,12.57,2.92,25.16,25.16,0,0,0,8.77-1.56c4.79-1.79,15.94-7.9,15.94-26C134,96.19,128.83,89.6,124.53,86.21Z"/>
      <g>
        <path class="cls-2" d="M52.19,26.62l2.48-13.15h2.52l2.5,13.15H57.42L57,24.21H54.67l-.39,2.41ZM55,22.45h1.77l-.88-5.28h0Z"/>
        <path class="cls-2" d="M62.32,18.36v8.26H60.46V13.47h2.17L65,21V13.47h1.84V26.62H64.92Z"/>
        <path class="cls-2" d="M67.74,23.79V22h2.05v1.81c0,.73.33,1.16,1.09,1.16s1-.47,1-1.16v-.51a2.38,2.38,0,0,0-1-1.86l-1.3-1.3c-1.26-1.24-1.84-2-1.84-3.51V16.2c0-1.62.95-2.89,3.1-2.89s3.08,1.09,3.08,3v1.07h-2V16.22c0-.75-.35-1.12-1.05-1.12a1,1,0,0,0-1,1.09v.27c0,.73.41,1.16,1,1.78l1.41,1.4c1.21,1.22,1.79,2,1.79,3.41v.64c0,1.8-1,3.08-3.22,3.08S67.74,25.51,67.74,23.79Z"/>
        <path class="cls-2" d="M82,13.47,79.45,26.62h-2.4l-2.5-13.15H76.8l1.51,9.17h0l1.55-9.17Z"/>
        <path class="cls-2" d="M81.42,26.62l2.49-13.15h2.52l2.5,13.15H86.66l-.41-2.41H83.91l-.39,2.41Zm2.78-4.17H86l-.87-5.28h0Z"/>
        <path class="cls-2" d="M91.9,20.59v6H89.69V13.47h3.22c2.23,0,3,1.11,3,3V18.1c0,1.42-.51,2.25-1.77,2.55l2.12,6H94Zm0-5.32v4.1h.74a1,1,0,0,0,1.09-1.09V16.34c0-.72-.33-1.07-1.09-1.07Z"/>
        <path class="cls-2" d="M97,13.47h2.21V24.82h2.64v1.8H97Z"/>
        <path class="cls-2" d="M102.69,13.47h2.21V26.62h-2.21Z"/>
        <path class="cls-2" d="M109.22,19.6h3.14v7h-1.59V25.18a2,2,0,0,1-2.12,1.59c-1.9,0-2.77-1.51-2.77-3.54V16.86c0-2,1-3.55,3.32-3.55s3.16,1.36,3.16,3.3v1.17h-2V16.44c0-.82-.31-1.28-1.1-1.28s-1.15.56-1.15,1.36v7.05c0,.8.33,1.36,1.09,1.36s1.08-.41,1.08-1.26V21.34h-1Z"/>
        <path class="cls-2" d="M113.13,13.47H119v1.8h-1.83V26.62H115V15.27h-1.82Z"/>
        <path class="cls-2" d="M52.54,33h5.18v1.8h-3v3.77H57v1.78H54.75v5.8H52.54Z"/>
        <path class="cls-2" d="M58.44,42.73V36.36c0-2,1-3.55,3.34-3.55s3.35,1.5,3.35,3.55v6.37c0,2-1,3.54-3.35,3.54S58.44,44.76,58.44,42.73Zm4.48.34V36c0-.8-.35-1.36-1.14-1.36s-1.13.56-1.13,1.36v7c0,.8.35,1.36,1.13,1.36S62.92,43.87,62.92,43.07Z"/>
        <path class="cls-2" d="M68.32,40.09v6H66.11V33h3.22c2.23,0,3,1.11,3,3V37.6c0,1.42-.51,2.25-1.77,2.55l2.12,6H70.4Zm0-5.32v4.1h.74a1,1,0,0,0,1.09-1.09V35.84c0-.72-.33-1.07-1.09-1.07Z"/>
        <path class="cls-2" d="M73.46,33h3.2c2.21,0,3,1,3,2.89V37.2a1.92,1.92,0,0,1-1.32,2.09,2,2,0,0,1,1.65,2.19v1.75c0,1.86-.83,2.89-3,2.89H73.46Zm2.21,5.55h.78c.72,0,1-.37,1-1.07V35.84c0-.72-.32-1.07-1.06-1.07h-.76Zm0,1.68v4.12h1a1,1,0,0,0,1.09-1.07v-2c0-.7-.33-1.07-1.11-1.07Z"/>
        <path class="cls-2" d="M83,40.09v6H80.8V33H84c2.23,0,3,1.11,3,3V37.6c0,1.42-.5,2.25-1.76,2.55l2.11,6H85.08Zm0-5.32v4.1h.74a1,1,0,0,0,1.08-1.09V35.84c0-.72-.33-1.07-1.08-1.07Z"/>
        <path class="cls-2" d="M94.39,33v10c0,2-.87,3.35-3.12,3.35S88,45,88,42.92V33h2.21V43.13c0,.78.31,1.3,1.09,1.3s1.08-.52,1.08-1.3V33Z"/>
        <path class="cls-2" d="M98.7,39.1h3.14v7h-1.59V44.68a2,2,0,0,1-2.12,1.59c-1.9,0-2.77-1.51-2.77-3.54V36.36c0-2,1-3.55,3.32-3.55s3.16,1.36,3.16,3.3v1.17h-2V35.94c0-.82-.31-1.28-1.1-1.28s-1.15.56-1.15,1.36v7c0,.8.33,1.36,1.09,1.36s1.08-.41,1.08-1.26V40.84h-1Z"/>
        <path class="cls-2" d="M52.54,62.23V55.86c0-2,1-3.55,3.33-3.55s3.36,1.5,3.36,3.55v6.37c0,2-1,3.54-3.36,3.54S52.54,64.26,52.54,62.23Zm4.48.34v-7c0-.8-.35-1.36-1.15-1.36s-1.12.56-1.12,1.36v7c0,.8.35,1.36,1.12,1.36S57,63.37,57,62.57Z"/>
        <path class="cls-2" d="M63.5,58.6h3.14v7H65.05V64.18a2,2,0,0,1-2.11,1.59c-1.9,0-2.78-1.51-2.78-3.54V55.86c0-2,1-3.55,3.32-3.55s3.16,1.36,3.16,3.3v1.17h-2V55.44c0-.82-.31-1.28-1.11-1.28s-1.14.56-1.14,1.36v7c0,.8.33,1.36,1.08,1.36s1.09-.41,1.09-1.26V60.34h-1Z"/>
        <path class="cls-2" d="M71.11,52.47h3.27c2.24,0,3.05,1.11,3.05,3v2.77c0,1.84-.81,3-3.05,3H73.32v4.46H71.11Zm2.21,1.8v5.18h.81a1,1,0,0,0,1.09-1.08v-3c0-.72-.33-1.07-1.09-1.07Z"/>
        <path class="cls-2" d="M80.52,59.59v6H78.31V52.47h3.22c2.23,0,3,1.11,3,3V57.1c0,1.42-.5,2.25-1.76,2.55l2.11,6H82.59Zm0-5.32v4.1h.74a1,1,0,0,0,1.08-1.09V55.34c0-.72-.33-1.07-1.08-1.07Z"/>
        <path class="cls-2" d="M85.48,62.23V55.86c0-2,1-3.55,3.34-3.55s3.35,1.5,3.35,3.55v6.37c0,2-1,3.54-3.35,3.54S85.48,64.26,85.48,62.23Zm4.48.34v-7c0-.8-.35-1.36-1.14-1.36s-1.13.56-1.13,1.36v7c0,.8.35,1.36,1.13,1.36S90,63.37,90,62.57Z"/>
        <path class="cls-2" d="M99.77,56v6.09c0,2-.84,3.53-3.2,3.53H93.15V52.47h3.42C98.93,52.47,99.77,54,99.77,56Zm-3.48,7.82c.92,0,1.27-.55,1.27-1.34V55.59a1.16,1.16,0,0,0-1.27-1.32h-.93v9.55Z"/>
        <path class="cls-2" d="M107.16,52.47v10c0,2-.88,3.35-3.13,3.35s-3.29-1.31-3.29-3.35v-10H103V62.63c0,.78.31,1.3,1.08,1.3s1.09-.52,1.09-1.3V52.47Z"/>
        <path class="cls-2" d="M110.37,59.22v6.4h-2.21V52.47h2.21v5.78l2.41-5.78H115l-2.56,5.92L115,65.62h-2.33Z"/>
        <path class="cls-2" d="M115.58,52.47h5.88v1.8h-1.82V65.62h-2.23V54.27h-1.83Z"/>
        <path class="cls-2" d="M122.28,52.47h2.21V65.62h-2.21Z"/>
        <path class="cls-2" d="M125.47,62.23V55.86c0-2,1-3.55,3.33-3.55s3.36,1.5,3.36,3.55v6.37c0,2-1,3.54-3.36,3.54S125.47,64.26,125.47,62.23Zm4.48.34v-7c0-.8-.35-1.36-1.15-1.36s-1.12.56-1.12,1.36v7c0,.8.35,1.36,1.12,1.36S130,63.37,130,62.57Z"/>
        <path class="cls-2" d="M135,57.36v8.26h-1.86V52.47h2.17L137.7,60V52.47h1.84V65.62H137.6Z"/>
      </g>
    </g>
  </g>
</svg>
