<svg xmlns="http://www.w3.org/2000/svg" viewBox="0 0 160.92 160.93">
  <defs>
    <style>
      .cls-1 {
        fill: #c5192d;
      }

      .cls-2 {
        fill: #fff;
      }
    </style>
  </defs>
  <title>Artboard 59</title>
  <g id="Layer_1" data-name="Layer 1">
    <g>
      <rect class="cls-1" width="160.92" height="160.93"/>
      <path class="cls-2" d="M25.21,45.93h5.17V40.67h2.2V36.41h-2.2V13.49H25L15.59,37.32v3.35h9.62Zm-4.84-9.52,4.89-13.35h0V36.41Z"/>
      <polygon class="cls-2" points="71.36 86.29 42.5 69.62 42.5 123.53 71.36 132.24 71.36 86.29"/>
      <polygon class="cls-2" points="74.53 86.4 74.53 132.26 103.58 123.53 103.58 69.62 74.53 86.4"/>
      <path class="cls-2" d="M126.24,68.26a3.42,3.42,0,1,0-6.83,0v3.68h6.83Z"/>
      <polygon class="cls-2" points="120.26 122.58 119.41 122.58 122.82 134.51 126.23 122.58 125.39 122.58 126.23 122.58 126.23 74.61 125.39 74.61 124.54 74.61 123.64 74.61 121.94 74.61 121.1 74.61 120.26 74.61 119.41 74.61 119.41 122.58 120.26 122.58"/>
      <polygon class="cls-2" points="109.78 71.94 106.69 69.49 106.69 125 74.62 135.36 73.13 135.36 72.84 135.36 71.36 135.36 39.43 126.44 39.43 69.49 36.34 71.94 36.34 128.61 71.21 138.26 72.84 138.26 73.13 138.26 74.76 138.26 106.94 128.05 109.78 127.21 109.78 71.94"/>
      <g>
        <path class="cls-2" d="M49.72,20.08v6.4H47.51V13.33h2.21v5.78l2.41-5.78H54.3l-2.56,5.92,2.62,7.23H52Z"/>
        <path class="cls-2" d="M62.3,13.33,59.8,26.48H57.39l-2.5-13.15h2.25l1.51,9.18h0l1.55-9.18Z"/>
        <path class="cls-2" d="M61.76,26.48l2.49-13.15h2.52l2.5,13.15H67l-.41-2.4H64.25l-.39,2.4Zm2.78-4.17H66.3L65.43,17h0Z"/>
        <path class="cls-2" d="M70,13.33h2.21V24.68h2.64v1.8H70Z"/>
        <path class="cls-2" d="M75.68,13.33h2.21V26.48H75.68Z"/>
        <path class="cls-2" d="M78.69,13.33h5.88v1.81H82.75V26.48H80.52V15.14H78.69Z"/>
        <path class="cls-2" d="M85.39,13.33h5.28v1.81H87.6V18.9h2.19v1.78H87.6v4h3.07v1.8H85.39Z"/>
        <path class="cls-2" d="M91.44,13.33h5.88v1.81H95.49V26.48H93.26V15.14H91.44Z"/>
        <path class="cls-2" d="M98.05,23.65V21.88h2.06v1.81c0,.74.33,1.16,1.08,1.16s1-.46,1-1.16v-.51a2.38,2.38,0,0,0-1-1.86L99.91,20c-1.26-1.24-1.84-2-1.84-3.51v-.44c0-1.63,1-2.89,3.1-2.89s3.09,1.08,3.09,3v1.07h-2V16.09c0-.76-.35-1.13-1-1.13a1,1,0,0,0-1,1.09v.27c0,.74.41,1.16,1,1.78l1.42,1.4c1.2,1.22,1.78,2,1.78,3.41v.64c0,1.81-1,3.09-3.22,3.09S98.05,25.38,98.05,23.65Z"/>
        <path class="cls-2" d="M105.07,19.48h3.11v1.78h-3.11Z"/>
        <path class="cls-2" d="M53.93,32.83v10c0,2-.87,3.36-3.12,3.36s-3.3-1.32-3.3-3.36v-10h2.21V43c0,.78.31,1.3,1.09,1.3s1.08-.52,1.08-1.3V32.83Z"/>
        <path class="cls-2" d="M61.55,36.36v6.09c0,2-.84,3.53-3.2,3.53H54.93V32.83h3.42C60.71,32.83,61.55,34.33,61.55,36.36Zm-3.47,7.82c.91,0,1.26-.55,1.26-1.34V36a1.15,1.15,0,0,0-1.26-1.31h-.93v9.54Z"/>
        <path class="cls-2" d="M69.14,36.36v6.09c0,2-.83,3.53-3.2,3.53H62.53V32.83h3.41C68.31,32.83,69.14,34.33,69.14,36.36Zm-3.47,7.82c.91,0,1.26-.55,1.26-1.34V36a1.15,1.15,0,0,0-1.26-1.31h-.93v9.54Z"/>
        <path class="cls-2" d="M69.67,46l2.49-13.15h2.52L77.18,46H74.91l-.41-2.4H72.16L71.77,46Zm2.78-4.17h1.76l-.87-5.27h0Z"/>
        <path class="cls-2" d="M79.8,37.72V46H77.94V32.83h2.18l2.38,7.55V32.83h1.84V46H82.4Z"/>
        <path class="cls-2" d="M87.22,37.72V46H85.36V32.83h2.17l2.39,7.55V32.83h1.84V46H89.82Z"/>
        <path class="cls-2" d="M92.78,32.83h5.27v1.81H95V38.4h2.19v1.78H95v4h3.06V46H92.78Z"/>
        <path class="cls-2" d="M98.94,32.83h2.22V44.18h2.63V46H98.94Z"/>
        <path class="cls-2" d="M104.51,43.15V41.38h2v1.81c0,.74.33,1.16,1.09,1.16s1-.46,1-1.16v-.51a2.38,2.38,0,0,0-1-1.86l-1.3-1.3c-1.26-1.24-1.84-2-1.84-3.51v-.44c0-1.63,1-2.89,3.1-2.89s3.08,1.08,3.08,3v1.07h-2V35.59c0-.76-.35-1.13-1-1.13a1,1,0,0,0-1.05,1.09v.27c0,.74.41,1.16,1.05,1.78l1.42,1.4c1.2,1.22,1.78,2,1.78,3.41v.64c0,1.81-1,3.09-3.22,3.09S104.51,44.88,104.51,43.15Z"/>
        <path class="cls-2" d="M111.74,32.83H117v1.81H114V38.4h2.19v1.78H114v4H117V46h-5.27Z"/>
      </g>
    </g>
  </g>
</svg>
