<svg xmlns="http://www.w3.org/2000/svg" viewBox="0 0 160.92 160.93">
  <defs>
    <style>
      .cls-1 {
        fill: #e5243b;
      }

      .cls-2 {
        fill: #fff;
      }

      .cls-3 {
        fill: none;
        stroke: #fff;
        stroke-linecap: round;
        stroke-miterlimit: 10;
        stroke-width: 1.31px;
      }
    </style>
  </defs>
  <title>Artboard 52</title>
  <g id="Layer_1" data-name="Layer 1">
    <g>
      <rect class="cls-1" width="160.92" height="160.93"/>
      <polygon class="cls-2" points="22.47 21.16 22.52 21.16 22.52 46 27.97 46 27.97 13.55 23.61 13.55 18.59 19.44 18.59 25.14 18.64 25.14 22.47 21.16"/>
      <g>
        <path class="cls-2" d="M123.93,76.78a4.46,4.46,0,1,1,4.46,4.45,4.46,4.46,0,0,1-4.46-4.45"/>
        <path class="cls-2" d="M133.59,83A5.94,5.94,0,0,1,139,88.87v12.35a1.73,1.73,0,0,1-3.45,0V90.61c0-.4-.12-.94-.85-.94-.5,0-.6.54-.62.88v31.79a2.49,2.49,0,0,1-5,0V104a.66.66,0,0,0-.7-.73h0a.68.68,0,0,0-.72.73v18.32a2.48,2.48,0,1,1-5,0V90.55c0-.34-.13-.88-.63-.88-.73,0-.84.54-.84.94v10.61a1.73,1.73,0,0,1-3.45,0V88.87a5.94,5.94,0,0,1,5.4-5.92,2.91,2.91,0,0,1,.32,0h9.74a3.31,3.31,0,0,1,.34,0"/>
      </g>
      <g>
        <path class="cls-2" d="M97.44,79.12a4.22,4.22,0,1,0-4.22,4.22,4.23,4.23,0,0,0,4.22-4.22"/>
        <path class="cls-2" d="M84.72,88.67l-3.5,11.42s-.63,2.09,1.15,2.61,2.3-1.52,2.3-1.52l2.83-9.52s.15-.74.7-.58.35.94.35.94l-4.93,17.86H88.2v12.79a2.2,2.2,0,0,0,4.4,0V109.88h1.24v12.79a2.2,2.2,0,0,0,4.4,0V109.88h4.58L97.9,92s-.21-.78.34-.94.71.58.71.58l2.82,9.52s.54,2,2.31,1.52,1.15-2.61,1.15-2.61l-3.51-11.42s-1.25-3.3-4-3.3H88.75c-2.77,0-4,3.3-4,3.3"/>
      </g>
      <g>
        <path class="cls-2" d="M72.17,79.12A4.22,4.22,0,1,0,68,83.34a4.22,4.22,0,0,0,4.21-4.22"/>
        <path class="cls-2" d="M59.45,88.67,56,100.09s-.63,2.09,1.15,2.61,2.3-1.52,2.3-1.52l2.83-9.52s.15-.74.7-.58.35.94.35.94l-4.92,17.86h4.57v12.79a2.2,2.2,0,0,0,4.4,0V109.88h1.25v12.79a2.2,2.2,0,0,0,4.39,0V109.88h4.58L72.63,92s-.21-.78.34-.94.71.58.71.58l2.82,9.52s.54,2,2.31,1.52S80,100.09,80,100.09L76.45,88.67s-1.25-3.3-4-3.3H63.49c-2.78,0-4,3.3-4,3.3"/>
      </g>
      <g>
        <path class="cls-2" d="M111.61,102.73a3.52,3.52,0,1,0-3.52-3.52,3.51,3.51,0,0,0,3.52,3.52"/>
        <path class="cls-2" d="M103.19,113.64a1.21,1.21,0,0,0,.51,1.66,1.17,1.17,0,0,0,1.5-.49l1.91-6.09s.33-.41.33,0v14.33h0a1.81,1.81,0,1,0,3.61,0v-5.65s-.11-.8.54-.8.54.8.54.8v5.65a1.81,1.81,0,1,0,3.61,0V108.73c0-.42.22-.12.22-.12l1.5,4.17a10.23,10.23,0,0,0,.85,2,1.34,1.34,0,0,0,1.6-2h0c0-.13-2.24-5.51-2.49-6.27-.8-2.31-2.24-2.29-3.63-2.33s-2.21,0-2.21,0-.89,0-2.72,0-2.41,1-4.43,6.19c-.29.75-1.26,3.17-1.28,3.31Z"/>
      </g>
      <g>
        <g>
          <path class="cls-2" d="M34.5,76.78A4.46,4.46,0,1,0,30,81.23a4.46,4.46,0,0,0,4.46-4.45"/>
          <path class="cls-2" d="M24.84,83a5.94,5.94,0,0,0-5.4,5.92v12.35a1.73,1.73,0,0,0,3.46,0V90.61c0-.4.11-.94.84-.94.5,0,.61.54.63.88v31.79a2.48,2.48,0,1,0,5,0V104a.68.68,0,0,1,.71-.73h0a.67.67,0,0,1,.71.73v18.32a2.49,2.49,0,0,0,5,0V90.55c0-.34.12-.88.62-.88.73,0,.84.54.84.94v10.61a1.73,1.73,0,0,0,3.46,0V88.87A5.94,5.94,0,0,0,35.24,83a3.11,3.11,0,0,0-.33,0H25.18a3.07,3.07,0,0,0-.34,0"/>
        </g>
        <line class="cls-3" x1="20.95" y1="103.01" x2="17" y2="123.98"/>
      </g>
      <g>
        <path class="cls-2" d="M42.75,100.89a1.28,1.28,0,0,0-2.36.67,2.44,2.44,0,0,0,.12.57l3.54,6.4a2.24,2.24,0,0,1,.22.85v13.75h0a1.73,1.73,0,1,0,3.45,0V117.7s-.09-.76.53-.76.52.76.52.76v5.43a1.73,1.73,0,0,0,3.46,0V109.38a2.24,2.24,0,0,1,.22-.85l3.27-5.91a5.69,5.69,0,0,0,.4-1.06,1.27,1.27,0,0,0-1.28-1.27,1.26,1.26,0,0,0-1.08.6h0c-.1.09-1.74,3-2.28,3.55a1.43,1.43,0,0,1-1.08.51H46.13a1.43,1.43,0,0,1-1.08-.51c-.55-.54-2.18-3.46-2.29-3.55Z"/>
        <path class="cls-2" d="M48.26,102.73a3.52,3.52,0,1,0-3.51-3.52,3.51,3.51,0,0,0,3.51,3.52"/>
        <polygon class="cls-2" points="48.26 107.66 52.23 110.55 54.12 117.5 48.26 117.5 42.4 117.5 44.29 110.55 48.26 107.66"/>
      </g>
      <g>
        <path class="cls-2" d="M47.73,26.48l2.48-13.15h2.52l2.5,13.15H53l-.4-2.4H50.21l-.39,2.4Zm2.77-4.17h1.77L51.39,17h0Z"/>
        <path class="cls-2" d="M56,13.33h5.18v1.81h-3V18.9h2.21v1.78H58.21v5.8H56Z"/>
        <path class="cls-2" d="M61.88,23.65V21.88h2.06v1.81c0,.74.33,1.16,1.08,1.16s1-.46,1-1.16v-.51a2.38,2.38,0,0,0-1-1.86L63.74,20c-1.26-1.24-1.84-2-1.84-3.51v-.44c0-1.63,1-2.89,3.1-2.89s3.09,1.08,3.09,3v1.07h-2V16.09c0-.76-.35-1.13-1-1.13a1,1,0,0,0-1,1.09v.27c0,.74.4,1.16,1,1.78l1.42,1.4c1.2,1.22,1.78,2,1.78,3.41v.64c0,1.81-1,3.09-3.22,3.09S61.88,25.38,61.88,23.65Z"/>
        <path class="cls-2" d="M71.32,20.08v6.4H69.11V13.33h2.21v5.78l2.41-5.78H75.9l-2.56,5.92L76,26.48H73.63Z"/>
        <path class="cls-2" d="M76.51,26.48,79,13.33h2.52L84,26.48H81.75l-.41-2.4H79l-.38,2.4Zm2.77-4.17h1.77L80.18,17h0Z"/>
        <path class="cls-2" d="M84.78,13.33H90v1.81H87V18.9H89.2v1.78H87v5.8H84.78Z"/>
        <path class="cls-2" d="M48.08,32.83h5.17v1.81h-3V38.4H52.5v1.78H50.29V46H48.08Z"/>
        <path class="cls-2" d="M53,46l2.48-13.15H58L60.46,46H58.19l-.41-2.4H55.43L55.05,46Zm2.78-4.17h1.76l-.87-5.27h0Z"/>
        <path class="cls-2" d="M60.17,32.83h5.88v1.81H64.23V46H62V34.64H60.17Z"/>
        <path class="cls-2" d="M66.75,32.83h5.87v1.81H70.8V46H68.57V34.64H66.75Z"/>
        <path class="cls-2" d="M73.44,32.83h2.21V46H73.44Z"/>
        <path class="cls-2" d="M80,39h3.14v7H81.52V44.55a2,2,0,0,1-2.11,1.59c-1.91,0-2.78-1.52-2.78-3.55V36.23c0-2.06,1-3.55,3.32-3.55S83.11,34,83.11,36v1.17h-2V35.8c0-.82-.31-1.28-1.1-1.28s-1.15.56-1.15,1.36v7.06c0,.79.33,1.35,1.09,1.35S81,43.89,81,43V40.71H80Z"/>
        <path class="cls-2" d="M90.72,36.36v6.09c0,2-.83,3.53-3.2,3.53H84.11V32.83h3.41C89.89,32.83,90.72,34.33,90.72,36.36Zm-3.47,7.82c.91,0,1.26-.55,1.26-1.34V36a1.15,1.15,0,0,0-1.26-1.31h-.93v9.54Z"/>
        <path class="cls-2" d="M91.66,42.59V36.23c0-2.06,1-3.55,3.34-3.55s3.35,1.49,3.35,3.55v6.36c0,2-1,3.55-3.35,3.55S91.66,44.62,91.66,42.59Zm4.48.35V35.88c0-.8-.35-1.36-1.14-1.36s-1.13.56-1.13,1.36v7.06c0,.79.35,1.35,1.13,1.35S96.14,43.73,96.14,42.94Z"/>
        <path class="cls-2" d="M105.42,37.45h0L103.87,46h-1l-1.64-8.53h0V46H99.33V32.83h2.58l1.44,7.41h0l1.28-7.41h2.79V46h-2Z"/>
      </g>
    </g>
  </g>
</svg>
