<svg xmlns="http://www.w3.org/2000/svg" viewBox="0 0 160.92 160.93">
  <defs>
    <style>
      .cls-1 {
        fill: #4c9f38;
      }

      .cls-2 {
        fill: #fff;
      }
    </style>
  </defs>
  <title>Artboard 58</title>
  <g id="Layer_1" data-name="Layer 1">
    <g>
      <rect class="cls-1" width="160.91" height="160.92"/>
      <path class="cls-2" d="M23,46.37c5.51,0,7.9-2.92,7.9-7.42V34.17c0-3-1.29-4.88-4-5.5a5.19,5.19,0,0,0,3.73-5.27V20.58c0-4.59-2.2-7.42-7.22-7.42-5.65,0-7.61,3.35-7.61,8.14v2.87h5v-3.3c0-2,.63-3.16,2.35-3.16s2.34,1.15,2.34,2.92v3.49c0,1.72-1.15,2.63-2.91,2.63H20.43v4.17h2.29c1.92,0,2.68.9,2.68,2.63v5.36c0,1.72-.76,2.92-2.44,2.92-1.86,0-2.53-1.25-2.53-3.16V34h-5v4.25c0,4.93,2,8.09,7.51,8.09"/>
      <path class="cls-2" d="M134.51,100.57c0-4.52-2.91-8.2-7.31-8.2-2.2,0-4.85,2.41-6.3,3.9-1.44-1.49-3.92-3.9-6.12-3.9-4.4,0-7.48,3.67-7.48,8.2a8.29,8.29,0,0,0,2.33,5.8h0l11.28,11.3,11.27-11.29h0A8.3,8.3,0,0,0,134.51,100.57Z"/>
      <path class="cls-2" d="M86.48,136.12h-.11a1.87,1.87,0,0,1-1.72-1.54l-5.73-33.37L70.25,117.3a1.85,1.85,0,0,1-3.47-.61L63.1,90.93l-6.74,15.14a1.87,1.87,0,0,1-1.7,1.1H28.46a1.85,1.85,0,1,1,0-3.7h25l8.87-19.92a1.85,1.85,0,0,1,3.52.49l3.8,26.56,8.56-15.87a1.85,1.85,0,0,1,1.93-1,1.87,1.87,0,0,1,1.53,1.51L87,126.2,106.31,62a1.85,1.85,0,0,1,3.44-.27l10.18,21.1a1.85,1.85,0,0,1-.86,2.47,1.87,1.87,0,0,1-2.48-.86l-8.1-16.81L88.25,134.8A1.84,1.84,0,0,1,86.48,136.12Z"/>
      <g>
        <g>
          <path d="M46.59,23.65V21.89h2v1.8c0,.74.33,1.17,1.09,1.17s1-.47,1-1.17v-.5a2.39,2.39,0,0,0-1-1.86L48.45,20c-1.26-1.24-1.85-2-1.85-3.51v-.45c0-1.63.95-2.89,3.11-2.89s3.08,1.09,3.08,3v1.06h-2V16.09c0-.76-.35-1.12-1-1.12a1,1,0,0,0-1,1.08v.27c0,.74.41,1.17,1,1.79l1.41,1.39c1.21,1.23,1.79,2,1.79,3.42v.64c0,1.8-1,3.08-3.22,3.08S46.59,25.38,46.59,23.65Z"/>
          <path d="M60.24,13.34v9.94c0,2-.88,3.36-3.13,3.36s-3.29-1.32-3.29-3.36V13.34H56V23.5c0,.77.31,1.3,1.08,1.3s1.09-.53,1.09-1.3V13.34Z"/>
          <path d="M63.1,18.22v8.27H61.24V13.34h2.17l2.39,7.54V13.34h1.84V26.49H65.7Z"/>
          <path d="M75.27,16.87V23c0,2-.83,3.53-3.2,3.53H68.66V13.34h3.41C74.44,13.34,75.27,14.83,75.27,16.87ZM71.8,24.68c.91,0,1.26-.54,1.26-1.34V16.46a1.15,1.15,0,0,0-1.26-1.32h-.93v9.54Z"/>
          <path d="M80.6,20.69H78.46v5.8H76.25V13.34h2.21V18.9H80.6V13.34h2.23V26.49H80.6Z"/>
          <path d="M83.84,13.34h5.28v1.8H86.05V18.9h2.2v1.79h-2.2v4h3.07v1.81H83.84Z"/>
          <path d="M96.63,16.87V23c0,2-.84,3.53-3.2,3.53H90V13.34h3.42C95.79,13.34,96.63,14.83,96.63,16.87Zm-3.47,7.81c.91,0,1.26-.54,1.26-1.34V16.46a1.15,1.15,0,0,0-1.26-1.32h-.94v9.54Z"/>
          <path d="M46.7,42.59V36.23c0-2.06,1-3.55,3.34-3.55s3.35,1.49,3.35,3.55v6.36c0,2-1,3.55-3.35,3.55S46.7,44.63,46.7,42.59Zm4.48.35V35.88c0-.79-.35-1.36-1.14-1.36s-1.13.57-1.13,1.36v7.06c0,.8.35,1.36,1.13,1.36S51.18,43.74,51.18,42.94Z"/>
          <path d="M57.67,39h3.14v7H59.22V44.55a2,2,0,0,1-2.12,1.59c-1.9,0-2.77-1.51-2.77-3.55V36.23c0-2.06,1-3.55,3.32-3.55S60.81,34,60.81,36v1.16h-2V35.8c0-.81-.31-1.28-1.11-1.28s-1.14.57-1.14,1.36v7.06c0,.8.33,1.36,1.09,1.36s1.08-.41,1.08-1.26V40.71h-1Z"/>
          <path d="M63.27,32.84h5.88v1.8H67.33V46H65.1V34.64H63.27Z"/>
          <path d="M72.18,40v6H70V32.84h3.22c2.23,0,3,1.1,3,2.94v1.69c0,1.42-.5,2.25-1.76,2.54l2.11,6H74.25Zm0-5.31v4.09h.74A1,1,0,0,0,74,37.65V35.71c0-.72-.33-1.07-1.08-1.07Z"/>
          <path d="M77.32,32.84h2.21V46H77.32Z"/>
          <path d="M87.7,32.84,85.2,46H82.79l-2.5-13.15h2.25L84.05,42h0l1.55-9.17Z"/>
          <path d="M88.2,43.15V41.39h2.06v1.8c0,.74.33,1.17,1.09,1.17s1-.47,1-1.17v-.5a2.38,2.38,0,0,0-1-1.86l-1.3-1.3c-1.26-1.24-1.85-2-1.85-3.51v-.45c0-1.63,1-2.89,3.11-2.89s3.08,1.09,3.08,3v1.06h-2V35.59c0-.76-.35-1.12-1-1.12a1,1,0,0,0-1,1.08v.27c0,.74.41,1.17,1,1.79L92.76,39c1.2,1.23,1.79,2,1.79,3.42v.64c0,1.8-1,3.08-3.22,3.08S88.2,44.88,88.2,43.15Z"/>
          <path d="M95.43,32.84h5.28v1.8H97.65V38.4h2.19v1.79H97.65v4h3.06V46H95.43Z"/>
          <path d="M101.6,32.84h2.21V44.18h2.64V46H101.6Z"/>
        </g>
        <g>
          <path class="cls-2" d="M46.59,23.65V21.89h2v1.8c0,.74.33,1.17,1.09,1.17s1-.47,1-1.17v-.5a2.39,2.39,0,0,0-1-1.86L48.45,20c-1.26-1.24-1.85-2-1.85-3.51v-.45c0-1.63.95-2.89,3.11-2.89s3.08,1.09,3.08,3v1.06h-2V16.09c0-.76-.35-1.12-1-1.12a1,1,0,0,0-1,1.08v.27c0,.74.41,1.17,1,1.79l1.41,1.39c1.21,1.23,1.79,2,1.79,3.42v.64c0,1.8-1,3.08-3.22,3.08S46.59,25.38,46.59,23.65Z"/>
          <path class="cls-2" d="M60.24,13.34v9.94c0,2-.88,3.36-3.13,3.36s-3.29-1.32-3.29-3.36V13.34H56V23.5c0,.77.31,1.3,1.08,1.3s1.09-.53,1.09-1.3V13.34Z"/>
          <path class="cls-2" d="M63.1,18.22v8.27H61.24V13.34h2.17l2.39,7.54V13.34h1.84V26.49H65.7Z"/>
          <path class="cls-2" d="M75.27,16.87V23c0,2-.83,3.53-3.2,3.53H68.66V13.34h3.41C74.44,13.34,75.27,14.83,75.27,16.87ZM71.8,24.68c.91,0,1.26-.54,1.26-1.34V16.46a1.15,1.15,0,0,0-1.26-1.32h-.93v9.54Z"/>
          <path class="cls-2" d="M80.6,20.69H78.46v5.8H76.25V13.34h2.21V18.9H80.6V13.34h2.23V26.49H80.6Z"/>
          <path class="cls-2" d="M83.84,13.34h5.28v1.8H86.05V18.9h2.2v1.79h-2.2v4h3.07v1.81H83.84Z"/>
          <path class="cls-2" d="M96.63,16.87V23c0,2-.84,3.53-3.2,3.53H90V13.34h3.42C95.79,13.34,96.63,14.83,96.63,16.87Zm-3.47,7.81c.91,0,1.26-.54,1.26-1.34V16.46a1.15,1.15,0,0,0-1.26-1.32h-.94v9.54Z"/>
          <path class="cls-2" d="M46.7,42.59V36.23c0-2.06,1-3.55,3.34-3.55s3.35,1.49,3.35,3.55v6.36c0,2-1,3.55-3.35,3.55S46.7,44.63,46.7,42.59Zm4.48.35V35.88c0-.79-.35-1.36-1.14-1.36s-1.13.57-1.13,1.36v7.06c0,.8.35,1.36,1.13,1.36S51.18,43.74,51.18,42.94Z"/>
          <path class="cls-2" d="M57.67,39h3.14v7H59.22V44.55a2,2,0,0,1-2.12,1.59c-1.9,0-2.77-1.51-2.77-3.55V36.23c0-2.06,1-3.55,3.32-3.55S60.81,34,60.81,36v1.16h-2V35.8c0-.81-.31-1.28-1.11-1.28s-1.14.57-1.14,1.36v7.06c0,.8.33,1.36,1.09,1.36s1.08-.41,1.08-1.26V40.71h-1Z"/>
          <path class="cls-2" d="M63.27,32.84h5.88v1.8H67.33V46H65.1V34.64H63.27Z"/>
          <path class="cls-2" d="M72.18,40v6H70V32.84h3.22c2.23,0,3,1.1,3,2.94v1.69c0,1.42-.5,2.25-1.76,2.54l2.11,6H74.25Zm0-5.31v4.09h.74A1,1,0,0,0,74,37.65V35.71c0-.72-.33-1.07-1.08-1.07Z"/>
          <path class="cls-2" d="M77.32,32.84h2.21V46H77.32Z"/>
          <path class="cls-2" d="M87.7,32.84,85.2,46H82.79l-2.5-13.15h2.25L84.05,42h0l1.55-9.17Z"/>
          <path class="cls-2" d="M88.2,43.15V41.39h2.06v1.8c0,.74.33,1.17,1.09,1.17s1-.47,1-1.17v-.5a2.38,2.38,0,0,0-1-1.86l-1.3-1.3c-1.26-1.24-1.85-2-1.85-3.51v-.45c0-1.63,1-2.89,3.11-2.89s3.08,1.09,3.08,3v1.06h-2V35.59c0-.76-.35-1.12-1-1.12a1,1,0,0,0-1,1.08v.27c0,.74.41,1.17,1,1.79L92.76,39c1.2,1.23,1.79,2,1.79,3.42v.64c0,1.8-1,3.08-3.22,3.08S88.2,44.88,88.2,43.15Z"/>
          <path class="cls-2" d="M95.43,32.84h5.28v1.8H97.65V38.4h2.19v1.79H97.65v4h3.06V46H95.43Z"/>
          <path class="cls-2" d="M101.6,32.84h2.21V44.18h2.64V46H101.6Z"/>
        </g>
      </g>
    </g>
  </g>
</svg>
