<svg xmlns="http://www.w3.org/2000/svg" viewBox="0 0 160.92 160.93">
  <defs>
    <style>
      .cls-1 {
        fill: #fd9d24;
      }

      .cls-2 {
        fill: #fff;
      }
    </style>
  </defs>
  <title>Artboard 66</title>
  <g id="Layer_1" data-name="Layer 1">
    <g>
      <rect class="cls-1" width="160.92" height="160.93"/>
      <polygon class="cls-2" points="11.53 19.37 11.53 25.07 11.58 25.07 15.4 21.09 15.45 21.09 15.45 45.93 20.91 45.93 20.91 13.49 16.55 13.49 11.53 19.37"/>
      <polygon class="cls-2" points="23.97 19.37 23.97 25.07 24.02 25.07 27.85 21.09 27.89 21.09 27.89 45.93 33.35 45.93 33.35 13.49 29 13.49 23.97 19.37"/>
      <g>
        <g>
          <path class="cls-2" d="M27.68,122.51H51.89a.58.58,0,0,0,.59-.59.64.64,0,0,0-.15-.4l0,0-12-15.58-.12-.13a.58.58,0,0,0-.43-.2.6.6,0,0,0-.39.16l-.08.08-.11.13L27.37,121.37l-.18.22a.59.59,0,0,0,.49.92Z"/>
          <path class="cls-2" d="M51.82,124.71H27.56a.59.59,0,0,0-.59.59v19a.59.59,0,0,0,.59.59h7.81V132.94a.58.58,0,0,1,.59-.59h7.25a.58.58,0,0,1,.59.59v11.94h8a.6.6,0,0,0,.59-.59v-19A.6.6,0,0,0,51.82,124.71Z"/>
        </g>
        <path class="cls-2" d="M135.64,119.74h-24a.57.57,0,0,0-.59.57v24.24a.57.57,0,0,0,.59.57h24a.57.57,0,0,0,.59-.57V120.31a.57.57,0,0,0-.59-.57m-13.13,15.83a.58.58,0,0,1-.59.57h-7.17a.58.58,0,0,1-.59-.57v-4.36a.57.57,0,0,1,.59-.57h7.17a.57.57,0,0,1,.59.57Zm0-8.06a.57.57,0,0,1-.59.57h-7.17a.57.57,0,0,1-.59-.57v-4.36a.58.58,0,0,1,.59-.57h7.17a.58.58,0,0,1,.59.57Zm11,8.06a.58.58,0,0,1-.59.57h-7.17a.58.58,0,0,1-.59-.57v-4.36a.57.57,0,0,1,.59-.57h7.17a.57.57,0,0,1,.59.57Zm0-8.06a.57.57,0,0,1-.59.57h-7.17a.57.57,0,0,1-.59-.57v-4.36a.58.58,0,0,1,.59-.57h7.17a.58.58,0,0,1,.59.57Z"/>
        <path class="cls-2" d="M79.84,63.48H56.35a.57.57,0,0,0-.58.57v80.29a.58.58,0,0,0,.58.57H79.84a.59.59,0,0,0,.58-.57V64.05a.58.58,0,0,0-.58-.57m-14,72.29a.29.29,0,0,1-.3.3H60.18a.3.3,0,0,1-.31-.3v-6a.31.31,0,0,1,.31-.31h5.38a.3.3,0,0,1,.3.31Zm0-13.77a.3.3,0,0,1-.3.31H60.18a.31.31,0,0,1-.31-.31v-6a.31.31,0,0,1,.31-.31h5.38a.3.3,0,0,1,.3.31Zm0-13.77a.3.3,0,0,1-.3.31H60.18a.31.31,0,0,1-.31-.31v-6a.31.31,0,0,1,.31-.31h5.38a.3.3,0,0,1,.3.31Zm0-13.76a.3.3,0,0,1-.3.31H60.18a.31.31,0,0,1-.31-.31v-6a.3.3,0,0,1,.31-.3h5.38a.29.29,0,0,1,.3.3Zm0-13.77a.3.3,0,0,1-.3.31H60.18a.31.31,0,0,1-.31-.31v-6a.31.31,0,0,1,.31-.31h5.38a.3.3,0,0,1,.3.31Zm10.55,55.07a.3.3,0,0,1-.31.3H70.73a.3.3,0,0,1-.31-.3v-6a.31.31,0,0,1,.31-.31H76.1a.31.31,0,0,1,.31.31Zm0-13.77a.31.31,0,0,1-.31.31H70.73a.31.31,0,0,1-.31-.31v-6a.3.3,0,0,1,.31-.31H76.1a.31.31,0,0,1,.31.31Zm0-13.77a.31.31,0,0,1-.31.31H70.73a.31.31,0,0,1-.31-.31v-6a.31.31,0,0,1,.31-.31H76.1a.31.31,0,0,1,.31.31Zm0-13.76a.31.31,0,0,1-.31.31H70.73a.31.31,0,0,1-.31-.31v-6a.3.3,0,0,1,.31-.3H76.1a.3.3,0,0,1,.31.3Zm0-13.77a.31.31,0,0,1-.31.31H70.73a.31.31,0,0,1-.31-.31v-6a.31.31,0,0,1,.31-.31H76.1a.31.31,0,0,1,.31.31Z"/>
        <rect class="cls-2" x="111.08" y="111.99" width="25.13" height="5.8" rx="0.48" ry="0.48"/>
        <path class="cls-2" d="M108.21,78.64a.6.6,0,0,0-.59-.45.57.57,0,0,0-.33.11l0,0-.2.25L84,107.87l-.11.14a.7.7,0,0,0-.2.46v36a.57.57,0,0,0,.58.57H107.7a.57.57,0,0,0,.57-.57V78.88A.48.48,0,0,0,108.21,78.64Zm-9.72,15.9.17-.2c1.58-2,4.24-5.31,5.54-6.9l.17-.2a.67.67,0,0,1,.52-.25.66.66,0,0,1,.64.54v7.41a.67.67,0,0,1-.64.66H99a.67.67,0,0,1-.64-.66A.68.68,0,0,1,98.49,94.54Zm-3.65,41a.58.58,0,0,1-.57.58h-7a.58.58,0,0,1-.57-.58v-4.38a.57.57,0,0,1,.57-.57h7a.57.57,0,0,1,.57.57Zm0-8.1a.58.58,0,0,1-.57.58h-7a.58.58,0,0,1-.57-.58v-4.38a.57.57,0,0,1,.57-.57h7a.57.57,0,0,1,.57.57Zm0-8.09a.58.58,0,0,1-.57.57h-7a.58.58,0,0,1-.57-.57V115a.57.57,0,0,1,.57-.57h7a.57.57,0,0,1,.57.57Zm0-17.75v9.66a.58.58,0,0,1-.57.57h-7a.58.58,0,0,1-.58-.57v-1.22a.65.65,0,0,1,0-.21.25.25,0,0,1,0-.07.35.35,0,0,1,0-.08l.06-.09c.9-1.28,4.94-6.26,6.63-8.34l.17-.2a.69.69,0,0,1,.52-.25.66.66,0,0,1,.64.54Zm10.68,33.94a.58.58,0,0,1-.57.58H98a.58.58,0,0,1-.58-.58v-4.38a.57.57,0,0,1,.58-.57h7a.57.57,0,0,1,.57.57Zm0-8.1a.58.58,0,0,1-.57.58H98a.58.58,0,0,1-.58-.58v-4.38a.57.57,0,0,1,.58-.57h7a.57.57,0,0,1,.57.57Zm0-8.09a.58.58,0,0,1-.57.57H98a.58.58,0,0,1-.58-.57V115a.57.57,0,0,1,.58-.57h7a.57.57,0,0,1,.57.57Zm0-8.1a.58.58,0,0,1-.57.57H98a.58.58,0,0,1-.58-.57v-4.39a.58.58,0,0,1,.58-.57h7a.58.58,0,0,1,.57.57Zm0-8.1a.57.57,0,0,1-.57.57H98a.57.57,0,0,1-.58-.57V98.79a.57.57,0,0,1,.58-.58h7a.57.57,0,0,1,.57.58Z"/>
      </g>
      <g>
        <path class="cls-2" d="M43.21,13.47h3.2c2.21,0,3,1,3,2.89V17.7A1.92,1.92,0,0,1,48,19.79,2,2,0,0,1,49.69,22v1.75c0,1.86-.84,2.89-3,2.89H43.21ZM45.42,19h.77A.93.93,0,0,0,47.24,18V16.34a.93.93,0,0,0-1.07-1.07h-.75Zm0,1.68v4.12h1a1,1,0,0,0,1.08-1.07v-2c0-.7-.33-1.07-1.1-1.07Z"/>
        <path class="cls-2" d="M50.11,26.62l3.36-13.15H60.1v1.8H57V19h2.19v1.78H57v4H60.1v1.8H54.83V24.21H52.77l-.56,2.41Zm3.07-4.17h1.65V15.51h0Z"/>
        <path class="cls-2" d="M63.22,20.59v6H61V13.47h3.22c2.23,0,3,1.11,3,3V18.1c0,1.42-.5,2.25-1.76,2.55l2.11,6H65.3Zm0-5.32v4.1H64A1,1,0,0,0,65,18.28V16.34c0-.72-.33-1.07-1.08-1.07Z"/>
        <path class="cls-2" d="M68.36,13.47h5.27v1.8H70.57V19h2.19v1.78H70.57v4h3.06v1.8H68.36Z"/>
        <path class="cls-2" d="M81.14,17v6.09c0,2-.83,3.53-3.2,3.53H74.53V13.47h3.41C80.31,13.47,81.14,15,81.14,17Zm-3.47,7.82c.91,0,1.26-.55,1.26-1.34V16.59a1.16,1.16,0,0,0-1.26-1.32h-.93v9.55Z"/>
        <path class="cls-2" d="M86.22,21.62v5H84v-5l-2.47-8.15h2.31l1.34,5h0l1.34-5h2.11Z"/>
        <path class="cls-2" d="M92.42,19.6h3.14v7H94V25.18a2,2,0,0,1-2.12,1.59c-1.9,0-2.77-1.51-2.77-3.55V16.86c0-2,1-3.55,3.32-3.55s3.16,1.36,3.16,3.3v1.17h-2V16.44c0-.82-.31-1.28-1.1-1.28s-1.15.56-1.15,1.35v7.06c0,.8.33,1.36,1.09,1.36s1.08-.41,1.08-1.26V21.34h-1Z"/>
        <path class="cls-2" d="M96.33,13.47h5.88v1.8h-1.83V26.62H98.15V15.27H96.33Z"/>
        <path class="cls-2" d="M103,13.47h2.21V26.62H103Z"/>
        <path class="cls-2" d="M109.55,19.6h3.15v7h-1.6V25.18A2,2,0,0,1,109,26.77c-1.9,0-2.77-1.51-2.77-3.55V16.86c0-2,1-3.55,3.31-3.55s3.17,1.36,3.17,3.3v1.17h-2V16.44c0-.82-.31-1.28-1.11-1.28s-1.14.56-1.14,1.35v7.06c0,.8.33,1.36,1.08,1.36s1.09-.41,1.09-1.26V21.34h-1Z"/>
        <path class="cls-2" d="M113.7,13.47H119v1.8h-3.06V19h2.19v1.78h-2.19v4H119v1.8H113.7Z"/>
        <path class="cls-2" d="M123.36,13.47h3.2c2.21,0,2.94,1,2.94,2.89V17.7a1.91,1.91,0,0,1-1.31,2.09A2,2,0,0,1,129.83,22v1.75c0,1.86-.83,2.89-3,2.89h-3.43ZM125.57,19h.77a.93.93,0,0,0,1-1.07V16.34a.93.93,0,0,0-1.07-1.07h-.75Zm0,1.68v4.12h1a1,1,0,0,0,1.08-1.07v-2c0-.7-.33-1.07-1.1-1.07Z"/>
        <path class="cls-2" d="M134.74,21.62v5h-2.21v-5l-2.46-8.15h2.31l1.33,5h0l1.34-5h2.12Z"/>
        <path class="cls-2" d="M137.94,13.47h5.28v1.8h-3.07V19h2.19v1.78h-2.19v4h3.07v1.8h-5.28Z"/>
        <path class="cls-2" d="M146.32,20.59v6h-2.21V13.47h3.22c2.23,0,3,1.11,3,3V18.1c0,1.42-.5,2.25-1.76,2.55l2.11,6H148.4Zm0-5.32v4.1h.74a1,1,0,0,0,1.08-1.09V16.34c0-.72-.33-1.07-1.08-1.07Z"/>
        <path class="cls-2" d="M43.21,42.72V36.36c0-2,1-3.55,3.33-3.55s3.36,1.5,3.36,3.55v6.36c0,2-1,3.55-3.36,3.55S43.21,44.76,43.21,42.72Zm4.48.35V36c0-.79-.35-1.35-1.15-1.35s-1.12.56-1.12,1.35v7.06c0,.8.35,1.36,1.12,1.36S47.69,43.87,47.69,43.07Z"/>
        <path class="cls-2" d="M54.17,39.1h3.14v7H55.72V44.68a2,2,0,0,1-2.11,1.59c-1.9,0-2.78-1.51-2.78-3.55V36.36c0-2,1-3.55,3.32-3.55s3.16,1.36,3.16,3.3v1.17h-2V35.94c0-.82-.31-1.28-1.11-1.28s-1.14.56-1.14,1.35v7.06c0,.8.33,1.36,1.08,1.36s1.09-.41,1.09-1.26V40.84h-1Z"/>
        <path class="cls-2" d="M61.78,33H64V44.32h2.63v1.8H61.78Z"/>
        <path class="cls-2" d="M67.34,42.72V36.36c0-2,1-3.55,3.34-3.55S74,34.31,74,36.36v6.36c0,2-1,3.55-3.36,3.55S67.34,44.76,67.34,42.72Zm4.48.35V36c0-.79-.34-1.35-1.14-1.35s-1.13.56-1.13,1.35v7.06c0,.8.35,1.36,1.13,1.36S71.82,43.87,71.82,43.07Z"/>
        <path class="cls-2" d="M77.23,39.72v6.4H75V33h2.21v5.78L79.63,33H81.8l-2.55,5.92,2.61,7.23H79.54Z"/>
        <path class="cls-2" d="M82.42,46.12,84.9,33h2.52l2.5,13.15H87.65l-.4-2.41H84.9l-.39,2.41ZM85.19,42H87l-.87-5.28h0Z"/>
        <path class="cls-2" d="M90.69,33H92.9V44.32h2.63v1.8H90.69Z"/>
        <path class="cls-2" d="M96.25,43.29V41.52h2v1.81c0,.73.33,1.16,1.09,1.16s1-.47,1-1.16v-.51a2.38,2.38,0,0,0-1-1.86l-1.3-1.3c-1.26-1.24-1.84-2-1.84-3.51V35.7c0-1.62,1-2.89,3.1-2.89s3.09,1.09,3.09,3v1.07h-2V35.72c0-.75-.35-1.12-1-1.12a1,1,0,0,0-1,1.08V36c0,.73.41,1.16,1,1.78l1.42,1.4c1.2,1.22,1.78,2,1.78,3.41v.64c0,1.8-1,3.08-3.22,3.08S96.25,45,96.25,43.29Z"/>
        <path class="cls-2" d="M103.11,46.12,105.59,33h2.53l2.5,13.15h-2.27l-.41-2.41h-2.35l-.38,2.41ZM105.88,42h1.77l-.87-5.28h0Z"/>
        <path class="cls-2" d="M117.47,37.59h-.06l-1.49,8.53h-1l-1.65-8.53h0v8.53h-1.82V33H114l1.44,7.41h0L116.7,33h2.79V46.12h-2Z"/>
        <path class="cls-2" d="M120.51,33h5.18v1.8h-3v3.77h2.22v1.78h-2.22v5.8h-2.21Z"/>
        <path class="cls-2" d="M132.9,33v10c0,2-.87,3.35-3.12,3.35s-3.3-1.31-3.3-3.35V33h2.22V43.13c0,.78.31,1.3,1.08,1.3s1.09-.52,1.09-1.3V33Z"/>
        <path class="cls-2" d="M135.77,37.86v8.26h-1.86V33h2.17l2.39,7.54V33h1.84V46.12h-1.94Z"/>
        <path class="cls-2" d="M147.94,36.5v6.09c0,2-.83,3.53-3.2,3.53h-3.41V33h3.41C147.11,33,147.94,34.46,147.94,36.5Zm-3.47,7.82c.91,0,1.26-.55,1.26-1.34V36.09a1.16,1.16,0,0,0-1.26-1.32h-.93v9.55Z"/>
      </g>
    </g>
  </g>
</svg>
