<svg xmlns="http://www.w3.org/2000/svg" viewBox="0 0 160.92 160.93">
  <defs>
    <style>
      .cls-1 {
        fill: #ff3a21;
      }

      .cls-2 {
        fill: #fff;
      }
    </style>
  </defs>
  <title>Artboard 60</title>
  <g id="Layer_1" data-name="Layer 1">
    <g>
      <rect class="cls-1" x="-0.01" width="160.92" height="160.93"/>
      <path class="cls-2" d="M25.65,23.76c-2.15,0-3.73.76-4.59,2.25h0V17.92h9.38V13.47H16V31.75h5V31c0-1.91.86-3,2.39-3,1.68,0,2.35,1.15,2.35,2.92v7.84c0,1.73-.63,2.92-2.3,2.92-1.87,0-2.54-1.24-2.54-3.15V34.53h-5v3.68c0,4.93,2,8.09,7.52,8.09s7.75-2.92,7.75-7.42V30.94c0-5.12-2.63-7.18-5.55-7.18"/>
      <g>
        <path class="cls-2" d="M117.2,60.89h-20a.26.26,0,0,0-.25.26v6.64a.26.26,0,0,0,.25.26h8l-8.85,8.84a26.18,26.18,0,1,0-19.53,46.57v7.66H68.9a.26.26,0,0,0-.25.26v7.12a.25.25,0,0,0,.25.25h7.89v7.54a.26.26,0,0,0,.26.25h7.12a.25.25,0,0,0,.25-.25v-7.54h7.89a.26.26,0,0,0,.26-.25v-7.12a.26.26,0,0,0-.26-.26H84.42v-7.78a26.16,26.16,0,0,0,17.16-40.91l8.72-8.72v7.44a.26.26,0,0,0,.26.25h6.64a.25.25,0,0,0,.26-.25v-20a.26.26,0,0,0-.26-.26m-37,55.89A19.29,19.29,0,1,1,99.46,97.5a19.3,19.3,0,0,1-19.29,19.28"/>
        <path class="cls-2" d="M92,89.58H68.56a.24.24,0,0,0-.25.23v5.66a.24.24,0,0,0,.25.23H92a.24.24,0,0,0,.26-.23V89.81a.24.24,0,0,0-.26-.23"/>
        <path class="cls-2" d="M92,99.69H68.56a.25.25,0,0,0-.25.24v5.66a.24.24,0,0,0,.25.23H92a.25.25,0,0,0,.26-.23V99.93a.25.25,0,0,0-.26-.24"/>
      </g>
      <g>
        <path class="cls-2" d="M47.92,13.33h2.21V24.68h2.64v1.8H47.92Z"/>
        <path class="cls-2" d="M53.57,13.33h2.21V26.48H53.57Z"/>
        <path class="cls-2" d="M60.09,19.46h3.14v7H61.64V25.05a2,2,0,0,1-2.11,1.59c-1.9,0-2.77-1.52-2.77-3.55V16.73c0-2.06,1-3.55,3.31-3.55s3.16,1.35,3.16,3.29v1.17h-2V16.3c0-.82-.31-1.28-1.11-1.28S59,15.58,59,16.38v7.06c0,.79.33,1.35,1.08,1.35s1.09-.4,1.09-1.26V21.21h-1Z"/>
        <path class="cls-2" d="M64.23,13.33h5.28v1.81H66.45V18.9h2.19v1.78H66.45v4h3.06v1.8H64.23Z"/>
        <path class="cls-2" d="M70.32,23.65V21.88h2.05v1.81c0,.74.33,1.16,1.09,1.16s1-.46,1-1.16v-.51a2.38,2.38,0,0,0-1-1.86L72.18,20c-1.26-1.24-1.84-2-1.84-3.51v-.44c0-1.63,1-2.89,3.1-2.89s3.08,1.08,3.08,3v1.07h-2V16.09c0-.76-.35-1.13-1.05-1.13a1,1,0,0,0-1,1.09v.27c0,.74.41,1.16,1,1.78l1.41,1.4c1.21,1.22,1.79,2,1.79,3.41v.64c0,1.81-1,3.09-3.22,3.09S70.32,25.38,70.32,23.65Z"/>
        <path class="cls-2" d="M77.33,13.33h5.88v1.81H81.39V26.48H79.16V15.14H77.33Z"/>
        <path class="cls-2" d="M84,13.33h2.21V26.48H84Z"/>
        <path class="cls-2" d="M87.24,13.33h2.21V24.68h2.64v1.8H87.24Z"/>
        <path class="cls-2" d="M92.89,13.33H95.1V24.68h2.64v1.8H92.89Z"/>
        <path class="cls-2" d="M98.54,13.33h2.21V26.48H98.54Z"/>
        <path class="cls-2" d="M103.62,18.22v8.26h-1.86V13.33h2.17l2.38,7.55V13.33h1.85V26.48h-1.94Z"/>
        <path class="cls-2" d="M112.48,19.46h3.14v7H114V25.05a2,2,0,0,1-2.11,1.59c-1.9,0-2.78-1.52-2.78-3.55V16.73c0-2.06,1-3.55,3.32-3.55s3.16,1.35,3.16,3.29v1.17h-2V16.3c0-.82-.31-1.28-1.1-1.28s-1.15.56-1.15,1.36v7.06c0,.79.33,1.35,1.09,1.35s1.09-.4,1.09-1.26V21.21h-1Z"/>
        <path class="cls-2" d="M54,37.45H54L52.46,46h-1l-1.65-8.53h0V46H47.92V32.83H50.5l1.43,7.41h0l1.28-7.41H56V46H54Z"/>
        <path class="cls-2" d="M57.05,32.83h5.28v1.81H59.26V38.4h2.19v1.78H59.26v4h3.07V46H57.05Z"/>
        <path class="cls-2" d="M63.22,32.83h2.21V44.18h2.64V46H63.22Z"/>
        <path class="cls-2" d="M68.87,32.83h2.21V44.18h2.64V46H68.87Z"/>
        <path class="cls-2" d="M74.52,32.83h5.27v1.81H76.73V38.4h2.19v1.78H76.73v4h3.06V46H74.52Z"/>
        <path class="cls-2" d="M86.78,37.45h-.06L85.23,46h-1l-1.65-8.53h0V46H80.69V32.83h2.58l1.43,7.41h0L86,32.83h2.79V46h-2Z"/>
        <path class="cls-2" d="M95.47,39.58V46H93.26V32.83h2.21v5.78l2.4-5.78h2.18l-2.56,5.92L100.1,46H97.78Z"/>
        <path class="cls-2" d="M102.06,45.57l-.31.76h-1l.6-1.45a4.15,4.15,0,0,1-.6-2.29V36.23c0-2.06,1-3.55,3.34-3.55a3.55,3.55,0,0,1,2.09.58l.31-.76h.95l-.6,1.44a4,4,0,0,1,.6,2.29v6.36c0,2-1,3.55-3.35,3.55A3.51,3.51,0,0,1,102.06,45.57Zm.87-4.38,2.39-5.74a1.13,1.13,0,0,0-1.18-1,1.2,1.2,0,0,0-1.21,1.36Zm2.43,1.8V37.64L103,43.4a1.12,1.12,0,0,0,1.17,1A1.2,1.2,0,0,0,105.36,43Z"/>
        <path class="cls-2" d="M110.35,37.72V46h-1.87V32.83h2.18L113,40.38V32.83h1.84V46h-1.94Z"/>
        <path class="cls-2" d="M117.76,37.72V46H115.9V32.83h2.17l2.39,7.55V32.83h1.84V46h-1.94Z"/>
        <path class="cls-2" d="M123.32,32.83h5.27v1.81h-3.06V38.4h2.19v1.78h-2.19v4h3.06V46h-5.27Z"/>
        <path class="cls-2" d="M131.35,37.72V46h-1.86V32.83h2.17L134,40.38V32.83h1.85V46H134Z"/>
        <path class="cls-2" d="M136.9,32.83h5.28v1.81h-3.07V38.4h2.19v1.78h-2.19v4h3.07V46H136.9Z"/>
      </g>
    </g>
  </g>
</svg>
