<svg xmlns="http://www.w3.org/2000/svg" viewBox="0 0 160.92 160.93">
  <defs>
    <style>
      .cls-1 {
        fill: #dd1367;
      }

      .cls-2 {
        fill: #fff;
      }
    </style>
  </defs>
  <title>Artboard 65</title>
  <g id="Layer_1" data-name="Layer 1">
    <g>
      <g>
        <rect class="cls-1" width="160.92" height="160.93"/>
        <polygon class="cls-2" points="15.53 21.09 15.53 45.95 20.99 45.95 20.99 13.47 16.63 13.47 11.6 19.36 11.6 25.06 11.64 25.06 15.48 21.09 15.53 21.09"/>
        <path class="cls-2" d="M40.91,37.57V21.85c0-5.08-2.53-8.76-8.09-8.76s-8,3.68-8,8.76V37.57c0,5,2.54,8.76,8.05,8.76s8.09-3.74,8.09-8.76m-10.68.86V21c0-2,.72-3.35,2.59-3.35S35.45,19,35.45,21V38.43c0,2-.72,3.35-2.63,3.35s-2.59-1.39-2.59-3.35"/>
        <g>
          <path class="cls-2" d="M58.29,18.09h0l-1.5,8.53h-1l-1.64-8.53h0v8.53H52.2V13.47h2.58l1.44,7.41h0l1.28-7.41h2.79V26.62h-2Z"/>
          <path class="cls-2" d="M61.34,13.47h2.21V26.62H61.34Z"/>
          <path class="cls-2" d="M66.41,18.36v8.26H64.55V13.47h2.17L69.11,21V13.47H71V26.62H69Z"/>
          <path class="cls-2" d="M78.58,17v6.09c0,2-.83,3.53-3.2,3.53H72V13.47h3.41C77.75,13.47,78.58,15,78.58,17Zm-3.47,7.82c.91,0,1.26-.55,1.26-1.34V16.59a1.16,1.16,0,0,0-1.26-1.32h-.93v9.55Z"/>
          <path class="cls-2" d="M81.77,20.59v6H79.56V13.47h3.22c2.23,0,3,1.11,3,3V18.1c0,1.42-.51,2.25-1.77,2.55l2.12,6H83.85Zm0-5.32v4.1h.74a1,1,0,0,0,1.09-1.09V16.34c0-.72-.33-1.07-1.09-1.07Z"/>
          <path class="cls-2" d="M86.91,13.47h5.28v1.8H89.12V19h2.19v1.78H89.12v4h3.07v1.8H86.91Z"/>
          <path class="cls-2" d="M58.62,33v10c0,2-.87,3.35-3.12,3.35S52.2,45,52.2,42.92V33h2.21V43.13c0,.78.31,1.3,1.09,1.3s1.09-.52,1.09-1.3V33Z"/>
          <path class="cls-2" d="M59.63,33h2.21V44.32h2.64v1.8H59.63Z"/>
          <path class="cls-2" d="M65.28,33h2.21V46.12H65.28Z"/>
          <path class="cls-2" d="M71.8,39.1H75v7H73.36V44.68a2,2,0,0,1-2.12,1.59c-1.9,0-2.77-1.51-2.77-3.54V36.36c0-2,1-3.55,3.31-3.55S75,34.17,75,36.11v1.17h-2V35.94c0-.82-.31-1.28-1.11-1.28s-1.14.56-1.14,1.35v7.06c0,.8.33,1.36,1.09,1.36s1.08-.41,1.08-1.26V40.84h-1Z"/>
          <path class="cls-2" d="M80.29,40.32H78.16v5.8H76V33h2.21v5.57h2.13V33h2.23V46.12H80.29Z"/>
          <path class="cls-2" d="M83.54,33h5.27v1.8H85.75v3.77h2.19v1.78H85.75v4h3.06v1.8H83.54Z"/>
          <path class="cls-2" d="M96.32,36.5v6.09c0,2-.83,3.53-3.2,3.53H89.71V33h3.41C95.49,33,96.32,34.46,96.32,36.5Zm-3.47,7.82c.91,0,1.26-.55,1.26-1.34V36.09a1.16,1.16,0,0,0-1.26-1.32h-.93v9.55Z"/>
        </g>
      </g>
      <g>
        <g>
          <path class="cls-2" d="M95.31,105.82H65.6a.34.34,0,0,0-.32.36v8.93a.34.34,0,0,0,.32.36H95.31a.34.34,0,0,0,.33-.36v-8.93a.34.34,0,0,0-.33-.36"/>
          <path class="cls-2" d="M95.31,86.82H65.6a.34.34,0,0,0-.32.36v8.93a.34.34,0,0,0,.32.36H95.31a.34.34,0,0,0,.33-.36V87.18a.34.34,0,0,0-.33-.36"/>
        </g>
        <g>
          <path class="cls-2" d="M94.89,73.32,80.63,59.06a.24.24,0,0,0-.35,0L66,73.32a.25.25,0,0,0,.18.42H94.72A.24.24,0,0,0,94.89,73.32Z"/>
          <path class="cls-2" d="M108.28,115.58l14.27-14.26a.26.26,0,0,0,0-.35L108.28,86.71a.24.24,0,0,0-.42.17v28.53A.24.24,0,0,0,108.28,115.58Z"/>
          <path class="cls-2" d="M66,129l14.26,14.26a.24.24,0,0,0,.35,0L94.89,129a.24.24,0,0,0-.17-.42H66.2A.25.25,0,0,0,66,129Z"/>
          <path class="cls-2" d="M52.63,86.71,38.37,101a.26.26,0,0,0,0,.35l14.26,14.26a.25.25,0,0,0,.43-.17V86.88A.25.25,0,0,0,52.63,86.71Z"/>
        </g>
      </g>
    </g>
  </g>
</svg>
