<svg xmlns="http://www.w3.org/2000/svg" viewBox="0 0 160.92 160.93">
  <defs>
    <style>
      .cls-1 {
        fill: #fff;
      }

      .cls-2 {
        fill: #00689d;
      }
    </style>
  </defs>
  <title>Artboard 71</title>
  <g id="Layer_1" data-name="Layer 1">
    <g>
      <polygon class="cls-1" points="12.38 19.39 12.38 25.08 12.43 25.08 16.26 21.11 16.31 21.11 16.31 45.95 21.76 45.95 21.76 13.5 17.41 13.5 12.38 19.39"/>
      <path class="cls-1" d="M40.86,38.15V33.36c0-5.31-2.11-8-6-8A4.66,4.66,0,0,0,30.33,28h0V21c0-2,.62-3.35,2.59-3.35s2.53,1.15,2.53,3.16V23h5V21.25c0-4.78-1.58-8.13-7.61-8.13-5.74,0-7.9,3.68-7.9,8.76V37.67c0,5,2.21,8.66,8,8.66s8-3.16,8-8.18m-5.41.47c0,2.06-.77,3.26-2.63,3.26s-2.54-1.25-2.54-3.26V32.69c.1-1.82.86-3,2.59-3s2.58,1.15,2.58,3.26Z"/>
      <g>
        <path class="cls-1" d="M112.63,54.87s-1.85,2.46-1.32,4.86,3.28,3.83,3.28,3.83,1.86-2.46,1.32-4.86-3.28-3.83-3.28-3.83"/>
        <path class="cls-1" d="M109.61,68.94s1.85-2.47,1.31-4.87-3.28-3.82-3.28-3.82-1.85,2.46-1.31,4.86,3.28,3.83,3.28,3.83"/>
        <path class="cls-1" d="M117.23,66.3s2,2,4.19,1.78,3.88-2.5,3.88-2.5-2-2-4.18-1.77-3.89,2.49-3.89,2.49"/>
        <path class="cls-1" d="M120.44,55.75c-1.82,1.84-1.56,5.1-1.56,5.1s3.2.28,5-1.56,1.56-5.1,1.56-5.1-3.2-.28-5,1.56"/>
        <path class="cls-1" d="M116.44,73.62c2.22.27,4.31-1.64,4.31-1.64s-1.52-2.34-3.74-2.6S112.7,71,112.7,71s1.51,2.33,3.74,2.59"/>
        <path class="cls-1" d="M118.42,112.24H101.81a2.35,2.35,0,1,0,0,4.7h16.61a2.35,2.35,0,1,0,0-4.7"/>
        <path class="cls-1" d="M118.42,138.14H101.81a2.35,2.35,0,1,0,0,4.7h16.61a2.35,2.35,0,0,0,0-4.7"/>
        <path class="cls-1" d="M43.71,106.53a11,11,0,0,0-1.16-.3s.43.13,1.16.3"/>
        <path class="cls-1" d="M117.81,118.58h-15.4a1.34,1.34,0,0,0-1.33,1.33v4.67l-10,1.1-14.69-.34v-9a40.19,40.19,0,0,0,5.85-1.19c14.13-4,17.21-15.67,16.9-23.75-.3-8.24,2.33-11.44,6.12-12.86a17.78,17.78,0,0,1,3.13-.83,25.76,25.76,0,0,0,1.36,7.18c.34,0,.67-.05,1-.09a23.84,23.84,0,0,1-1.38-7.23,17.67,17.67,0,0,1,3.35-.1,21.49,21.49,0,0,1-3.19-2.27c.64-3.9,3-6.3,5.35-8.74a28.54,28.54,0,0,0,3.75-4.4l-.84-.54a27.29,27.29,0,0,1-3.62,4.24c-2.33,2.39-4.69,4.83-5.49,8.7a29.46,29.46,0,0,1-2.42-2.44c-3.48-3.9-8-1-14.37,4.92S77.39,83.14,69.53,75.1c-10.37-10.62-19.41-10.56-25.62-10C48.16,67,49.64,70.92,51.79,81,54,91.57,59.72,96.36,67.48,97c-4.32,1.53-4.53,4-10.32,8-4.52,3.12-10.88,2.14-13.45,1.55C48.44,108,54,113,59.06,114.7a37.38,37.38,0,0,0,9.15,1.87v8.59l-26.3-.6v6L91,129.42l10,1.11v4.66a1.34,1.34,0,0,0,1.33,1.34h15.4a1.35,1.35,0,0,0,1.34-1.34V119.91A1.34,1.34,0,0,0,117.81,118.58ZM70.63,116.7c1.1,0,2.19,0,3.29-.09v8.68l-3.29-.08Z"/>
        <path class="cls-1" d="M40.47,129.56a2.14,2.14,0,0,1-2,2.28H37.32a2.15,2.15,0,0,1-2-2.28v-4.14a2.15,2.15,0,0,1,2-2.29H38.5a2.14,2.14,0,0,1,2,2.29Z"/>
      </g>
      <rect class="cls-2" width="160.92" height="160.93"/>
      <polygon class="cls-1" points="12.38 19.39 12.38 25.08 12.43 25.08 16.26 21.11 16.31 21.11 16.31 45.95 21.76 45.95 21.76 13.5 17.41 13.5 12.38 19.39"/>
      <path class="cls-1" d="M40.86,38.15V33.36c0-5.31-2.11-8-6-8A4.66,4.66,0,0,0,30.33,28h0V21c0-2,.62-3.35,2.59-3.35s2.53,1.15,2.53,3.16V23h5V21.25c0-4.78-1.58-8.13-7.61-8.13-5.74,0-7.9,3.68-7.9,8.76V37.67c0,5,2.21,8.66,8,8.66s8-3.16,8-8.18m-5.41.47c0,2.06-.77,3.26-2.63,3.26s-2.54-1.25-2.54-3.26V32.69c.1-1.82.86-3,2.59-3s2.58,1.15,2.58,3.26Z"/>
      <g>
        <path class="cls-1" d="M112.63,54.87s-1.85,2.46-1.32,4.86,3.28,3.83,3.28,3.83,1.86-2.46,1.32-4.86-3.28-3.83-3.28-3.83"/>
        <path class="cls-1" d="M109.61,68.94s1.85-2.47,1.31-4.87-3.28-3.82-3.28-3.82-1.85,2.46-1.31,4.86,3.28,3.83,3.28,3.83"/>
        <path class="cls-1" d="M117.23,66.3s2,2,4.19,1.78,3.88-2.5,3.88-2.5-2-2-4.18-1.77-3.89,2.49-3.89,2.49"/>
        <path class="cls-1" d="M120.44,55.75c-1.81,1.84-1.56,5.1-1.56,5.1s3.2.28,5-1.56,1.56-5.1,1.56-5.1-3.2-.28-5,1.56"/>
        <path class="cls-1" d="M116.44,73.62c2.22.27,4.31-1.64,4.31-1.64s-1.52-2.34-3.74-2.6S112.7,71,112.7,71s1.51,2.33,3.74,2.59"/>
        <path class="cls-1" d="M118.42,112.24H101.81a2.35,2.35,0,1,0,0,4.7h16.61a2.35,2.35,0,1,0,0-4.7"/>
        <path class="cls-1" d="M118.42,138.14H101.81a2.35,2.35,0,1,0,0,4.7h16.61a2.35,2.35,0,0,0,0-4.7"/>
        <path class="cls-1" d="M43.71,106.53a11,11,0,0,0-1.16-.3s.43.13,1.16.3"/>
        <path class="cls-1" d="M117.81,118.58h-15.4a1.34,1.34,0,0,0-1.33,1.33v4.67l-10,1.1-14.69-.34v-9a40.19,40.19,0,0,0,5.85-1.19c14.13-4,17.21-15.67,16.9-23.75-.3-8.24,2.33-11.44,6.12-12.86a17.78,17.78,0,0,1,3.13-.83,25.76,25.76,0,0,0,1.36,7.18c.34,0,.67-.05,1-.09a23.84,23.84,0,0,1-1.38-7.23,17.67,17.67,0,0,1,3.35-.1,21.49,21.49,0,0,1-3.19-2.27c.64-3.9,3-6.3,5.35-8.74a28.54,28.54,0,0,0,3.75-4.4l-.84-.54a27.29,27.29,0,0,1-3.62,4.24c-2.33,2.39-4.69,4.83-5.49,8.7a29.46,29.46,0,0,1-2.42-2.44c-3.48-3.9-8-1-14.37,4.92S77.39,83.14,69.53,75.1c-10.37-10.62-19.41-10.56-25.62-10C48.16,67,49.64,70.92,51.79,81,54,91.57,59.72,96.36,67.48,97c-4.32,1.53-4.53,4-10.32,8-4.52,3.12-10.88,2.14-13.45,1.55C48.44,108,54,113,59.06,114.7a37.38,37.38,0,0,0,9.15,1.87v8.59l-26.3-.6v6L91,129.42l10,1.11v4.66a1.34,1.34,0,0,0,1.33,1.34h15.4a1.35,1.35,0,0,0,1.34-1.34V119.91A1.34,1.34,0,0,0,117.81,118.58ZM70.63,116.7c1.1,0,2.19,0,3.29-.09v8.68l-3.29-.08Z"/>
        <path class="cls-1" d="M40.47,129.56a2.14,2.14,0,0,1-2,2.28H37.32a2.15,2.15,0,0,1-2-2.28v-4.14a2.15,2.15,0,0,1,2-2.29H38.5a2.14,2.14,0,0,1,2,2.29Z"/>
      </g>
      <g>
        <path class="cls-1" d="M47.7,13.61H52V15.1H49.53v3.11h1.82v1.47H49.53v4.79H47.7Z"/>
        <path class="cls-1" d="M54.38,19.49v5H52.56V13.61h2.65c1.84,0,2.52.92,2.52,2.44v1.39c0,1.17-.42,1.86-1.46,2.1L58,24.47H56.09Zm0-4.39v3.38H55a.8.8,0,0,0,.9-.9V16c0-.59-.28-.88-.9-.88Z"/>
        <path class="cls-1" d="M58.55,13.61H62.9V15.1H60.37v3.11h1.81v1.47H60.37V23H62.9v1.49H58.55Z"/>
        <path class="cls-1" d="M69,16.53v5c0,1.67-.69,2.92-2.64,2.92H63.57V13.61h2.82C68.34,13.61,69,14.85,69,16.53ZM66.16,23c.75,0,1-.45,1-1.11V16.19a1,1,0,0,0-1-1.09h-.77V23Z"/>
        <path class="cls-1" d="M71.49,22.86l-.93,2.45h-1l.22-2.59h1.73Z"/>
        <path class="cls-1" d="M75.39,19.49v5H73.57V13.61h2.65c1.85,0,2.52.92,2.52,2.44v1.39c0,1.17-.42,1.86-1.46,2.1L79,24.47H77.1Zm0-4.39v3.38H76a.8.8,0,0,0,.9-.9V16c0-.59-.28-.88-.9-.88Z"/>
        <path class="cls-1" d="M79.56,13.61h4.35V15.1H81.38v3.11h1.81v1.47H81.38V23h2.53v1.49H79.56Z"/>
        <path class="cls-1" d="M84.48,13.61h4.85V15.1H87.82v9.37H86V15.1h-1.5Z"/>
        <path class="cls-1" d="M89.93,13.61h4.28V15.1H91.76v3.11h1.82v1.47H91.76v4.79H89.93Z"/>
        <path class="cls-1" d="M93.71,24.47l2.77-10.86H102V15.1H99.42v3.11h1.81v1.47H99.42V23H102v1.49H97.6v-2H95.9l-.46,2ZM96.24,21H97.6V15.29h0Z"/>
        <path class="cls-1" d="M104.45,19.49v5h-1.82V13.61h2.66c1.84,0,2.51.92,2.51,2.44v1.39c0,1.17-.42,1.86-1.46,2.1l1.75,4.93h-1.92Zm0-4.39v3.38h.61a.79.79,0,0,0,.9-.9V16c0-.59-.27-.88-.9-.88Z"/>
        <path class="cls-1" d="M114.08,16.53v5c0,1.67-.69,2.92-2.64,2.92h-2.82V13.61h2.82C113.39,13.61,114.08,14.85,114.08,16.53ZM111.21,23c.75,0,1-.45,1-1.11V16.19a1,1,0,0,0-1-1.09h-.77V23Z"/>
        <path class="cls-1" d="M114.82,13.61h1.83V24.47h-1.83Z"/>
        <path class="cls-1" d="M120.14,18.67h2.59v5.8h-1.31V23.28a1.65,1.65,0,0,1-1.75,1.31c-1.57,0-2.29-1.25-2.29-2.93V16.41c0-1.69.82-2.93,2.74-2.93s2.61,1.13,2.61,2.73v1h-1.66V16.06c0-.67-.26-1-.92-1s-.94.46-.94,1.12V22c0,.66.27,1.12.89,1.12s.9-.33.9-1V20.11h-.86Z"/>
        <path class="cls-1" d="M127.07,19.68h-1.76v4.79h-1.83V13.61h1.83v4.6h1.76v-4.6h1.84V24.47h-1.84Z"/>
        <path class="cls-1" d="M129.67,13.61H134V15.1H131.5v3.11h1.81v1.47H131.5V23H134v1.49h-4.36Z"/>
        <path class="cls-1" d="M140.15,16.53v5c0,1.67-.68,2.92-2.64,2.92H134.7V13.61h2.81C139.47,13.61,140.15,14.85,140.15,16.53ZM137.29,23c.75,0,1-.45,1-1.11V16.19a1,1,0,0,0-1-1.09h-.77V23Z"/>
        <path class="cls-1" d="M143.59,21.66V16.41c0-1.69.83-2.93,2.76-2.93s2.77,1.24,2.77,2.93v5.25c0,1.68-.84,2.93-2.77,2.93S143.59,23.34,143.59,21.66Zm3.7.29V16.13c0-.66-.29-1.12-.94-1.12s-.93.46-.93,1.12V22c0,.66.29,1.12.93,1.12S147.29,22.61,147.29,22Z"/>
        <path class="cls-1" d="M152.57,18.67h2.59v5.8h-1.31V23.28a1.64,1.64,0,0,1-1.75,1.31c-1.57,0-2.29-1.25-2.29-2.93V16.41c0-1.69.82-2.93,2.74-2.93s2.61,1.13,2.61,2.73v1H153.5V16.06c0-.67-.26-1-.92-1s-.94.46-.94,1.12V22c0,.66.27,1.12.9,1.12s.89-.33.89-1V20.11h-.86Z"/>
        <path class="cls-1" d="M47.61,41.63V40.17H49.3v1.49c0,.61.27,1,.9,1s.83-.38.83-1v-.42a1.93,1.93,0,0,0-.82-1.53l-1.07-1.07c-1-1-1.52-1.65-1.52-2.9v-.37A2.27,2.27,0,0,1,50.18,33c1.83,0,2.55.9,2.55,2.47v.88H51.06v-.94c0-.63-.28-.93-.86-.93a.8.8,0,0,0-.87.89v.23c0,.61.34,1,.87,1.47l1.17,1.15c1,1,1.47,1.62,1.47,2.82v.53a2.35,2.35,0,0,1-2.66,2.54A2.26,2.26,0,0,1,47.61,41.63Z"/>
        <path class="cls-1" d="M53.33,33.11h4.85V34.6H56.67V44H54.83V34.6h-1.5Z"/>
        <path class="cls-1" d="M57.86,44l2.77-10.86H66.1V34.6H63.57v3.11h1.81v1.47H63.57v3.3H66.1V44H61.75V42h-1.7l-.47,2Zm2.53-3.45h1.36V34.79h0Z"/>
        <path class="cls-1" d="M68.6,39v5H66.78V33.11h2.65c1.84,0,2.52.92,2.52,2.44v1.39c0,1.17-.42,1.86-1.46,2.1L72.23,44H70.31Zm0-4.39V38h.61a.79.79,0,0,0,.89-.9v-1.6c0-.59-.27-.88-.89-.88Z"/>
        <path class="cls-1" d="M74.59,38.68V44H72.77V33.11h1.82v4.77l2-4.77h1.79L76.26,38l2.16,6H76.5Z"/>
        <path class="cls-1" d="M78.94,33.11H83.3V34.6H80.77v3.11h1.81v1.47H80.77v3.3H83.3V44H78.94Z"/>
        <path class="cls-1" d="M85.31,33.11h1.82V44H85.31Z"/>
        <path class="cls-1" d="M89.43,37.15V44H87.89V33.11h1.8l2,6.23V33.11h1.52V44h-1.6Z"/>
        <path class="cls-1" d="M93.83,41.63V40.17h1.69v1.49c0,.61.28,1,.9,1s.83-.38.83-1v-.42a2,2,0,0,0-.81-1.53l-1.08-1.07c-1-1-1.52-1.65-1.52-2.9v-.37A2.27,2.27,0,0,1,96.4,33c1.83,0,2.55.9,2.55,2.47v.88H97.29v-.94c0-.63-.29-.93-.87-.93a.8.8,0,0,0-.86.89v.23c0,.61.33,1,.86,1.47l1.17,1.15c1,1,1.47,1.62,1.47,2.82v.53a2.35,2.35,0,0,1-2.66,2.54A2.26,2.26,0,0,1,93.83,41.63Z"/>
        <path class="cls-1" d="M99.55,33.11h4.85V34.6h-1.51V44h-1.84V34.6h-1.5Z"/>
        <path class="cls-1" d="M105,33.11h1.83V44H105Z"/>
        <path class="cls-1" d="M107.42,33.11h4.85V34.6h-1.51V44h-1.84V34.6h-1.5Z"/>
        <path class="cls-1" d="M118.17,33.11v8.21c0,1.68-.72,2.77-2.58,2.77a2.45,2.45,0,0,1-2.72-2.77V33.11h1.82V41.5c0,.64.26,1.07.9,1.07s.9-.43.9-1.07V33.11Z"/>
        <path class="cls-1" d="M118.76,33.11h4.85V34.6h-1.5V44h-1.84V34.6h-1.51Z"/>
        <path class="cls-1" d="M124.22,33.11H126V44h-1.82Z"/>
        <path class="cls-1" d="M126.78,41.16V35.91c0-1.69.83-2.93,2.75-2.93s2.77,1.24,2.77,2.93v5.25c0,1.68-.83,2.93-2.77,2.93S126.78,42.84,126.78,41.16Zm3.7.29V35.63c0-.66-.29-1.12-.95-1.12s-.93.46-.93,1.12v5.82c0,.66.29,1.12.93,1.12S130.48,42.11,130.48,41.45Z"/>
        <path class="cls-1" d="M134.57,37.15V44H133V33.11h1.79l2,6.23V33.11h1.52V44h-1.6Z"/>
        <path class="cls-1" d="M139.09,33.11h4.35V34.6h-2.53v3.11h1.81v1.47h-1.81v3.3h2.53V44h-4.35Z"/>
        <path class="cls-1" d="M145.93,39v5h-1.82V33.11h2.65c1.85,0,2.52.92,2.52,2.44v1.39c0,1.17-.42,1.86-1.46,2.1L149.57,44h-1.93Zm0-4.39V38h.61a.8.8,0,0,0,.9-.9v-1.6c0-.59-.28-.88-.9-.88Z"/>
      </g>
    </g>
  </g>
</svg>
