<svg xmlns="http://www.w3.org/2000/svg" viewBox="0 0 160.92 160.93">
  <defs>
    <style>
      .cls-1 {
        fill: #fd6925;
      }

      .cls-2 {
        fill: #fff;
      }
    </style>
  </defs>
  <title>Artboard 64</title>
  <g id="Layer_1" data-name="Layer 1">
    <g>
      <rect class="cls-1" width="160.92" height="160.93"/>
      <path class="cls-2" d="M29.47,21.65c0-5-2.2-8.66-7.94-8.66s-8,3.16-8,8.18V26c0,5.31,2.1,8,6,8A4.66,4.66,0,0,0,24,31.31h.05v7c0,2-.77,3.35-2.73,3.35s-2.68-1.14-2.68-3.15V36.33h-5v1.73c0,4.78,1.72,8.13,7.75,8.13,5.73,0,8-3.69,8-8.76Zm-5.4,5c-.1,1.81-.86,3-2.59,3s-2.58-1.15-2.58-3.25V20.69c0-2.05.76-3.25,2.63-3.25s2.54,1.24,2.54,3.25Z"/>
      <path class="cls-2" d="M121.57,105.77l-19.13-11V72.65a1.3,1.3,0,0,0-.65-1.13L82,60.1a1.28,1.28,0,0,0-1.31,0L60.92,71.52a1.3,1.3,0,0,0-.65,1.13V94.73l-19.12,11a1.31,1.31,0,0,0-.66,1.13v22.84a1.32,1.32,0,0,0,.66,1.14l19.77,11.41a1.31,1.31,0,0,0,.66.18,1.28,1.28,0,0,0,.65-.18l19.13-11,19.12,11a1.28,1.28,0,0,0,.65.18,1.31,1.31,0,0,0,.66-.18l19.78-11.41a1.33,1.33,0,0,0,.65-1.14V106.9A1.31,1.31,0,0,0,121.57,105.77ZM80.05,127.48l-15.86-9.16,15.86-9.16Zm18.47-32-15.86,9.15V86.32Zm-18.47,9.15L64.19,95.49l15.86-9.17ZM84,106.9,101.13,97l17.18,9.91-17.18,9.92ZM99.83,93.23,84,84.06l15.86-9.15ZM78.75,84.06,62.88,93.23V74.91ZM60.27,138.9,43.1,129V109.16l17.17,9.92Zm2.61,0V120.58l15.87,9.16ZM119.61,129l-17.17,9.91V119.08l17.17-9.92Z"/>
      <g>
        <path class="cls-2" d="M37.68,13.47h2.21V26.62H37.68Z"/>
        <path class="cls-2" d="M42.75,18.36v8.26H40.89V13.47h2.17L45.45,21V13.47h1.84V26.62H45.35Z"/>
        <path class="cls-2" d="M54.92,17v6.09c0,2-.83,3.53-3.2,3.53H48.31V13.47h3.41C54.09,13.47,54.92,15,54.92,17Zm-3.47,7.82c.91,0,1.26-.55,1.26-1.34V16.59a1.16,1.16,0,0,0-1.26-1.32h-.93v9.55Z"/>
        <path class="cls-2" d="M62.31,13.47v10c0,2-.87,3.35-3.12,3.35s-3.3-1.31-3.3-3.35v-10H58.1V23.63c0,.78.31,1.3,1.09,1.3s1.09-.52,1.09-1.3V13.47Z"/>
        <path class="cls-2" d="M63.19,23.79V22h2.06v1.81c0,.73.33,1.16,1.08,1.16s1-.47,1-1.16v-.51a2.38,2.38,0,0,0-1-1.86l-1.3-1.3c-1.26-1.24-1.84-2-1.84-3.51V16.2c0-1.62.95-2.89,3.1-2.89s3.09,1.09,3.09,3v1.07h-2V16.22c0-.75-.35-1.12-1-1.12a1,1,0,0,0-1,1.08v.28c0,.73.4,1.16,1,1.78l1.42,1.4c1.2,1.22,1.78,2,1.78,3.41v.64c0,1.8-1,3.08-3.22,3.08S63.19,25.51,63.19,23.79Z"/>
        <path class="cls-2" d="M70.21,13.47h5.87v1.8H74.26V26.62H72V15.27H70.21Z"/>
        <path class="cls-2" d="M79.12,20.59v6H76.9V13.47h3.22c2.23,0,3,1.11,3,3V18.1c0,1.42-.5,2.25-1.77,2.55l2.12,6H81.19Zm0-5.32v4.1h.73a1,1,0,0,0,1.09-1.09V16.34c0-.72-.33-1.07-1.09-1.07Z"/>
        <path class="cls-2" d="M84.25,13.47h2.21V26.62H84.25Z"/>
        <path class="cls-2" d="M89.7,24.68l-1.13,3H87.33l.27-3.14h2.1Z"/>
        <path class="cls-2" d="M92.41,13.47h2.21V26.62H92.41Z"/>
        <path class="cls-2" d="M97.49,18.36v8.26H95.63V13.47H97.8L100.19,21V13.47H102V26.62h-1.94Z"/>
        <path class="cls-2" d="M104.91,18.36v8.26H103V13.47h2.18L107.6,21V13.47h1.85V26.62h-1.94Z"/>
        <path class="cls-2" d="M110.43,23.22V16.86c0-2,1-3.55,3.33-3.55s3.36,1.5,3.36,3.55v6.36c0,2-1,3.55-3.36,3.55S110.43,25.26,110.43,23.22Zm4.48.35V16.51c0-.79-.35-1.35-1.15-1.35s-1.12.56-1.12,1.35v7.06c0,.8.35,1.36,1.12,1.36S114.91,24.37,114.91,23.57Z"/>
        <path class="cls-2" d="M125.07,13.47l-2.51,13.15h-2.4l-2.5-13.15h2.25l1.51,9.17h0L123,13.47Z"/>
        <path class="cls-2" d="M124.53,26.62,127,13.47h2.53L132,26.62h-2.27l-.41-2.41H127l-.38,2.41Zm2.78-4.17h1.76l-.87-5.28h0Z"/>
        <path class="cls-2" d="M131.75,13.47h5.88v1.8h-1.82V26.62h-2.23V15.27h-1.83Z"/>
        <path class="cls-2" d="M138.45,13.47h2.21V26.62h-2.21Z"/>
        <path class="cls-2" d="M141.64,23.22V16.86c0-2,1-3.55,3.34-3.55s3.35,1.5,3.35,3.55v6.36c0,2-1,3.55-3.35,3.55S141.64,25.26,141.64,23.22Zm4.48.35V16.51c0-.79-.35-1.35-1.14-1.35s-1.13.56-1.13,1.35v7.06c0,.8.35,1.36,1.13,1.36S146.12,24.37,146.12,23.57Z"/>
        <path class="cls-2" d="M151.17,18.36v8.26h-1.86V13.47h2.18L153.87,21V13.47h1.84V26.62h-1.94Z"/>
        <path class="cls-2" d="M37.68,42.72V36.36c0-2,1-3.55,3.33-3.55s3.36,1.5,3.36,3.55v6.36c0,2-1,3.55-3.36,3.55S37.68,44.76,37.68,42.72Zm4.48.35V36c0-.79-.35-1.35-1.15-1.35s-1.12.56-1.12,1.35v7.06c0,.8.35,1.36,1.12,1.36S42.16,43.87,42.16,43.07Z"/>
        <path class="cls-2" d="M48.64,39.1h3.14v7H50.19V44.68a2,2,0,0,1-2.11,1.59c-1.9,0-2.78-1.51-2.78-3.55V36.36c0-2,1-3.55,3.32-3.55s3.16,1.36,3.16,3.3v1.17h-2V35.94c0-.82-.31-1.28-1.11-1.28s-1.14.56-1.14,1.35v7.06c0,.8.33,1.36,1.08,1.36s1.09-.41,1.09-1.26V40.84h-1Z"/>
        <path class="cls-2" d="M56.25,33h2.21V46.12H56.25Z"/>
        <path class="cls-2" d="M61.32,37.86v8.26H59.46V33h2.17L64,40.51V33h1.84V46.12H63.92Z"/>
        <path class="cls-2" d="M66.88,33h5.18v1.8h-3v3.77H71.3v1.78H69.09v5.8H66.88Z"/>
        <path class="cls-2" d="M75.06,40.09v6H72.85V33h3.22c2.23,0,3,1.11,3,3V37.6c0,1.42-.5,2.25-1.76,2.55l2.11,6H77.13Zm0-5.32v4.1h.74a1,1,0,0,0,1.08-1.09V35.84c0-.72-.33-1.07-1.08-1.07Z"/>
        <path class="cls-2" d="M80,46.12,82.51,33H85l2.5,13.15H85.26l-.41-2.41H82.51l-.39,2.41ZM82.8,42h1.76l-.87-5.28h0Z"/>
        <path class="cls-2" d="M88.05,43.29V41.52h2.06v1.81c0,.73.33,1.16,1.08,1.16s1-.47,1-1.16v-.51a2.38,2.38,0,0,0-1-1.86l-1.3-1.3c-1.26-1.24-1.84-2-1.84-3.51V35.7c0-1.62,1-2.89,3.1-2.89s3.09,1.09,3.09,3v1.07h-2V35.72c0-.75-.35-1.12-1-1.12a1,1,0,0,0-1,1.08V36c0,.73.41,1.16,1,1.78l1.42,1.4c1.2,1.22,1.78,2,1.78,3.41v.64c0,1.8-1,3.08-3.22,3.08S88.05,45,88.05,43.29Z"/>
        <path class="cls-2" d="M95.07,33h5.87v1.8H99.12V46.12H96.89V34.77H95.07Z"/>
        <path class="cls-2" d="M104,40.09v6h-2.21V33H105c2.23,0,3,1.11,3,3V37.6c0,1.42-.51,2.25-1.77,2.55l2.12,6h-2.33Zm0-5.32v4.1h.74a1,1,0,0,0,1.09-1.09V35.84c0-.72-.33-1.07-1.09-1.07Z"/>
        <path class="cls-2" d="M115.35,33v10c0,2-.87,3.35-3.12,3.35s-3.3-1.31-3.3-3.35V33h2.22V43.13c0,.78.31,1.3,1.08,1.3s1.09-.52,1.09-1.3V33Z"/>
        <path class="cls-2" d="M118.57,39.72v6.4h-2.21V33h2.21v5.78L121,33h2.17l-2.56,5.92,2.62,7.23h-2.33Z"/>
        <path class="cls-2" d="M123.78,33h5.88v1.8h-1.83V46.12H125.6V34.77h-1.82Z"/>
        <path class="cls-2" d="M136.9,33v10c0,2-.88,3.35-3.13,3.35s-3.29-1.31-3.29-3.35V33h2.21V43.13c0,.78.31,1.3,1.08,1.3s1.09-.52,1.09-1.3V33Z"/>
        <path class="cls-2" d="M140.11,40.09v6H137.9V33h3.22c2.23,0,3,1.11,3,3V37.6c0,1.42-.51,2.25-1.77,2.55l2.12,6h-2.33Zm0-5.32v4.1h.74a1,1,0,0,0,1.09-1.09V35.84c0-.72-.33-1.07-1.09-1.07Z"/>
      </g>
    </g>
  </g>
</svg>
