<svg xmlns="http://www.w3.org/2000/svg" viewBox="0 0 160.92 160.93">
  <defs>
    <style>
      .cls-1 {
        fill: #3f7e44;
      }

      .cls-2 {
        fill: #fff;
      }
    </style>
  </defs>
  <title>Artboard 68</title>
  <g id="Layer_1" data-name="Layer 1">
    <g>
      <rect class="cls-1" width="160.92" height="160.93"/>
      <polygon class="cls-2" points="20.31 13.5 20.31 45.93 14.86 45.93 14.86 21.11 14.81 21.11 10.98 25.07 10.94 25.07 10.94 19.38 15.96 13.5 20.31 13.5"/>
      <path class="cls-2" d="M38.3,20.53v2.82a5.2,5.2,0,0,1-3.73,5.27c2.72.62,4,2.53,4,5.5V38.9c0,4.5-2.39,7.41-7.89,7.41s-7.51-3.15-7.51-8.08V34h5v4.64c0,1.92.66,3.16,2.53,3.16,1.67,0,2.44-1.19,2.44-2.92V33.5c0-1.73-.77-2.64-2.68-2.64H28.16V26.7h2.05c1.77,0,2.92-.91,2.92-2.63V20.58c0-1.77-.62-2.92-2.34-2.92s-2.35,1.15-2.35,3.16v3.3h-5V21.25c0-4.79,2-8.13,7.6-8.13,5,0,7.23,2.82,7.23,7.41"/>
      <path class="cls-2" d="M140.73,100.75a73.61,73.61,0,0,0-118.14,0c-.18.25-.34.47-.46.66.12.19.28.41.46.67a73.62,73.62,0,0,0,118.14,0l.46-.67-.46-.66m-79-14.68c.33-.47,1.39-1.82,1.52-2a1.94,1.94,0,0,1,1.21-.49c.37-.07.88.14.94.42a3.45,3.45,0,0,1-.33,1.58,4.17,4.17,0,0,1-2.64,1.19c-.58-.09-.81-.54-.7-.71M60.5,88.6l.13-.15a3.28,3.28,0,0,1,2-.71c.62-.11,1.44.2,1.54.61s-1.55,1.16-1.85,1.44c-.86.79-2.2,2.4-3,2.58a1,1,0,0,1-.64-.07,24.57,24.57,0,0,1,1.85-3.7M73.84,116a7.1,7.1,0,0,1-1.52,3.19,5.2,5.2,0,0,1-3.39,1.29c-1.13-.08-1.29-3.1-1.29-4.65,0-.53-.75,1-1.15-2.17-.25-2.07-1.58.21-1.67-1.16s-.76-1.1-1.46-2-1.55.08-2.52.51-.57.66-1.94.23l-.08,0a24.66,24.66,0,0,1-2-9.66c0-.84,0-1.67.13-2.48a1.14,1.14,0,0,1,.15-.23c1.31-1.56,1.28-1.92,1.28-1.92l1.46-.5a23.85,23.85,0,0,1,4.07,1c1.44.54,3.7,1.76,5,1.23,1-.4,1.7-.92,1.61-1.71-.11-1-.89-1.24-1.84-.56-.35.24-1.1-1.5-1.68-1.42s.72,2.06.23,2.14-1.5-2-1.67-2.39-.94-1.2-1.64-.55c-1.46,1.39-3.84,1.31-4.32,1.66-1.45,1.09-1.84-.35-1.8-1.24.06-.2.11-.4.18-.6a3,3,0,0,1,2.76-.31c.65.43,1.11-.11,1.36-.37s.16-.66,0-1,.32-.59.66-.68A19.61,19.61,0,0,0,64.7,90.5a6.12,6.12,0,0,1,3.77,0A2,2,0,0,0,71,90a6.73,6.73,0,0,1,1.8-1.5c.36-.16-.89-1.33-1.91-.06s-1.55,1.38-2,1.38-3.35-.72-3.71-1.62.9-1.59,2-2.1,4-.5,4.69-.66c1.51-.33,3.43-1.09,4.4-.43s-4.05,1.79-2.4,2.68c.59.32,3.24-1.53,4.14-2,2.14-1.1-2.07-1.46-1.52-3.7.62-2.53-5.16-1.55-8-1.34a24.83,24.83,0,0,1,37.52,15.12,4.18,4.18,0,0,1-.12,1.15,1.63,1.63,0,0,1-2.91.22c-.25-.36-1.32-1.37-1.28.35s1.67,1.9.09,2.93a6.09,6.09,0,0,1-2.61,1c-.74.26-1.45,2-1.27,3s2.44,3.53.76,3.43c-.39,0-3.36-2.06-3.85-3.36s-1.08-2.72-1.48-3.75a1.48,1.48,0,0,0-2.34-.69c-.88.61.24,1.21-.39,2.5s-1.09,2.45-2,1.38c-2.43-2.78-6-1.41-6.5-4.5-.3-1.67-1.74-1.51-3-2.46s-1.89-1.46-2.09-.77,3.8,3.75,4.08,4.55c.42,1.2-1.19,2.26-2.37,2.55s-1.69-.67-2.85-1.87-1.66-2.07-1.75-1.12a5.44,5.44,0,0,0,2.28,4.12c1,.64,2.13.93,1.81,2s0,.45-1.13,1.56-1.35,1.48-1.26,3-.33,1.64-.57,2.93-.8.17-1.29,2.06m26.64-9.9c.84-.07,2.09,1.09,1.6,1.53a2.21,2.21,0,0,1-2.37-.21c-.62-.48.4-1.29.77-1.32m-1-.76c-.27-.1-.51-.36-.71-1s.31-1,.81-.71a2.4,2.4,0,0,1,1.17,1.43c0,.4-1,.36-1.27.25m-11,0a2.27,2.27,0,0,1-2.38-.22c-.62-.48.4-1.29.77-1.32.84-.07,2.09,1.09,1.61,1.54M78.33,110.2c-.35.56-1.28,4.73-1.91,4.25s.26-4.85.44-5.18c1-1.8,3.1-1.71,1.47.93m3.37,16.18a24.79,24.79,0,0,1-7-1,1,1,0,0,1-.3-1.21c.77-2,3.06-2.79,4.86-3,4-.39,9.32,2.61,10.17,2.13s2.54-2.7,5-2.61a3.94,3.94,0,0,1,2.27.57,24.74,24.74,0,0,1-15.06,5.08m17.52-7.23a4.61,4.61,0,0,1-.78-.28c-1.36-.69-1.2.41-1.86.17s.75-1.8-1.25-.49-1.46-.2-2.33-2.41,1-4.74,2.57-5.31a31.82,31.82,0,0,1,4.51-1.19c3-.75,3.62-2.52,4.16-1.44l.29.58a4,4,0,0,1,.38,1.61,24.94,24.94,0,0,1-5.69,8.76m6.8-12.53c-.67-.19-3.45-4-1.25-6.58.37-.41-.74-1.64-.44-1.67a2,2,0,0,1,2.17,1.74c0,.47,0,1,0,1.44a25,25,0,0,1-.52,5.07"/>
      <g>
        <path class="cls-2" d="M54.91,20.18v6.4H52.7V13.43h2.21v5.78l2.41-5.78h2.17l-2.56,5.91,2.62,7.24H57.22Z"/>
        <path class="cls-2" d="M60.27,13.43h2.22V24.77h2.63v1.81H60.27Z"/>
        <path class="cls-2" d="M65.92,13.43h2.21V26.58H65.92Z"/>
        <path class="cls-2" d="M75.23,18h-.06l-1.49,8.54h-1L71,18h0v8.54H69.14V13.43h2.58l1.43,7.41h0l1.28-7.41h2.8V26.58h-2Z"/>
        <path class="cls-2" d="M78,26.58,80.5,13.43H83l2.51,13.15H83.26l-.41-2.41H80.5l-.39,2.41Zm2.77-4.17h1.77l-.88-5.28h0Z"/>
        <path class="cls-2" d="M85.74,19.58h3.1v1.78h-3.1Z"/>
        <path class="cls-2" d="M52.7,32.93h2.21V46.08H52.7Z"/>
        <path class="cls-2" d="M57.78,37.81v8.27H55.92V32.93h2.17l2.39,7.54V32.93h1.84V46.08H60.38Z"/>
        <path class="cls-2" d="M70,36.46v6.09c0,2-.84,3.53-3.2,3.53H63.33V32.93h3.42C69.11,32.93,70,34.42,70,36.46Zm-3.47,7.81c.91,0,1.26-.54,1.26-1.33V36.05a1.15,1.15,0,0,0-1.26-1.32h-.94v9.54Z"/>
        <path class="cls-2" d="M70.83,43.25V41.48h2v1.8c0,.74.33,1.17,1.09,1.17s1-.47,1-1.17v-.5a2.37,2.37,0,0,0-1-1.86l-1.3-1.3c-1.26-1.24-1.84-2-1.84-3.51v-.45c0-1.63,1-2.89,3.1-2.89s3.08,1.09,3.08,3v1.07H75V35.68c0-.75-.35-1.12-1-1.12a1,1,0,0,0-1,1.08v.27c0,.74.41,1.17,1,1.79l1.41,1.39c1.21,1.23,1.79,2,1.79,3.42v.64c0,1.8-1,3.08-3.22,3.08S70.83,45,70.83,43.25Z"/>
        <path class="cls-2" d="M77.69,46.08l2.48-13.15h2.52l2.5,13.15H82.92l-.4-2.41H80.17l-.39,2.41Zm2.77-4.17h1.77l-.88-5.28h0Z"/>
        <path class="cls-2" d="M84.91,32.93h5.88v1.8H89V46.08H86.73V34.73H84.91Z"/>
        <path class="cls-2" d="M91.52,43.25V41.48h2.06v1.8c0,.74.33,1.17,1.08,1.17s1-.47,1-1.17v-.5a2.37,2.37,0,0,0-1-1.86l-1.3-1.3c-1.26-1.24-1.84-2-1.84-3.51v-.45c0-1.63.95-2.89,3.1-2.89s3.09,1.09,3.09,3v1.07h-2V35.68c0-.75-.35-1.12-1-1.12a1,1,0,0,0-1,1.08v.27c0,.74.4,1.17,1,1.79l1.42,1.39c1.2,1.23,1.78,2,1.78,3.42v.64c0,1.8-1,3.08-3.22,3.08S91.52,45,91.52,43.25Z"/>
      </g>
    </g>
  </g>
</svg>
