<svg xmlns="http://www.w3.org/2000/svg" viewBox="0 0 160.92 160.93">
  <defs>
    <style>
      .cls-1 {
        fill: #0a97d9;
      }

      .cls-2 {
        fill: #fff;
      }
    </style>
  </defs>
  <title>Artboard 69</title>
  <g id="Layer_1" data-name="Layer 1">
    <g>
      <rect class="cls-1" width="160.92" height="160.93"/>
      <polygon class="cls-2" points="18.97 13.54 18.97 45.97 13.51 45.97 13.51 21.15 13.46 21.15 9.64 25.12 9.59 25.12 9.59 19.42 14.61 13.54 18.97 13.54"/>
      <path class="cls-2" d="M35.57,46V40.72h2.2V36.46h-2.2V13.53H30.21L20.79,37.37v3.35H30.4V46Zm-10-9.52L30.45,23.1h.05V36.46Z"/>
      <path class="cls-2" d="M121.55,117.42c-2-2.74-15.1-19.42-33.44-19.42-15.93,0-33,14.45-33,14.45s-6.4-13.1-19.49-14.36l-.25,0h-.08a.54.54,0,0,0-.5.52,1.49,1.49,0,0,0,.21.48c1.68,2.8,6,10.77,6,18.74s-4.33,16-6,18.76l-.12.18a.65.65,0,0,0-.08.28.52.52,0,0,0,.49.51h.27c13.14-1.22,19.56-14.36,19.56-14.36s17,14.44,33,14.44c18.34,0,31.42-16.68,33.44-19.41l.15-.18a.71.71,0,0,0,0-.2.54.54,0,0,0,0-.2l-.15-.19M98.3,119.91a5.35,5.35,0,1,1,5.36-5.35,5.36,5.36,0,0,1-5.36,5.35"/>
      <path class="cls-2" d="M35.24,66.65l-.1,0a.53.53,0,0,0-.53.53v3.65a.55.55,0,0,0,.15.38c8.86,7.69,17.24.48,19.18-1.42a.5.5,0,0,1,.14-.15.55.55,0,0,1,.29-.09.5.5,0,0,1,.35.14l0,0c10,9.54,20.49,1.81,22.67,0l.21-.2a.48.48,0,0,1,.2,0,.46.46,0,0,1,.21,0l.22.2c2.18,1.81,12.66,9.54,22.66,0a0,0,0,0,0,0,0,.52.52,0,0,1,.36-.14.55.55,0,0,1,.29.09.71.71,0,0,1,.15.15c1.93,1.9,10.31,9.11,19.17,1.42a.55.55,0,0,0,.15-.38V67.16a.52.52,0,0,0-.52-.53l-.11,0-.27.14c-2.72,1.36-11.16,4.61-18.83-2.64l-.22-.22a.56.56,0,0,0-.23,0l-.15,0a.58.58,0,0,0-.27.21c-2.29,1.74-12.77,8.84-22.11.13l-.14-.14a.62.62,0,0,0-.38-.15.58.58,0,0,0-.36.15l-.15.14C68,73,57.49,65.86,55.21,64.12a.61.61,0,0,0-.26-.21.86.86,0,0,0-.17,0,.59.59,0,0,0-.22,0c-.07.08-.15.15-.22.22-7.67,7.25-16.11,4-18.83,2.64l-.27-.14"/>
      <path class="cls-2" d="M53.94,83.05a.47.47,0,0,1,.14-.14.48.48,0,0,1,.29-.1.54.54,0,0,1,.36.14l0,0c10,9.53,20.49,1.8,22.67,0l.21-.21a.69.69,0,0,1,.2,0,.66.66,0,0,1,.21,0l.22.21c2.18,1.8,12.66,9.53,22.66,0l0,0a.52.52,0,0,1,.36-.14.48.48,0,0,1,.29.1.66.66,0,0,1,.15.14c1.93,1.91,10.31,9.12,19.17,1.42a.55.55,0,0,0,.16-.37V80.44a.52.52,0,0,0-.53-.52l-.11,0-.27.13c-2.72,1.37-11.17,4.6-18.83-2.64l-.22-.21a.43.43,0,0,0-.23,0,.26.26,0,0,0-.15,0,.41.41,0,0,0-.27.19c-2.28,1.74-12.77,8.84-22.11.13l-.14-.14a.56.56,0,0,0-.38-.14.52.52,0,0,0-.36.14l-.15.14C68,86.24,57.49,79.14,55.21,77.4a.42.42,0,0,0-.26-.19.33.33,0,0,0-.17,0,.44.44,0,0,0-.22,0l-.22.21c-7.67,7.24-16.11,4-18.83,2.64l-.27-.13-.1,0a.52.52,0,0,0-.53.52V84.1a.54.54,0,0,0,.15.37c8.86,7.7,17.24.49,19.18-1.42"/>
      <g>
        <path class="cls-2" d="M50.52,13.43h2.21V24.77h2.64v1.81H50.52Z"/>
        <path class="cls-2" d="M56.17,13.43h2.21V26.58H56.17Z"/>
        <path class="cls-2" d="M66.55,13.43l-2.5,13.15H61.64l-2.5-13.15h2.25L62.9,22.6h0l1.55-9.17Z"/>
        <path class="cls-2" d="M67.31,13.43h5.28v1.8H69.52V19h2.2v1.79h-2.2v4h3.07v1.81H67.31Z"/>
        <path class="cls-2" d="M73.36,13.43h5.88v1.8H77.42V26.58H75.19V15.23H73.36Z"/>
        <path class="cls-2" d="M50.52,32.93h2.21V46.08H50.52Z"/>
        <path class="cls-2" d="M61.56,40.28H59.42v5.8H57.21V32.93h2.21v5.56h2.14V32.93h2.23V46.08H61.56Z"/>
        <path class="cls-2" d="M64.55,46.08,67,32.93h2.53l2.5,13.15H69.79l-.41-2.41H67l-.38,2.41Zm2.78-4.17h1.76l-.87-5.28h0Z"/>
        <path class="cls-2" d="M78.94,32.93l-2.5,13.15H74L71.53,32.93h2.25L75.3,42.1h0l1.56-9.17Z"/>
        <path class="cls-2" d="M79.71,32.93H85v1.8H81.92v3.76h2.19v1.79H81.92v4H85v1.81H79.71Z"/>
        <path class="cls-2" d="M85.75,32.93h5.88v1.8H89.81V46.08H87.58V34.73H85.75Z"/>
      </g>
    </g>
  </g>
</svg>
